<svg xmlns="http://www.w3.org/2000/svg" xmlns:xlink="http://www.w3.org/1999/xlink" width="96" zoomAndPan="magnify" viewBox="0 0 72 72" height="96" preserveAspectRatio="xMidYMid meet" version="1.0"><defs><clipPath id="1b38c5f789"><path d="M 4 9 L 69 9 L 69 51 L 4 51 Z M 4 9 " clip-rule="nonzero"/></clipPath><clipPath id="b3f7f45be4"><path d="M 15.503906 66.609375 L 0.00390625 18.023438 L 56.449219 0.0117188 L 71.953125 48.597656 Z M 15.503906 66.609375 " clip-rule="nonzero"/></clipPath><clipPath id="33c1445768"><path d="M 0.00390625 18.023438 L 15.503906 66.609375 L 71.953125 48.597656 L 56.449219 0.0117188 Z M 0.00390625 18.023438 " clip-rule="nonzero"/></clipPath></defs><g clip-path="url(#1b38c5f789)"><g clip-path="url(#b3f7f45be4)"><g clip-path="url(#33c1445768)"><path fill="#ffffff" d="M 61.421875 50.582031 C 57.25 49.332031 53.152344 47.855469 48.996094 46.554688 C 48.226562 46.261719 47.242188 46.230469 46.765625 45.472656 C 46.585938 45.1875 46.503906 44.878906 46.511719 44.542969 C 46.519531 44.207031 46.617188 43.902344 46.808594 43.628906 C 47 43.351562 47.25 43.152344 47.5625 43.027344 C 47.871094 42.902344 48.191406 42.875 48.519531 42.941406 C 51.558594 43.867188 57.03125 45.722656 60.539062 46.835938 C 57.941406 41.574219 56.421875 37.375 53.039062 32.195312 C 50.796875 28.632812 46.414062 24.527344 43.957031 23.675781 C 43.546875 23.535156 43.152344 23.425781 42.765625 23.332031 C 42.253906 25.167969 41.449219 26.863281 40.351562 28.417969 C 39.257812 29.976562 37.933594 31.304688 36.378906 32.402344 C 33.945312 34.515625 29.167969 34.253906 28.914062 30.382812 C 28.671875 27.394531 30.695312 24.851562 32.703125 22.859375 C 33.636719 21.902344 34.714844 21.15625 35.945312 20.625 C 37.171875 20.089844 38.453125 19.8125 39.792969 19.785156 C 39.777344 19.238281 39.703125 18.699219 39.566406 18.171875 C 39.429688 17.640625 39.234375 17.132812 38.984375 16.644531 C 38.730469 16.160156 38.429688 15.707031 38.074219 15.289062 C 37.71875 14.871094 37.324219 14.5 36.882812 14.171875 C 36.445312 13.84375 35.976562 13.570312 35.472656 13.347656 C 34.972656 13.128906 34.453125 12.964844 33.917969 12.863281 C 33.378906 12.757812 32.835938 12.71875 32.289062 12.738281 C 31.742188 12.757812 31.203125 12.835938 30.675781 12.976562 C 22.210938 14.726562 15.03125 21.035156 10.773438 27.390625 C 9.820312 28.886719 9.023438 30.457031 8.390625 32.113281 C 8.054688 32.882812 7.882812 33.890625 6.957031 34.148438 C 6.648438 34.238281 6.335938 34.238281 6.027344 34.144531 C 5.71875 34.054688 5.460938 33.882812 5.253906 33.636719 C 5.042969 33.390625 4.921875 33.109375 4.882812 32.789062 C 4.839844 32.46875 4.894531 32.164062 5.035156 31.875 C 8.1875 22.949219 15.523438 15.820312 23.925781 11.707031 C 31.011719 8.117188 40.585938 8.484375 42.800781 17.527344 C 43.011719 18.367188 43.121094 19.21875 43.136719 20.085938 C 45.890625 20.679688 48.265625 21.96875 50.257812 23.953125 C 55.355469 28.425781 58.488281 34.519531 61.246094 40.605469 C 62.433594 43.261719 63.386719 45.132812 64.082031 46.554688 C 64.785156 44.601562 65.359375 42.613281 65.804688 40.589844 C 66.273438 39.175781 65.898438 39.023438 66.773438 38.246094 C 67.011719 38.097656 67.265625 38.027344 67.546875 38.035156 C 67.824219 38.042969 68.074219 38.125 68.304688 38.28125 C 68.53125 38.441406 68.699219 38.648438 68.800781 38.90625 C 68.90625 39.164062 68.929688 39.429688 68.875 39.699219 C 68.941406 38.910156 68.835938 40.265625 68.8125 40.609375 C 68.664062 42.832031 68.203125 44.988281 67.421875 47.078125 C 66.894531 48.53125 66.328125 50.253906 64.753906 50.847656 C 63.613281 51.117188 62.503906 51.027344 61.421875 50.582031 Z M 39.394531 23.085938 C 38.042969 23.308594 36.804688 23.8125 35.679688 24.597656 C 34.554688 25.382812 33.652344 26.371094 32.980469 27.566406 C 31.964844 29.273438 32.160156 29.671875 32.230469 30.285156 L 32.242188 30.316406 C 33.296875 30.800781 35.472656 29.429688 37.960938 26.097656 C 38.597656 25.167969 39.078125 24.164062 39.394531 23.085938 Z M 39.394531 23.085938 " fill-opacity="1" fill-rule="nonzero"/></g></g></g></svg>