<svg xmlns="http://www.w3.org/2000/svg" xmlns:xlink="http://www.w3.org/1999/xlink" width="1500" zoomAndPan="magnify" viewBox="0 0 1125 374.999991" height="500" preserveAspectRatio="xMidYMid meet" version="1.0"><defs><g/></defs><g fill="#ffffff" fill-opacity="1"><g transform="translate(0.038308, 228.755902)"><g><path d="M 29.652344 -2.664062 L 31.589844 -0.484375 L 34.25 1.089844 L 38.851562 0.96875 L 41.511719 0 L 43.449219 -2.542969 L 44.539062 -4.597656 L 45.265625 -7.261719 L 46.476562 -9.441406 L 47.082031 -11.496094 L 48.171875 -14.039062 L 48.777344 -15.976562 L 52.527344 -24.933594 L 53.253906 -27.472656 L 55.433594 -32.074219 L 57.003906 -36.792969 L 58.214844 -36.429688 L 59.425781 -34.371094 L 60.152344 -31.832031 L 62.210938 -27.714844 L 69.109375 -9.078125 L 70.925781 -5.082031 L 71.648438 -2.785156 L 73.949219 -0.242188 L 76.734375 1.210938 L 79.035156 1.089844 L 81.089844 0.726562 L 83.996094 -0.242188 L 85.8125 -2.421875 L 86.539062 -4.71875 L 87.625 -6.898438 L 94.886719 -27.957031 L 95.976562 -30.015625 L 99.972656 -40.304688 L 100.941406 -43.691406 L 102.027344 -45.871094 L 102.511719 -47.929688 L 110.257812 -68.503906 L 110.863281 -71.167969 L 112.074219 -73.34375 L 114.375 -80.726562 L 113.648438 -83.632812 L 111.226562 -84.238281 L 108.808594 -84.601562 L 104.570312 -84.359375 L 99.730469 -84.601562 L 97.1875 -84.359375 L 94.886719 -84.722656 L 92.347656 -83.511719 L 90.289062 -80.96875 L 89.683594 -78.671875 L 88.59375 -76.613281 L 81.9375 -55.3125 L 81.453125 -52.890625 L 79.878906 -47.808594 L 79.035156 -42.722656 L 78.308594 -40.425781 L 77.097656 -40.546875 L 74.675781 -47.445312 L 74.070312 -49.863281 L 68.867188 -63.542969 L 67.65625 -68.140625 L 66.6875 -70.441406 L 65.234375 -75.28125 L 64.265625 -77.339844 L 63.300781 -79.515625 L 61.605469 -81.9375 L 59.0625 -83.390625 L 56.402344 -83.390625 L 53.980469 -82.179688 L 51.921875 -79.757812 L 47.929688 -67.777344 L 46.113281 -63.421875 L 41.753906 -49.378906 L 40.546875 -47.566406 L 40.0625 -45.023438 L 38.246094 -40.425781 L 37.277344 -40.304688 L 36.792969 -43.207031 L 29.046875 -69.59375 L 28.078125 -71.648438 L 26.625 -76.371094 L 26.144531 -78.792969 L 25.175781 -81.210938 L 22.996094 -83.148438 L 20.695312 -84.238281 L 11.015625 -84.359375 L 8.835938 -84.84375 L 6.65625 -84.480469 L 4.113281 -84.359375 L 1.574219 -83.632812 L 1.089844 -80.847656 L 1.695312 -77.582031 L 6.777344 -63.785156 L 7.867188 -61.726562 L 12.828125 -48.171875 L 13.554688 -45.507812 L 16.945312 -36.429688 L 18.035156 -34.492188 L 27.835938 -7.019531 L 28.925781 -4.71875 Z M 120.304688 -74.191406 L 119.699219 -77.097656 L 117.640625 -76.734375 L 115.828125 -74.796875 L 114.980469 -72.011719 L 114.011719 -69.957031 L 112.4375 -65.113281 L 111.347656 -63.179688 L 105.660156 -47.445312 L 105.054688 -44.902344 L 99.003906 -29.046875 L 97.914062 -27.109375 L 95.371094 -20.210938 L 94.765625 -17.914062 L 91.378906 -8.957031 L 90.773438 -6.65625 L 89.5625 -4.355469 L 88.351562 -0.726562 L 86.054688 2.664062 L 83.148438 3.753906 L 81.089844 3.632812 L 79.394531 4.71875 L 80.605469 7.261719 L 83.632812 8.59375 L 86.417969 8.59375 L 89.320312 7.988281 L 91.257812 5.203125 L 108.566406 -41.632812 L 109.773438 -43.933594 L 118.246094 -66.929688 L 118.730469 -69.109375 L 119.820312 -70.925781 Z M 37.519531 -55.070312 L 38.367188 -53.253906 L 39.335938 -53.859375 L 40.546875 -59.183594 L 39.941406 -62.453125 L 35.945312 -74.3125 L 33.769531 -76.492188 L 31.105469 -76.734375 L 30.984375 -73.949219 L 31.953125 -71.648438 L 34.855469 -62.089844 L 36.308594 -58.699219 Z M 76.007812 -53.132812 L 77.460938 -52.40625 L 78.671875 -53.980469 L 78.914062 -57.730469 L 78.308594 -61.121094 L 76.613281 -65.839844 L 76.007812 -68.625 L 74.796875 -70.804688 L 74.3125 -72.859375 L 72.011719 -75.28125 L 69.835938 -75.402344 L 69.109375 -73.222656 L 74.554688 -57.367188 L 75.402344 -55.554688 Z M 59.183594 -19.605469 L 59.546875 -22.875 L 59.0625 -26.503906 L 57.972656 -27.835938 L 56.640625 -26.382812 L 45.75 0.242188 L 43.570312 2.300781 L 40.910156 3.390625 L 38.851562 3.269531 L 37.035156 4.71875 L 38.003906 7.503906 L 41.273438 8.59375 L 43.8125 9.078125 L 46.839844 7.625 L 49.257812 5.445312 L 50.226562 3.148438 L 51.800781 -1.695312 L 52.890625 -3.632812 Z M 59.183594 -19.605469 "/></g></g></g><g fill="#ffffff" fill-opacity="1"><g transform="translate(115.494587, 228.755902)"><g><path d="M 9.199219 -3.390625 L 10.167969 -0.847656 L 12.949219 0.242188 L 15.25 0.242188 L 19 -0.121094 L 22.511719 0 L 25.054688 0.363281 L 27.59375 0.121094 L 30.257812 -0.96875 L 31.226562 -3.390625 L 31.347656 -5.808594 L 30.984375 -8.472656 L 31.226562 -10.652344 L 30.984375 -13.070312 L 31.226562 -15.371094 L 31.105469 -18.035156 L 31.347656 -20.574219 L 30.984375 -30.136719 L 32.195312 -32.679688 L 34.613281 -34.128906 L 37.15625 -34.128906 L 39.335938 -33.890625 L 46.476562 -33.890625 L 48.898438 -34.128906 L 51.316406 -33.890625 L 53.617188 -33.890625 L 55.796875 -32.679688 L 57.003906 -30.257812 L 57.367188 -22.875 L 57.003906 -20.574219 L 57.488281 -11.980469 L 57.003906 -8.351562 L 57.367188 -3.632812 L 58.578125 -1.089844 L 61 0.121094 L 63.421875 -0.121094 L 67.050781 0.242188 L 75.402344 0.242188 L 77.824219 -1.089844 L 79.152344 -3.390625 L 79.636719 -8.351562 L 79.636719 -27.835938 L 79.152344 -32.4375 L 79.273438 -34.855469 L 79.035156 -37.398438 L 79.035156 -39.820312 L 79.394531 -42.359375 L 79.273438 -46.960938 L 79.515625 -49.621094 L 79.152344 -61.484375 L 79.757812 -71.53125 L 79.273438 -73.828125 L 79.035156 -76.128906 L 79.515625 -78.550781 L 79.273438 -80.96875 L 78.066406 -83.390625 L 74.3125 -84.601562 L 68.140625 -84.722656 L 64.265625 -84.359375 L 61.847656 -84.359375 L 58.214844 -83.269531 L 57.246094 -79.757812 L 57.488281 -66.566406 L 57.003906 -64.507812 L 57.003906 -57.488281 L 55.675781 -55.070312 L 53.617188 -53.859375 L 48.777344 -53.859375 L 46.597656 -54.101562 L 34.855469 -53.980469 L 32.316406 -55.070312 L 31.347656 -57.367188 L 31.347656 -64.628906 L 31.589844 -66.808594 L 31.226562 -78.792969 L 31.347656 -80.847656 L 29.894531 -83.390625 L 26.144531 -84.601562 L 19 -84.359375 L 16.582031 -84.601562 L 14.28125 -84.359375 L 10.53125 -83.269531 L 9.199219 -81.210938 L 8.835938 -78.550781 L 8.835938 -76.25 L 9.078125 -73.585938 L 8.714844 -71.289062 L 9.320312 -64.023438 L 8.957031 -61.363281 L 9.199219 -59.304688 L 8.714844 -56.882812 L 9.199219 -49.5 L 8.957031 -46.960938 L 8.957031 -39.941406 L 9.320312 -37.640625 L 9.078125 -33.890625 L 9.320312 -31.105469 L 8.957031 -25.417969 L 9.199219 -22.753906 L 8.835938 -20.332031 L 9.199219 -18.15625 L 8.957031 -15.734375 Z M 66.203125 4.113281 L 66.203125 6.777344 L 70.320312 7.867188 L 73.949219 7.988281 L 77.582031 7.746094 L 80.847656 8.109375 L 83.511719 7.867188 L 85.570312 6.898438 L 87.261719 4.476562 L 87.382812 -0.605469 L 87.019531 -2.785156 L 87.261719 -5.445312 L 87.261719 -9.078125 L 87.019531 -11.496094 L 87.503906 -19.96875 L 87.019531 -22.269531 L 87.382812 -32.195312 L 86.898438 -34.613281 L 87.019531 -39.335938 L 87.382812 -41.996094 L 87.019531 -44.054688 L 87.261719 -46.71875 L 87.261719 -49.015625 L 87.019531 -51.558594 L 87.503906 -57.609375 L 87.019531 -68.261719 L 87.140625 -70.804688 L 87.503906 -73.222656 L 85.933594 -75.644531 L 83.511719 -75.644531 L 82.179688 -71.890625 L 82.058594 -68.382812 L 82.664062 -65.960938 L 82.179688 -56.160156 L 82.664062 -53.738281 L 82.421875 -51.4375 L 82.542969 -46.839844 L 82.179688 -44.417969 L 82.542969 -19.847656 L 82.179688 -15.128906 L 82.542969 -7.746094 L 82.058594 -5.6875 L 82.542969 -2.90625 L 82.421875 -0.605469 L 81.332031 1.816406 L 78.308594 2.90625 L 76.007812 3.148438 L 71.289062 3.148438 L 68.867188 2.90625 Z M 34.25 -60.636719 L 35.582031 -58.09375 L 37.882812 -57.972656 L 39.214844 -60.636719 L 38.730469 -65.71875 L 39.09375 -68.261719 L 38.972656 -73.101562 L 38.125 -75.523438 L 35.460938 -75.523438 L 34.371094 -72.980469 L 34.007812 -70.5625 L 34.128906 -68.140625 L 34.007812 -65.597656 L 34.25 -63.300781 Z M 18.398438 4.234375 L 18.277344 6.777344 L 20.816406 7.867188 L 35.460938 7.988281 L 37.519531 6.65625 L 39.09375 3.992188 L 39.457031 0.605469 L 38.972656 -3.148438 L 39.214844 -9.320312 L 38.972656 -12.949219 L 39.335938 -17.914062 L 38.851562 -19.96875 L 39.09375 -22.632812 L 40.183594 -25.054688 L 42.964844 -26.265625 L 49.136719 -26.023438 L 52.890625 -27.351562 L 52.769531 -29.773438 L 50.226562 -30.984375 L 47.808594 -30.863281 L 45.144531 -31.105469 L 37.882812 -30.863281 L 35.339844 -29.773438 L 34.25 -27.472656 L 34.25 -19.96875 L 34.007812 -17.792969 L 34.492188 -12.585938 L 34.007812 -10.289062 L 34.371094 -5.445312 L 34.25 -0.605469 L 33.042969 1.9375 L 29.289062 3.027344 L 25.660156 3.148438 L 21.785156 2.90625 Z M 18.398438 4.234375 "/></g></g></g><g fill="#ffffff" fill-opacity="1"><g transform="translate(204.083676, 228.755902)"><g><path d="M 1.574219 -3.269531 L 2.179688 -0.726562 L 4.597656 -0.121094 L 15.25 -0.121094 L 18.398438 0.242188 L 21.179688 -0.96875 L 23.359375 -3.148438 L 25.417969 -7.261719 L 27.472656 -9.5625 L 30.378906 -10.773438 L 32.800781 -10.53125 L 39.578125 -10.652344 L 42.117188 -10.289062 L 44.902344 -10.652344 L 47.082031 -10.652344 L 49.621094 -10.410156 L 55.3125 -10.652344 L 59.304688 -9.320312 L 61.847656 -7.382812 L 62.453125 -5.203125 L 63.785156 -3.027344 L 65.839844 -1.089844 L 68.988281 0.121094 L 71.167969 -0.121094 L 75.402344 0.242188 L 82.90625 0 L 85.085938 -0.726562 L 85.570312 -3.269531 L 84.84375 -6.292969 L 83.996094 -8.472656 L 82.421875 -10.53125 L 81.695312 -12.949219 L 80.484375 -14.765625 L 79.757812 -17.066406 L 77.703125 -21.421875 L 76.855469 -23.722656 L 75.644531 -25.78125 L 73.949219 -30.257812 L 72.617188 -32.195312 L 71.648438 -34.613281 L 70.5625 -36.671875 L 69.714844 -39.09375 L 68.625 -40.910156 L 67.898438 -43.328125 L 66.566406 -45.507812 L 65.597656 -47.566406 L 64.386719 -49.621094 L 63.785156 -51.921875 L 61.363281 -56.160156 L 60.636719 -58.457031 L 58.457031 -63.058594 L 57.851562 -64.992188 L 56.039062 -69.230469 L 53.617188 -73.707031 L 51.679688 -78.308594 L 50.589844 -80.121094 L 49.863281 -82.421875 L 47.6875 -84.722656 L 43.570312 -85.8125 L 39.699219 -84.601562 L 37.398438 -82.421875 L 36.671875 -80.242188 L 31.46875 -69.351562 L 30.136719 -67.171875 L 23.359375 -51.921875 L 22.753906 -49.863281 L 21.421875 -47.6875 L 19.484375 -43.328125 L 17.671875 -40.183594 L 16.824219 -37.882812 L 15.128906 -34.734375 L 14.402344 -32.195312 L 13.3125 -30.257812 L 12.464844 -27.835938 L 9.078125 -21.542969 L 5.566406 -12.707031 L 4.113281 -10.773438 L 3.027344 -8.351562 Z M 59.183594 -76.734375 L 56.640625 -76.855469 L 56.402344 -74.433594 L 63.90625 -59.183594 L 64.386719 -56.761719 L 65.597656 -54.464844 L 66.929688 -52.527344 L 67.898438 -50.589844 L 68.625 -48.171875 L 69.957031 -45.871094 L 70.804688 -43.8125 L 71.890625 -41.753906 L 74.554688 -34.855469 L 75.886719 -32.921875 L 80.96875 -22.027344 L 81.695312 -19.605469 L 84.238281 -15.25 L 84.722656 -13.070312 L 86.175781 -10.773438 L 86.777344 -8.714844 L 87.988281 -6.292969 L 89.441406 0 L 88.472656 1.9375 L 85.933594 3.148438 L 83.632812 3.027344 L 81.089844 3.269531 L 71.289062 3.148438 L 69.714844 4.234375 L 70.5625 6.898438 L 73.707031 7.867188 L 84.480469 7.867188 L 87.019531 8.109375 L 89.320312 8.109375 L 92.953125 7.019531 L 94.765625 3.269531 L 94.644531 0 L 92.953125 -6.898438 L 91.742188 -9.078125 L 91.136719 -11.375 L 87.625 -17.550781 L 85.085938 -24.449219 L 83.632812 -26.382812 L 80.484375 -33.042969 L 79.636719 -35.460938 L 78.308594 -37.398438 L 77.582031 -39.457031 L 76.371094 -41.632812 L 74.675781 -46.355469 L 71.410156 -52.648438 L 70.804688 -54.949219 L 69.472656 -57.125 L 68.746094 -59.183594 L 67.292969 -61.363281 L 65.355469 -65.597656 L 64.507812 -68.140625 L 63.300781 -70.078125 L 61.363281 -74.675781 Z M 38.972656 -29.894531 L 36.671875 -30.863281 L 36.308594 -33.285156 L 41.152344 -44.296875 L 42.238281 -46.234375 L 43.8125 -47.445312 L 45.265625 -46.476562 L 46.839844 -41.753906 L 48.171875 -39.699219 L 48.65625 -37.761719 L 49.863281 -35.339844 L 50.710938 -33.164062 L 50.46875 -30.984375 L 48.414062 -30.015625 Z M 40.425781 -34.976562 L 41.03125 -32.558594 L 43.691406 -33.164062 L 45.507812 -37.277344 L 44.417969 -40.789062 L 42.238281 -39.820312 L 41.03125 -37.519531 Z M 6.050781 5.445312 L 6.898438 7.382812 L 9.078125 7.988281 L 17.550781 7.867188 L 20.574219 8.230469 L 23.117188 8.109375 L 26.023438 6.898438 L 28.078125 4.960938 L 30.136719 0.363281 L 32.558594 -1.453125 L 35.097656 -2.785156 L 47.203125 -2.90625 L 49.863281 -2.542969 L 51.921875 -2.785156 L 56.640625 -2.785156 L 58.457031 -3.753906 L 57.609375 -6.414062 L 54.34375 -7.503906 L 52.042969 -7.625 L 45.75 -7.382812 L 42.480469 -7.625 L 39.820312 -7.382812 L 34.855469 -7.625 L 32.195312 -7.503906 L 29.289062 -6.535156 L 26.988281 -4.355469 L 25.054688 0.121094 L 22.996094 2.179688 L 19.726562 3.269531 L 15.007812 3.027344 L 12.828125 3.269531 L 10.046875 3.148438 L 7.503906 3.753906 Z M 6.050781 5.445312 "/></g></g></g><g fill="#ffffff" fill-opacity="1"><g transform="translate(291.94664, 228.755902)"><g><path d="M 23.238281 -3.753906 L 24.207031 -1.210938 L 26.746094 0 L 29.046875 -0.242188 L 31.46875 0 L 33.769531 -0.242188 L 41.273438 -0.242188 L 43.691406 -1.210938 L 44.660156 -3.632812 L 44.539062 -5.929688 L 44.78125 -8.714844 L 44.660156 -13.554688 L 44.296875 -15.613281 L 44.660156 -18.15625 L 44.902344 -25.539062 L 44.660156 -27.714844 L 45.023438 -32.800781 L 44.539062 -56.882812 L 44.902344 -59.304688 L 44.660156 -61.96875 L 45.628906 -64.144531 L 48.292969 -65.234375 L 50.347656 -65.355469 L 52.769531 -65.234375 L 54.949219 -65.476562 L 61.605469 -65.355469 L 64.386719 -66.445312 L 65.597656 -68.867188 L 65.355469 -71.410156 L 65.597656 -81.332031 L 64.386719 -83.753906 L 61.96875 -84.964844 L 59.0625 -84.722656 L 57.125 -84.964844 L 54.828125 -84.964844 L 52.164062 -84.601562 L 49.742188 -84.601562 L 47.324219 -84.84375 L 44.902344 -84.84375 L 42.117188 -84.480469 L 6.050781 -84.722656 L 3.390625 -83.511719 L 2.179688 -81.089844 L 2.058594 -68.988281 L 3.390625 -66.324219 L 5.808594 -65.113281 L 8.957031 -65.476562 L 19.726562 -65.355469 L 21.90625 -64.023438 L 23.117188 -61.726562 L 23.480469 -48.414062 L 23.117188 -44.660156 L 23.359375 -42.359375 L 23.117188 -39.941406 L 23.117188 -35.097656 L 23.480469 -31.589844 L 22.996094 -27.957031 L 23.117188 -25.539062 L 22.996094 -22.996094 L 23.359375 -15.613281 L 23.117188 -13.191406 Z M 32.316406 4.355469 L 32.195312 6.65625 L 35.824219 8.109375 L 42.117188 7.625 L 44.296875 7.988281 L 48.777344 8.109375 L 51.195312 6.777344 L 52.890625 4.355469 L 52.527344 1.9375 L 52.40625 -0.605469 L 52.769531 -2.90625 L 52.40625 -12.707031 L 52.527344 -15.007812 L 52.40625 -17.550781 L 52.648438 -22.390625 L 52.285156 -24.933594 L 52.769531 -27.230469 L 52.648438 -29.53125 L 52.769531 -31.953125 L 52.285156 -39.457031 L 52.648438 -41.753906 L 52.285156 -44.175781 L 52.40625 -53.859375 L 53.617188 -56.402344 L 55.917969 -57.609375 L 60.757812 -57.730469 L 65.476562 -57.367188 L 69.835938 -57.488281 L 72.132812 -58.820312 L 73.222656 -61.121094 L 73.34375 -63.664062 L 73.101562 -65.839844 L 73.34375 -73.464844 L 72.132812 -75.644531 L 69.957031 -75.765625 L 68.503906 -73.34375 L 68.261719 -70.804688 L 68.382812 -68.503906 L 68.261719 -65.960938 L 67.171875 -63.664062 L 64.871094 -62.210938 L 63.058594 -62.332031 L 60.273438 -62.210938 L 56.039062 -62.574219 L 53.617188 -62.332031 L 51.4375 -62.453125 L 49.015625 -61.242188 L 47.929688 -58.699219 L 47.324219 -40.546875 L 47.6875 -37.15625 L 47.6875 -34.734375 L 48.050781 -32.195312 L 47.566406 -29.410156 L 47.929688 -24.691406 L 47.566406 -22.511719 L 48.050781 -12.707031 L 47.566406 -10.410156 L 47.566406 -0.484375 L 46.355469 1.816406 L 44.054688 2.90625 L 36.671875 3.269531 L 34.492188 3.148438 Z M 10.773438 -60.878906 L 10.53125 -58.699219 L 13.191406 -57.488281 L 16.945312 -57.488281 L 19.484375 -58.699219 L 19.484375 -61.242188 L 17.066406 -62.574219 L 13.191406 -62.210938 Z M 10.773438 -60.878906 "/></g></g></g><g fill="#ffffff" fill-opacity="1"><g transform="translate(359.598696, 228.755902)"><g/></g></g><g fill="#ffffff" fill-opacity="1"><g transform="translate(392.396022, 228.755902)"><g><path d="M 5.808594 -3.511719 L 7.019531 -0.96875 L 9.441406 -0.121094 L 45.386719 0.121094 L 47.6875 -1.089844 L 49.015625 -3.269531 L 49.015625 -5.929688 L 48.777344 -8.109375 L 49.136719 -15.492188 L 47.445312 -17.550781 L 39.335938 -20.089844 L 38.003906 -22.511719 L 38.246094 -32.4375 L 37.761719 -37.277344 L 38.246094 -42.359375 L 38.003906 -45.992188 L 38.246094 -49.742188 L 38.003906 -52.042969 L 38.246094 -54.464844 L 38.003906 -57.003906 L 38.003906 -62.089844 L 39.335938 -64.265625 L 41.632812 -65.597656 L 44.296875 -65.71875 L 46.597656 -67.050781 L 47.929688 -69.351562 L 47.929688 -76.492188 L 48.171875 -78.671875 L 47.929688 -81.089844 L 46.960938 -83.511719 L 43.085938 -84.601562 L 27.714844 -84.722656 L 25.054688 -84.480469 L 17.671875 -84.601562 L 15.371094 -84.480469 L 10.652344 -84.722656 L 7.988281 -83.511719 L 6.65625 -80.96875 L 6.65625 -78.671875 L 6.414062 -76.613281 L 6.414062 -73.949219 L 6.65625 -71.53125 L 6.65625 -69.230469 L 7.867188 -66.929688 L 15.25 -64.386719 L 16.824219 -62.210938 L 16.460938 -51.921875 L 16.582031 -49.863281 L 16.945312 -47.082031 L 16.824219 -42.117188 L 16.582031 -39.699219 L 17.066406 -34.976562 L 16.460938 -32.558594 L 16.945312 -27.351562 L 16.703125 -22.632812 L 15.492188 -19.96875 L 7.503906 -17.429688 L 6.050781 -15.128906 L 5.808594 -12.828125 Z M 41.273438 -25.417969 L 42.117188 -22.996094 L 44.78125 -22.875 L 45.75 -25.296875 L 46.113281 -40.0625 L 45.75 -42.117188 L 45.992188 -44.539062 L 45.75 -49.5 L 46.113281 -54.222656 L 46.960938 -56.882812 L 49.378906 -58.09375 L 52.164062 -57.972656 L 54.464844 -58.820312 L 55.675781 -61.242188 L 55.433594 -70.804688 L 55.675781 -73.222656 L 54.34375 -75.402344 L 52.285156 -75.523438 L 51.074219 -73.464844 L 50.832031 -68.261719 L 50.953125 -66.082031 L 49.863281 -63.785156 L 47.324219 -62.574219 L 44.78125 -62.695312 L 42.480469 -61.605469 L 41.03125 -59.0625 L 41.273438 -47.082031 L 40.789062 -43.570312 L 41.273438 -39.941406 Z M 15.007812 4.113281 L 15.007812 6.777344 L 17.1875 8.109375 L 19.726562 7.867188 L 22.148438 8.230469 L 24.691406 7.867188 L 51.921875 7.867188 L 55.433594 7.019531 L 56.640625 4.597656 L 56.160156 -1.453125 L 56.640625 -7.261719 L 55.3125 -9.804688 L 52.769531 -9.925781 L 51.800781 -7.382812 L 52.042969 -2.542969 L 51.800781 -0.242188 L 50.832031 1.816406 L 48.414062 2.90625 L 30.257812 3.027344 L 26.988281 3.269531 L 24.449219 3.027344 L 21.90625 3.148438 L 19.605469 3.027344 L 17.308594 3.148438 Z M 15.007812 4.113281 "/></g></g></g><g fill="#ffffff" fill-opacity="1"><g transform="translate(447.340644, 228.755902)"><g><path d="M 35.097656 0.96875 L 38.609375 1.332031 L 42.480469 1.210938 L 54.34375 -1.089844 L 60.636719 -4.476562 L 64.507812 -7.140625 L 67.898438 -11.015625 L 70.320312 -14.886719 L 71.289062 -17.066406 L 72.011719 -19.484375 L 72.375 -21.664062 L 72.496094 -29.167969 L 72.132812 -31.589844 L 71.53125 -33.890625 L 69.109375 -38.367188 L 66.203125 -42.117188 L 64.144531 -43.8125 L 57.730469 -46.71875 L 47.808594 -49.136719 L 35.582031 -50.710938 L 30.5 -52.527344 L 28.683594 -53.496094 L 26.746094 -55.433594 L 26.625 -58.699219 L 26.988281 -61.847656 L 28.320312 -63.542969 L 30.378906 -65.113281 L 32.074219 -65.839844 L 34.25 -66.324219 L 41.996094 -66.566406 L 44.660156 -65.597656 L 46.476562 -64.144531 L 50.46875 -59.910156 L 54.222656 -58.699219 L 62.210938 -58.457031 L 64.386719 -58.699219 L 66.6875 -58.457031 L 68.988281 -59.910156 L 70.078125 -62.210938 L 69.109375 -66.929688 L 67.171875 -71.289062 L 65.597656 -73.222656 L 64.386719 -75.160156 L 62.816406 -76.976562 L 55.070312 -82.300781 L 48.414062 -84.601562 L 45.871094 -85.085938 L 43.691406 -85.328125 L 41.03125 -85.933594 L 34.25 -85.8125 L 24.691406 -83.875 L 22.511719 -83.027344 L 20.574219 -81.816406 L 18.640625 -81.089844 L 16.21875 -79.636719 L 14.523438 -78.066406 L 12.34375 -76.613281 L 11.015625 -74.554688 L 9.441406 -72.980469 L 8.59375 -70.804688 L 7.382812 -68.867188 L 5.6875 -61.847656 L 5.808594 -53.738281 L 6.65625 -50.347656 L 8.230469 -46.113281 L 11.257812 -42.117188 L 14.644531 -38.972656 L 18.878906 -36.429688 L 25.78125 -34.128906 L 30.136719 -33.164062 L 40.0625 -32.4375 L 42.238281 -32.074219 L 44.660156 -31.953125 L 49.015625 -30.136719 L 50.710938 -28.683594 L 51.316406 -25.539062 L 50.589844 -22.390625 L 48.65625 -20.695312 L 46.71875 -19.605469 L 42.238281 -18.277344 L 38.851562 -18.15625 L 35.21875 -18.398438 L 32.4375 -19.121094 L 30.621094 -19.96875 L 28.441406 -21.300781 L 26.625 -22.996094 L 24.8125 -25.417969 L 22.390625 -26.382812 L 13.191406 -26.625 L 10.773438 -26.382812 L 8.351562 -26.503906 L 5.929688 -25.417969 L 5.082031 -22.875 L 5.324219 -20.210938 L 5.808594 -18.035156 L 7.746094 -13.191406 L 10.773438 -9.441406 L 14.28125 -5.929688 L 16.339844 -4.597656 L 25.054688 -0.605469 L 27.714844 -0.242188 L 30.015625 0.605469 Z M 60.273438 -55.554688 L 56.761719 -54.585938 L 57.246094 -52.285156 L 60.03125 -50.953125 L 62.089844 -50.589844 L 70.804688 -50.589844 L 74.796875 -52.042969 L 76.613281 -54.585938 L 76.492188 -56.882812 L 76.734375 -59.546875 L 76.371094 -61.847656 L 75.28125 -64.386719 L 72.375 -68.867188 L 71.289062 -69.59375 L 72.253906 -66.324219 L 73.101562 -61.363281 L 72.980469 -59.0625 L 72.011719 -56.882812 L 69.472656 -55.554688 L 66.6875 -55.433594 Z M 30.5 -60.757812 L 30.378906 -57.851562 L 32.074219 -56.519531 L 34.613281 -57.488281 L 36.429688 -58.699219 L 38.730469 -59.304688 L 44.296875 -60.152344 L 45.871094 -61.121094 L 44.296875 -62.453125 L 40.789062 -63.300781 L 37.035156 -63.421875 L 34.734375 -63.058594 L 32.195312 -62.210938 Z M 25.539062 1.574219 L 24.328125 1.453125 L 25.296875 2.542969 L 27.230469 3.753906 L 29.894531 4.960938 L 31.832031 6.050781 L 38.851562 7.503906 L 48.898438 7.867188 L 51.074219 7.382812 L 53.496094 7.261719 L 55.917969 6.65625 L 64.992188 3.027344 L 67.050781 1.816406 L 72.617188 -2.785156 L 74.070312 -4.71875 L 76.613281 -8.835938 L 78.671875 -13.070312 L 79.035156 -15.371094 L 79.273438 -22.390625 L 79.035156 -24.691406 L 76.976562 -31.347656 L 75.765625 -33.40625 L 74.796875 -34.128906 L 74.675781 -32.679688 L 75.160156 -30.621094 L 75.523438 -28.320312 L 75.644531 -19.121094 L 74.796875 -16.460938 L 73.949219 -14.28125 L 73.34375 -12.34375 L 71.890625 -10.167969 L 69.957031 -8.351562 L 68.503906 -6.535156 L 66.6875 -5.082031 L 65.113281 -3.511719 L 63.300781 -2.058594 L 54.828125 2.058594 L 52.285156 2.664062 L 49.863281 3.632812 L 45.507812 4.113281 L 38.003906 4.113281 L 27.957031 2.542969 Z M 39.335938 -24.691406 L 46.355469 -24.085938 L 48.292969 -25.296875 L 47.082031 -27.714844 L 43.691406 -29.167969 L 35.703125 -29.773438 L 33.527344 -30.257812 L 31.105469 -30.257812 L 24.085938 -31.589844 L 19.847656 -33.164062 L 18.640625 -32.921875 L 19.484375 -31.832031 L 23.238281 -29.410156 L 25.539062 -28.320312 L 34.734375 -25.417969 Z M 39.335938 -24.691406 "/></g></g></g><g fill="#ffffff" fill-opacity="1"><g transform="translate(524.55353, 228.755902)"><g/></g></g><g fill="#ffffff" fill-opacity="1"><g transform="translate(557.350856, 228.755902)"><g><path d="M 71.410156 -2.058594 L 74.675781 -0.121094 L 78.066406 0.242188 L 80.726562 -0.605469 L 81.9375 -3.027344 L 82.179688 -47.203125 L 81.816406 -49.257812 L 81.816406 -61.242188 L 82.179688 -64.144531 L 81.816406 -80.96875 L 80.605469 -83.390625 L 78.1875 -84.722656 L 63.179688 -84.601562 L 60.878906 -83.269531 L 59.546875 -80.726562 L 59.425781 -78.1875 L 59.789062 -76.25 L 59.425781 -71.167969 L 59.667969 -68.503906 L 59.425781 -46.839844 L 58.699219 -44.78125 L 56.882812 -45.628906 L 48.292969 -54.222656 L 44.902344 -56.882812 L 21.058594 -80.96875 L 19.242188 -82.421875 L 16.460938 -83.875 L 12.828125 -84.722656 L 10.046875 -83.511719 L 8.957031 -81.210938 L 8.957031 -44.539062 L 8.835938 -42.480469 L 9.078125 -37.519531 L 8.714844 -35.460938 L 8.957031 -15.613281 L 8.714844 -13.3125 L 8.957031 -3.148438 L 10.046875 -0.847656 L 12.585938 0 L 17.550781 0.242188 L 20.210938 0 L 24.933594 0.363281 L 27.472656 0.242188 L 29.894531 -0.96875 L 31.105469 -4.71875 L 31.226562 -35.339844 L 31.46875 -37.761719 L 32.316406 -39.820312 L 33.890625 -39.214844 L 35.460938 -37.15625 L 44.054688 -28.925781 L 45.628906 -27.109375 L 47.6875 -25.78125 L 66.445312 -7.140625 L 69.59375 -3.632812 Z M 81.210938 3.511719 L 79.394531 4.355469 L 79.636719 5.808594 L 82.300781 7.625 L 85.8125 7.261719 L 88.472656 5.445312 L 89.925781 3.148438 L 89.5625 -8.957031 L 89.925781 -12.34375 L 89.683594 -21.90625 L 89.925781 -24.570312 L 89.683594 -27.109375 L 89.925781 -31.589844 L 89.683594 -34.371094 L 89.925781 -66.082031 L 89.804688 -68.140625 L 89.804688 -71.890625 L 88.835938 -75.765625 L 86.296875 -75.28125 L 84.964844 -71.769531 L 84.964844 -60.878906 L 85.207031 -58.335938 L 85.207031 -41.632812 L 84.84375 -39.457031 L 85.207031 -36.550781 L 84.84375 -31.589844 L 85.085938 -29.53125 L 84.84375 -22.269531 L 85.207031 -16.097656 L 84.964844 -12.464844 L 85.085938 -0.242188 L 83.753906 2.058594 Z M 38.972656 -25.902344 L 38.125 -29.289062 L 36.550781 -32.074219 L 35.097656 -32.316406 L 34.25 -30.863281 L 34.128906 -25.660156 L 34.371094 -23.117188 L 34.128906 -20.453125 L 34.371094 -0.726562 L 32.921875 1.9375 L 30.378906 2.90625 L 25.539062 3.148438 L 22.875 3.027344 L 20.332031 3.269531 L 17.792969 4.234375 L 17.792969 6.414062 L 20.332031 7.988281 L 23.117188 7.625 L 25.296875 7.625 L 27.714844 8.109375 L 30.378906 7.746094 L 32.800781 7.746094 L 35.339844 7.988281 L 38.125 6.65625 L 38.972656 4.113281 Z M 38.972656 -25.902344 "/></g></g></g><g fill="#ffffff" fill-opacity="1"><g transform="translate(648.602457, 228.755902)"><g><path d="M 48.535156 1.574219 L 59.304688 0.484375 L 63.90625 -0.96875 L 74.675781 -5.808594 L 83.148438 -13.917969 L 84.722656 -16.097656 L 89.441406 -24.449219 L 90.289062 -26.746094 L 90.652344 -29.167969 L 91.378906 -31.105469 L 91.863281 -33.769531 L 92.46875 -42.238281 L 91.863281 -50.589844 L 90.894531 -55.070312 L 89.925781 -57.609375 L 89.320312 -60.394531 L 87.140625 -64.386719 L 86.296875 -66.566406 L 84.722656 -68.625 L 83.269531 -70.078125 L 81.695312 -72.253906 L 76.492188 -76.976562 L 70.320312 -80.847656 L 54.464844 -85.8125 L 48.777344 -85.933594 L 40.304688 -85.449219 L 37.882812 -84.964844 L 35.460938 -84.238281 L 33.285156 -83.269531 L 28.683594 -82.058594 L 22.511719 -78.1875 L 20.816406 -76.734375 L 16.945312 -74.070312 L 13.675781 -70.441406 L 9.5625 -64.386719 L 8.472656 -62.332031 L 6.171875 -55.675781 L 5.203125 -50.46875 L 4.71875 -36.429688 L 6.050781 -28.804688 L 7.867188 -24.691406 L 8.59375 -22.148438 L 9.804688 -19.96875 L 15.492188 -12.222656 L 18.878906 -8.957031 L 20.453125 -7.140625 L 28.683594 -2.785156 L 30.984375 -1.816406 L 41.273438 1.210938 Z M 45.144531 -19.726562 L 42.722656 -20.574219 L 40.546875 -20.816406 L 36.429688 -22.996094 L 32.679688 -26.265625 L 31.46875 -27.957031 L 29.894531 -29.652344 L 27.59375 -36.429688 L 26.988281 -42.480469 L 27.109375 -46.113281 L 27.957031 -50.589844 L 28.683594 -52.769531 L 30.136719 -54.464844 L 31.226562 -56.519531 L 32.800781 -58.457031 L 34.613281 -60.03125 L 38.125 -62.453125 L 40.304688 -63.542969 L 42.84375 -64.144531 L 48.414062 -64.628906 L 54.222656 -64.265625 L 60.636719 -61.484375 L 64.386719 -58.699219 L 67.171875 -54.585938 L 68.140625 -52.40625 L 68.867188 -49.984375 L 69.714844 -47.808594 L 70.199219 -42.601562 L 69.472656 -36.550781 L 68.382812 -31.589844 L 67.050781 -29.773438 L 65.960938 -27.957031 L 64.507812 -25.78125 L 60.757812 -22.875 L 58.578125 -21.90625 L 56.640625 -20.816406 L 54.464844 -20.574219 L 52.164062 -19.96875 Z M 33.042969 -31.46875 L 33.40625 -32.800781 L 33.890625 -40.425781 L 34.25 -42.722656 L 35.824219 -47.6875 L 38.367188 -51.195312 L 40.183594 -53.132812 L 47.808594 -57.488281 L 50.226562 -58.09375 L 57.003906 -58.214844 L 58.214844 -58.578125 L 57.003906 -59.789062 L 53.980469 -61 L 50.105469 -61.847656 L 46.839844 -61.605469 L 40.183594 -59.667969 L 36.1875 -56.761719 L 33.164062 -52.890625 L 31.105469 -48.65625 L 30.621094 -46.476562 L 30.257812 -43.691406 L 30.984375 -35.097656 L 32.4375 -31.832031 Z M 49.5 7.261719 L 61.726562 6.777344 L 63.90625 6.414062 L 66.324219 5.6875 L 68.625 5.445312 L 71.167969 4.597656 L 73.464844 3.390625 L 75.644531 2.664062 L 79.757812 0.605469 L 81.695312 -1.089844 L 83.753906 -2.421875 L 87.261719 -5.929688 L 88.714844 -7.867188 L 90.53125 -9.5625 L 91.621094 -11.738281 L 93.074219 -14.039062 L 93.921875 -16.21875 L 95.007812 -18.277344 L 97.308594 -25.417969 L 98.277344 -32.558594 L 97.792969 -45.023438 L 95.371094 -53.980469 L 94.28125 -54.949219 L 94.160156 -53.738281 L 94.644531 -31.710938 L 93.921875 -29.046875 L 93.074219 -26.867188 L 92.710938 -24.328125 L 91.742188 -22.027344 L 91.015625 -19.605469 L 89.804688 -17.792969 L 88.59375 -15.371094 L 82.542969 -7.988281 L 76.855469 -3.269531 L 70.5625 0 L 65.960938 1.816406 L 61.242188 3.148438 L 54.34375 3.871094 L 47.566406 3.871094 L 40.425781 3.148438 L 36.1875 3.269531 L 37.15625 4.476562 L 39.820312 4.960938 L 41.996094 5.808594 L 46.960938 6.535156 Z M 49.5 7.261719 "/></g></g></g><g fill="#ffffff" fill-opacity="1"><g transform="translate(745.663202, 228.755902)"><g><path d="M 31.589844 0.242188 L 39.699219 0 L 43.207031 -1.210938 L 44.417969 -4.597656 L 44.78125 -10.894531 L 44.417969 -15.492188 L 44.660156 -18.035156 L 44.539062 -22.875 L 44.78125 -25.054688 L 44.417969 -27.714844 L 44.660156 -47.203125 L 44.296875 -49.742188 L 44.660156 -60.273438 L 45.628906 -63.90625 L 47.929688 -65.355469 L 52.648438 -65.597656 L 57.125 -64.992188 L 59.667969 -65.355469 L 61.847656 -65.234375 L 63.90625 -66.566406 L 65.355469 -69.230469 L 65.476562 -80.726562 L 64.144531 -83.148438 L 61.847656 -84.722656 L 54.34375 -84.722656 L 52.042969 -84.964844 L 49.5 -84.601562 L 47.203125 -84.84375 L 37.398438 -84.359375 L 34.976562 -84.84375 L 32.679688 -84.964844 L 30.136719 -84.601562 L 27.472656 -84.84375 L 25.296875 -84.359375 L 18.15625 -84.722656 L 14.402344 -84.359375 L 5.929688 -84.84375 L 3.632812 -83.632812 L 2.179688 -80.847656 L 2.300781 -78.429688 L 2.058594 -72.375 L 2.300781 -68.625 L 3.390625 -66.445312 L 5.566406 -65.234375 L 7.988281 -65.476562 L 19.484375 -65.234375 L 21.785156 -64.023438 L 23.117188 -61.605469 L 22.875 -57.730469 L 23.117188 -54.34375 L 22.996094 -51.679688 L 23.117188 -49.257812 L 22.875 -45.871094 L 23.238281 -27.835938 L 22.996094 -25.417969 L 22.875 -15.613281 L 23.117188 -13.070312 L 22.996094 -6.050781 L 22.753906 -3.753906 L 24.328125 -1.089844 L 27.835938 0.121094 Z M 34.25 8.230469 L 41.753906 8.109375 L 43.933594 7.867188 L 48.898438 8.109375 L 51.316406 6.777344 L 52.285156 4.234375 L 52.527344 -10.167969 L 52.285156 -12.464844 L 52.285156 -29.894531 L 52.648438 -32.074219 L 52.164062 -37.882812 L 52.40625 -53.738281 L 53.253906 -56.039062 L 55.917969 -57.246094 L 60.394531 -57.367188 L 62.9375 -57.125 L 69.835938 -57.367188 L 72.011719 -58.457031 L 73.101562 -60.878906 L 73.34375 -65.71875 L 72.859375 -70.683594 L 72.980469 -73.222656 L 72.132812 -75.402344 L 69.351562 -75.523438 L 68.261719 -73.222656 L 68.382812 -69.351562 L 68.140625 -67.171875 L 67.171875 -63.421875 L 64.628906 -62.210938 L 62.695312 -62.453125 L 60.03125 -61.96875 L 54.101562 -61.96875 L 50.953125 -62.332031 L 48.898438 -60.757812 L 47.566406 -58.820312 L 47.445312 -26.988281 L 47.6875 -25.054688 L 47.324219 -21.179688 L 47.6875 -12.707031 L 47.445312 -10.289062 L 47.808594 -2.90625 L 47.445312 -0.726562 L 46.355469 2.179688 L 43.933594 3.390625 L 36.550781 3.027344 L 34.492188 3.390625 L 32.074219 4.597656 L 31.832031 7.140625 Z M 11.136719 -60.878906 L 10.894531 -58.699219 L 13.554688 -57.488281 L 17.308594 -57.488281 L 19.847656 -58.699219 L 19.847656 -61.242188 L 17.429688 -62.574219 L 13.554688 -62.210938 Z M 11.136719 -60.878906 "/></g></g></g><g fill="#ffffff" fill-opacity="1"><g transform="translate(813.315283, 228.755902)"><g><path d="M 8.835938 -3.511719 L 10.046875 -1.210938 L 12.707031 0 L 21.179688 0.363281 L 27.230469 -0.121094 L 29.773438 -1.210938 L 31.226562 -4.839844 L 30.863281 -8.714844 L 31.105469 -11.015625 L 30.984375 -23.84375 L 32.074219 -26.265625 L 34.492188 -27.351562 L 37.15625 -27.59375 L 39.699219 -27.109375 L 42.117188 -27.59375 L 44.539062 -27.351562 L 47.082031 -27.472656 L 49.5 -27.230469 L 54.464844 -27.472656 L 57.003906 -28.683594 L 58.214844 -32.4375 L 58.09375 -43.207031 L 56.882812 -45.628906 L 54.34375 -46.597656 L 48.414062 -46.839844 L 41.996094 -46.355469 L 37.277344 -46.960938 L 34.613281 -46.839844 L 32.195312 -47.808594 L 30.863281 -50.347656 L 30.863281 -53.738281 L 31.105469 -56.039062 L 30.863281 -61.484375 L 32.074219 -63.90625 L 34.371094 -65.476562 L 38.246094 -65.476562 L 41.753906 -65.234375 L 43.933594 -65.355469 L 46.355469 -65.234375 L 48.898438 -65.476562 L 58.09375 -65.234375 L 60.515625 -66.445312 L 61.726562 -68.867188 L 61.484375 -75.039062 L 61.726562 -79.636719 L 60.273438 -83.269531 L 58.214844 -84.601562 L 50.953125 -84.480469 L 48.292969 -84.84375 L 43.570312 -84.601562 L 41.394531 -84.84375 L 37.761719 -84.601562 L 35.339844 -84.722656 L 31.589844 -84.480469 L 26.867188 -84.480469 L 24.691406 -84.722656 L 18.519531 -84.722656 L 15.976562 -84.480469 L 12.585938 -84.601562 L 9.925781 -83.269531 L 9.199219 -81.089844 L 8.835938 -76.128906 L 9.199219 -72.496094 L 8.714844 -58.941406 L 8.957031 -56.882812 L 9.078125 -54.34375 L 8.835938 -52.164062 L 9.078125 -49.378906 L 8.835938 -47.203125 L 8.714844 -44.902344 L 8.957031 -42.601562 L 8.714844 -39.820312 Z M 34.25 -54.707031 L 35.097656 -51.316406 L 37.519531 -51.316406 L 39.699219 -55.917969 L 42.359375 -57.125 L 44.660156 -57.488281 L 47.082031 -57.367188 L 49.257812 -57.488281 L 63.785156 -57.125 L 66.445312 -57.367188 L 68.382812 -58.578125 L 69.835938 -61 L 69.835938 -65.839844 L 69.59375 -68.140625 L 69.835938 -73.222656 L 68.382812 -75.644531 L 66.203125 -75.523438 L 64.628906 -73.101562 L 64.75 -70.5625 L 64.507812 -67.898438 L 64.871094 -65.71875 L 63.542969 -63.421875 L 61.121094 -62.332031 L 58.820312 -62.089844 L 49.378906 -62.332031 L 46.960938 -62.089844 L 44.539062 -62.332031 L 42.359375 -62.089844 L 39.941406 -62.210938 L 37.519531 -61.847656 L 35.097656 -61 L 34.007812 -58.335938 Z M 18.035156 4.113281 L 17.792969 6.414062 L 20.210938 7.867188 L 23.117188 8.109375 L 34.007812 7.746094 L 37.398438 6.777344 L 38.730469 3.992188 L 38.609375 -14.523438 L 40.0625 -17.914062 L 42.601562 -19.242188 L 50.105469 -19.726562 L 52.40625 -19.363281 L 57.609375 -19.726562 L 59.789062 -19.726562 L 62.210938 -19.242188 L 64.75 -20.9375 L 66.324219 -24.328125 L 66.203125 -35.339844 L 64.992188 -37.640625 L 62.574219 -37.640625 L 61.121094 -35.339844 L 61.363281 -32.679688 L 61.242188 -27.957031 L 59.910156 -25.539062 L 57.609375 -24.207031 L 49.984375 -24.570312 L 47.6875 -24.328125 L 42.722656 -24.085938 L 40.183594 -24.570312 L 37.640625 -24.328125 L 35.097656 -23.238281 L 34.007812 -20.574219 L 34.007812 -1.816406 L 32.800781 2.058594 L 30.378906 3.269531 L 27.957031 2.90625 L 25.296875 3.390625 L 22.753906 3.027344 L 20.332031 3.148438 Z M 18.035156 4.113281 "/></g></g></g><g fill="#ffffff" fill-opacity="1"><g transform="translate(879.273033, 228.755902)"><g><path d="M 71.410156 0.242188 L 76.007812 -0.121094 L 78.308594 0.121094 L 82.058594 0 L 85.449219 -0.605469 L 85.8125 -3.511719 L 84.964844 -6.292969 L 83.148438 -10.773438 L 79.878906 -17.066406 L 78.1875 -21.542969 L 75.765625 -25.902344 L 71.167969 -36.914062 L 69.957031 -38.730469 L 68.746094 -41.03125 L 68.019531 -43.691406 L 66.929688 -45.507812 L 66.203125 -47.445312 L 63.664062 -51.921875 L 62.816406 -54.464844 L 54.828125 -71.289062 L 54.101562 -73.707031 L 52.769531 -75.886719 L 52.042969 -78.066406 L 49.742188 -82.300781 L 47.6875 -84.480469 L 43.691406 -85.691406 L 39.820312 -84.359375 L 37.640625 -82.300781 L 36.550781 -80.242188 L 35.703125 -77.824219 L 34.613281 -76.128906 L 29.773438 -64.992188 L 28.441406 -63.179688 L 27.835938 -60.757812 L 26.503906 -58.457031 L 25.78125 -56.28125 L 13.433594 -30.378906 L 12.707031 -27.714844 L 11.496094 -25.902344 L 10.652344 -23.480469 L 8.472656 -19.605469 L 6.65625 -14.765625 L 5.324219 -13.070312 L 4.71875 -10.894531 L 2.300781 -6.050781 L 1.574219 -3.632812 L 2.179688 -0.605469 L 4.597656 0.121094 L 9.320312 -0.121094 L 11.738281 0.121094 L 18.519531 -0.121094 L 21.300781 -0.96875 L 23.601562 -3.148438 L 25.78125 -7.140625 L 28.078125 -9.441406 L 30.621094 -10.773438 L 32.921875 -10.410156 L 38.003906 -10.894531 L 40.183594 -10.53125 L 52.042969 -10.652344 L 54.222656 -10.410156 L 56.882812 -10.773438 L 59.546875 -9.441406 L 61.847656 -7.503906 L 62.9375 -5.203125 L 63.664062 -3.027344 L 66.082031 -1.210938 L 68.867188 0 Z M 82.421875 8.351562 L 85.691406 8.230469 L 87.867188 7.867188 L 89.441406 7.988281 L 91.5 7.140625 L 93.4375 4.597656 L 94.644531 2.421875 L 94.765625 -0.121094 L 94.160156 -3.390625 L 92.347656 -9.199219 L 90.046875 -13.3125 L 89.199219 -15.613281 L 77.703125 -39.578125 L 76.976562 -41.875 L 61.484375 -74.675781 L 59.546875 -76.734375 L 57.003906 -76.976562 L 57.246094 -73.222656 L 58.699219 -69.714844 L 61 -65.839844 L 66.808594 -52.40625 L 69.109375 -48.535156 L 69.957031 -45.75 L 76.007812 -32.921875 L 77.21875 -30.863281 L 79.152344 -26.625 L 80 -23.964844 L 81.210938 -21.664062 L 82.058594 -19.484375 L 83.390625 -17.550781 L 85.207031 -12.707031 L 88.230469 -6.535156 L 89.925781 0 L 88.472656 2.300781 L 86.296875 3.269531 L 83.996094 3.390625 L 81.453125 2.90625 L 71.648438 3.269531 L 69.835938 4.476562 L 70.925781 7.019531 L 73.949219 8.109375 L 76.734375 8.230469 L 78.792969 7.867188 Z M 43.933594 -29.894531 L 41.511719 -30.378906 L 38.730469 -30.136719 L 36.792969 -30.984375 L 36.671875 -33.285156 L 42.359375 -46.355469 L 43.691406 -47.445312 L 45.386719 -46.476562 L 51.074219 -33.164062 L 50.589844 -30.984375 L 48.777344 -30.015625 Z M 42.964844 -33.042969 L 44.539062 -33.285156 L 46.234375 -36.914062 L 45.507812 -38.609375 L 44.175781 -40.304688 L 42.722656 -39.820312 L 41.511719 -37.519531 L 40.789062 -35.21875 L 40.789062 -33.527344 Z M 14.523438 8.109375 L 23.480469 8.109375 L 26.144531 7.019531 L 28.441406 5.082031 L 30.5 0.605469 L 32.558594 -1.332031 L 35.460938 -2.542969 L 40.0625 -2.90625 L 42.722656 -2.542969 L 48.65625 -2.90625 L 52.164062 -2.664062 L 56.882812 -3.027344 L 58.941406 -3.992188 L 57.851562 -6.414062 L 54.585938 -7.625 L 49.5 -7.382812 L 44.660156 -7.746094 L 32.4375 -7.382812 L 29.410156 -6.414062 L 27.230469 -4.476562 L 25.417969 -0.242188 L 23.238281 1.9375 L 20.089844 3.390625 L 11.617188 2.785156 L 7.988281 3.632812 L 6.414062 5.082031 L 7.261719 7.261719 L 10.894531 7.867188 Z M 14.523438 8.109375 "/></g></g></g><g fill="#ffffff" fill-opacity="1"><g transform="translate(967.136023, 228.755902)"><g><path d="M 71.410156 -2.058594 L 74.675781 -0.121094 L 78.066406 0.242188 L 80.726562 -0.605469 L 81.9375 -3.027344 L 82.179688 -47.203125 L 81.816406 -49.257812 L 81.816406 -61.242188 L 82.179688 -64.144531 L 81.816406 -80.96875 L 80.605469 -83.390625 L 78.1875 -84.722656 L 63.179688 -84.601562 L 60.878906 -83.269531 L 59.546875 -80.726562 L 59.425781 -78.1875 L 59.789062 -76.25 L 59.425781 -71.167969 L 59.667969 -68.503906 L 59.425781 -46.839844 L 58.699219 -44.78125 L 56.882812 -45.628906 L 48.292969 -54.222656 L 44.902344 -56.882812 L 21.058594 -80.96875 L 19.242188 -82.421875 L 16.460938 -83.875 L 12.828125 -84.722656 L 10.046875 -83.511719 L 8.957031 -81.210938 L 8.957031 -44.539062 L 8.835938 -42.480469 L 9.078125 -37.519531 L 8.714844 -35.460938 L 8.957031 -15.613281 L 8.714844 -13.3125 L 8.957031 -3.148438 L 10.046875 -0.847656 L 12.585938 0 L 17.550781 0.242188 L 20.210938 0 L 24.933594 0.363281 L 27.472656 0.242188 L 29.894531 -0.96875 L 31.105469 -4.71875 L 31.226562 -35.339844 L 31.46875 -37.761719 L 32.316406 -39.820312 L 33.890625 -39.214844 L 35.460938 -37.15625 L 44.054688 -28.925781 L 45.628906 -27.109375 L 47.6875 -25.78125 L 66.445312 -7.140625 L 69.59375 -3.632812 Z M 81.210938 3.511719 L 79.394531 4.355469 L 79.636719 5.808594 L 82.300781 7.625 L 85.8125 7.261719 L 88.472656 5.445312 L 89.925781 3.148438 L 89.5625 -8.957031 L 89.925781 -12.34375 L 89.683594 -21.90625 L 89.925781 -24.570312 L 89.683594 -27.109375 L 89.925781 -31.589844 L 89.683594 -34.371094 L 89.925781 -66.082031 L 89.804688 -68.140625 L 89.804688 -71.890625 L 88.835938 -75.765625 L 86.296875 -75.28125 L 84.964844 -71.769531 L 84.964844 -60.878906 L 85.207031 -58.335938 L 85.207031 -41.632812 L 84.84375 -39.457031 L 85.207031 -36.550781 L 84.84375 -31.589844 L 85.085938 -29.53125 L 84.84375 -22.269531 L 85.207031 -16.097656 L 84.964844 -12.464844 L 85.085938 -0.242188 L 83.753906 2.058594 Z M 38.972656 -25.902344 L 38.125 -29.289062 L 36.550781 -32.074219 L 35.097656 -32.316406 L 34.25 -30.863281 L 34.128906 -25.660156 L 34.371094 -23.117188 L 34.128906 -20.453125 L 34.371094 -0.726562 L 32.921875 1.9375 L 30.378906 2.90625 L 25.539062 3.148438 L 22.875 3.027344 L 20.332031 3.269531 L 17.792969 4.234375 L 17.792969 6.414062 L 20.332031 7.988281 L 23.117188 7.625 L 25.296875 7.625 L 27.714844 8.109375 L 30.378906 7.746094 L 32.800781 7.746094 L 35.339844 7.988281 L 38.125 6.65625 L 38.972656 4.113281 Z M 38.972656 -25.902344 "/></g></g></g><g fill="#ffffff" fill-opacity="1"><g transform="translate(1058.387575, 228.755902)"><g><path d="M 23.238281 -30.5 L 24.328125 -27.957031 L 26.382812 -26.867188 L 35.945312 -26.625 L 38.488281 -26.988281 L 40.789062 -27.109375 L 43.207031 -28.078125 L 44.78125 -30.5 L 46.839844 -34.976562 L 48.050781 -37.035156 L 49.742188 -38.609375 L 53.011719 -42.238281 L 54.464844 -44.417969 L 55.796875 -45.992188 L 59.789062 -52.40625 L 61 -57.367188 L 60.878906 -64.386719 L 60.515625 -66.808594 L 59.0625 -71.648438 L 57.730469 -73.949219 L 54.828125 -77.703125 L 52.769531 -79.636719 L 50.832031 -80.847656 L 48.777344 -81.816406 L 46.597656 -83.027344 L 42.117188 -84.722656 L 39.457031 -84.964844 L 37.15625 -85.691406 L 33.40625 -86.054688 L 27.109375 -85.328125 L 24.933594 -84.601562 L 22.511719 -84.238281 L 20.089844 -83.027344 L 18.035156 -81.816406 L 15.855469 -80.96875 L 14.28125 -79.394531 L 12.464844 -77.824219 L 10.652344 -75.886719 L 6.65625 -66.808594 L 6.414062 -64.386719 L 5.808594 -61.847656 L 6.777344 -59.546875 L 9.078125 -58.335938 L 11.375 -58.578125 L 14.765625 -58.335938 L 18.519531 -58.578125 L 20.574219 -58.214844 L 23.117188 -59.425781 L 25.78125 -63.785156 L 27.472656 -65.113281 L 29.289062 -66.203125 L 32.679688 -66.445312 L 36.550781 -65.960938 L 38.488281 -65.113281 L 39.941406 -62.9375 L 40.183594 -59.546875 L 40.183594 -56.039062 L 39.335938 -53.859375 L 26.867188 -39.214844 L 25.539062 -37.035156 L 24.449219 -34.734375 Z M 37.761719 -23.722656 L 36.550781 -23.84375 L 37.882812 -22.996094 L 40.0625 -22.269531 L 45.75 -19.363281 L 49.257812 -19.96875 L 50.46875 -22.632812 L 52.527344 -29.53125 L 59.789062 -38.730469 L 62.9375 -41.875 L 65.960938 -48.292969 L 66.808594 -54.34375 L 66.082031 -60.515625 L 64.386719 -65.234375 L 63.664062 -66.324219 L 63.664062 -62.332031 L 64.144531 -58.941406 L 63.664062 -55.433594 L 62.695312 -50.832031 L 61.726562 -48.898438 L 50.226562 -33.648438 L 48.777344 -32.074219 L 47.203125 -27.472656 L 45.386719 -25.054688 L 41.753906 -23.84375 Z M 21.785156 -50.347656 L 25.660156 -51.4375 L 29.53125 -54.585938 L 31.710938 -57.488281 L 34.007812 -58.335938 L 36.671875 -60.03125 L 36.671875 -62.453125 L 33.40625 -63.300781 L 29.894531 -62.695312 L 28.199219 -61.121094 L 27.109375 -58.699219 L 25.054688 -56.402344 L 21.542969 -55.070312 L 15.25 -55.3125 L 12.464844 -54.222656 L 12.34375 -52.042969 L 14.886719 -50.46875 L 19.605469 -50.226562 Z M 21.664062 -11.617188 L 21.785156 -7.261719 L 22.148438 -5.929688 L 22.753906 -4.597656 L 23.480469 -3.632812 L 24.8125 -2.542969 L 25.417969 -1.574219 L 28.199219 0 L 29.289062 0.363281 L 30.863281 0.726562 L 35.097656 0.847656 L 36.429688 0.484375 L 37.640625 0.484375 L 38.972656 0 L 40.546875 -0.96875 L 41.511719 -1.453125 L 42.601562 -2.421875 L 43.691406 -3.632812 L 44.539062 -4.839844 L 45.628906 -8.59375 L 45.75 -11.375 L 45.265625 -12.828125 L 45.023438 -14.160156 L 44.296875 -15.734375 L 43.449219 -16.945312 L 42.601562 -17.671875 L 41.753906 -18.878906 L 40.425781 -19.605469 L 39.335938 -20.332031 L 37.882812 -20.574219 L 36.308594 -21.179688 L 34.976562 -21.300781 L 32.195312 -21.179688 L 29.53125 -20.695312 L 27.957031 -20.210938 L 26.988281 -19.726562 L 24.570312 -17.671875 L 22.632812 -15.613281 L 22.269531 -14.402344 L 21.664062 -13.070312 Z M 30.136719 3.390625 L 31.226562 4.355469 L 32.679688 5.203125 L 34.128906 5.808594 L 35.460938 6.171875 L 40.304688 6.292969 L 41.753906 6.171875 L 44.660156 5.203125 L 45.628906 4.476562 L 46.71875 3.871094 L 47.929688 2.90625 L 49.742188 0.726562 L 50.953125 -2.179688 L 51.195312 -6.292969 L 50.710938 -7.867188 L 50.589844 -9.199219 L 49.863281 -10.410156 L 49.257812 -11.738281 L 48.292969 -12.585938 L 47.6875 -12.464844 L 48.171875 -11.015625 L 48.050781 -6.292969 L 46.476562 -2.179688 L 45.386719 -0.96875 L 41.753906 1.695312 L 37.277344 3.148438 L 31.589844 3.148438 L 30.378906 2.90625 Z M 30.136719 3.390625 "/></g></g></g></svg>