<svg xmlns="http://www.w3.org/2000/svg" xmlns:xlink="http://www.w3.org/1999/xlink" width="1500" zoomAndPan="magnify" viewBox="0 0 1125 374.999991" height="500" preserveAspectRatio="xMidYMid meet" version="1.0"><defs><g/></defs><g fill="#ffffff" fill-opacity="1"><g transform="translate(6.796093, 241.955742)"><g><path d="M 13.242188 -4.878906 L 14.636719 -1.21875 L 18.644531 0.347656 L 21.957031 0.347656 L 27.359375 -0.175781 L 32.410156 0 L 36.070312 0.523438 L 39.730469 0.175781 L 43.566406 -1.394531 L 44.957031 -4.878906 L 45.132812 -8.363281 L 44.609375 -12.199219 L 44.957031 -15.335938 L 44.609375 -18.820312 L 44.957031 -22.128906 L 44.785156 -25.964844 L 45.132812 -29.625 L 44.609375 -43.390625 L 46.351562 -47.050781 L 49.839844 -49.140625 L 53.496094 -49.140625 L 56.632812 -48.792969 L 66.914062 -48.792969 L 70.402344 -49.140625 L 73.886719 -48.792969 L 77.195312 -48.792969 L 80.332031 -47.050781 L 82.074219 -43.566406 L 82.597656 -32.933594 L 82.074219 -29.625 L 82.773438 -17.25 L 82.074219 -12.023438 L 82.597656 -5.226562 L 84.339844 -1.566406 L 87.828125 0.175781 L 91.3125 -0.175781 L 96.539062 0.347656 L 108.5625 0.347656 L 112.046875 -1.566406 L 113.964844 -4.878906 L 114.660156 -12.023438 L 114.660156 -40.078125 L 113.964844 -46.703125 L 114.140625 -50.1875 L 113.789062 -53.847656 L 113.789062 -57.332031 L 114.3125 -60.992188 L 114.140625 -67.613281 L 114.488281 -71.445312 L 113.964844 -88.523438 L 114.835938 -102.988281 L 114.140625 -106.296875 L 113.789062 -109.609375 L 114.488281 -113.09375 L 114.140625 -116.578125 L 112.398438 -120.0625 L 106.996094 -121.804688 L 98.109375 -121.980469 L 92.53125 -121.457031 L 89.046875 -121.457031 L 83.816406 -119.890625 L 82.425781 -114.835938 L 82.773438 -95.84375 L 82.074219 -92.878906 L 82.074219 -82.773438 L 80.160156 -79.289062 L 77.195312 -77.546875 L 70.226562 -77.546875 L 67.089844 -77.894531 L 50.1875 -77.71875 L 46.527344 -79.289062 L 45.132812 -82.597656 L 45.132812 -93.054688 L 45.480469 -96.191406 L 44.957031 -113.441406 L 45.132812 -116.40625 L 43.042969 -120.0625 L 37.640625 -121.804688 L 27.359375 -121.457031 L 23.875 -121.804688 L 20.5625 -121.457031 L 15.160156 -119.890625 L 13.242188 -116.925781 L 12.722656 -113.09375 L 12.722656 -109.78125 L 13.070312 -105.949219 L 12.546875 -102.636719 L 13.417969 -92.183594 L 12.894531 -88.347656 L 13.242188 -85.386719 L 12.546875 -81.902344 L 13.242188 -71.273438 L 12.894531 -67.613281 L 12.894531 -57.503906 L 13.417969 -54.195312 L 13.070312 -48.792969 L 13.417969 -44.785156 L 12.894531 -36.59375 L 13.242188 -32.761719 L 12.722656 -29.277344 L 13.242188 -26.140625 L 12.894531 -22.652344 Z M 95.320312 5.925781 L 95.320312 9.757812 L 101.242188 11.328125 L 106.472656 11.5 L 111.699219 11.152344 L 116.40625 11.675781 L 120.238281 11.328125 L 123.199219 9.933594 L 125.640625 6.449219 L 125.816406 -0.871094 L 125.292969 -4.007812 L 125.640625 -7.839844 L 125.640625 -13.070312 L 125.292969 -16.554688 L 125.988281 -28.753906 L 125.292969 -32.0625 L 125.816406 -46.351562 L 125.117188 -49.839844 L 125.292969 -56.632812 L 125.816406 -60.46875 L 125.292969 -63.429688 L 125.640625 -67.265625 L 125.640625 -70.574219 L 125.292969 -74.234375 L 125.988281 -82.945312 L 125.292969 -98.28125 L 125.464844 -101.941406 L 125.988281 -105.425781 L 123.722656 -108.910156 L 120.238281 -108.910156 L 118.320312 -103.507812 L 118.148438 -98.457031 L 119.019531 -94.972656 L 118.320312 -80.855469 L 119.019531 -77.371094 L 118.671875 -74.058594 L 118.84375 -67.4375 L 118.320312 -63.953125 L 118.84375 -28.578125 L 118.320312 -21.78125 L 118.84375 -11.152344 L 118.148438 -8.191406 L 118.84375 -4.183594 L 118.671875 -0.871094 L 117.101562 2.613281 L 112.746094 4.183594 L 109.433594 4.53125 L 102.636719 4.53125 L 99.152344 4.183594 Z M 49.316406 -87.304688 L 51.230469 -83.644531 L 54.542969 -83.46875 L 56.460938 -87.304688 L 55.761719 -94.621094 L 56.285156 -98.28125 L 56.109375 -105.253906 L 54.890625 -108.738281 L 51.058594 -108.738281 L 49.488281 -105.078125 L 48.964844 -101.59375 L 49.140625 -98.109375 L 48.964844 -94.449219 L 49.316406 -91.136719 Z M 26.488281 6.097656 L 26.3125 9.757812 L 29.972656 11.328125 L 51.058594 11.5 L 54.019531 9.585938 L 56.285156 5.75 L 56.808594 0.871094 L 56.109375 -4.53125 L 56.460938 -13.417969 L 56.109375 -18.644531 L 56.632812 -25.789062 L 55.9375 -28.753906 L 56.285156 -32.585938 L 57.855469 -36.070312 L 61.863281 -37.8125 L 70.75 -37.464844 L 76.152344 -39.382812 L 75.976562 -42.867188 L 72.316406 -44.609375 L 68.832031 -44.4375 L 65 -44.785156 L 54.542969 -44.4375 L 50.882812 -42.867188 L 49.316406 -39.558594 L 49.316406 -28.753906 L 48.964844 -25.617188 L 49.664062 -18.121094 L 48.964844 -14.8125 L 49.488281 -7.839844 L 49.316406 -0.871094 L 47.574219 2.789062 L 42.171875 4.355469 L 36.941406 4.53125 L 31.367188 4.183594 Z M 26.488281 6.097656 "/></g></g></g><g fill="#ffffff" fill-opacity="1"><g transform="translate(134.353471, 241.955742)"><g><path d="M 65.171875 2.089844 L 74.929688 1.917969 L 85.386719 0.523438 L 98.457031 -3.832031 L 104.207031 -6.96875 L 106.820312 -9.0625 L 110.132812 -10.628906 L 115.011719 -14.8125 L 117.277344 -17.949219 L 119.714844 -20.386719 L 127.382812 -32.0625 L 129.996094 -38.683594 L 131.390625 -45.308594 L 131.566406 -48.445312 L 132.4375 -51.929688 L 132.609375 -55.589844 L 133.308594 -60.640625 L 132.785156 -69.355469 L 131.566406 -76.5 L 127.207031 -89.570312 L 123.898438 -96.015625 L 120.0625 -101.242188 L 115.183594 -106.644531 L 110.132812 -111.003906 L 106.125 -113.789062 L 100.894531 -116.054688 L 98.28125 -117.972656 L 84.863281 -122.15625 L 74.757812 -123.898438 L 70.050781 -124.070312 L 51.582031 -121.457031 L 38.511719 -116.578125 L 35.898438 -114.660156 L 32.761719 -113.09375 L 26.835938 -108.738281 L 18.296875 -98.804688 L 12.894531 -89.570312 L 10.28125 -82.945312 L 7.320312 -69.527344 L 6.796875 -55.414062 L 7.320312 -51.753906 L 8.191406 -48.617188 L 8.539062 -45.308594 L 10.105469 -38.683594 L 18.121094 -22.828125 L 20.214844 -20.738281 L 22.480469 -17.949219 L 25.09375 -15.507812 L 27.011719 -13.242188 L 32.761719 -8.714844 L 46.351562 -1.742188 L 51.40625 0 L 55.238281 0.347656 L 61.511719 1.742188 Z M 74.929688 -28.753906 L 65.347656 -28.753906 L 61.511719 -29.277344 L 55.238281 -31.890625 L 52.453125 -33.457031 L 47.746094 -37.292969 L 45.480469 -39.730469 L 43.042969 -43.042969 L 42.171875 -45.828125 L 40.601562 -48.964844 L 39.207031 -55.414062 L 39.207031 -66.042969 L 40.078125 -69.179688 L 40.601562 -72.492188 L 41.996094 -75.628906 L 43.042969 -78.765625 L 47.222656 -84.339844 L 55.9375 -90.265625 L 58.203125 -91.136719 L 65 -92.878906 L 69.878906 -93.226562 L 78.242188 -92.183594 L 81.378906 -91.484375 L 84.515625 -90.089844 L 89.917969 -86.257812 L 96.714844 -79.113281 L 98.804688 -72.492188 L 100.371094 -69.179688 L 100.894531 -66.042969 L 100.546875 -55.414062 L 99.152344 -48.964844 L 97.933594 -45.828125 L 96.015625 -42.691406 L 94.972656 -40.078125 L 92.53125 -37.292969 L 84.167969 -31.539062 L 81.03125 -30.667969 L 78.417969 -29.449219 Z M 44.261719 -57.679688 L 45.65625 -50.359375 L 48.09375 -44.4375 L 49.140625 -46.703125 L 48.964844 -52.625 L 50.359375 -61.511719 L 53.496094 -70.574219 L 58.027344 -75.976562 L 61.6875 -79.113281 L 66.21875 -81.378906 L 69.703125 -82.425781 L 73.015625 -83.121094 L 78.066406 -83.46875 L 81.03125 -83.644531 L 83.992188 -84.167969 L 78.066406 -87.476562 L 72.144531 -88.523438 L 69.355469 -88 L 64.648438 -87.828125 L 61.511719 -86.953125 L 58.550781 -85.5625 L 52.972656 -81.378906 L 50.1875 -78.589844 L 46.527344 -72.839844 L 44.609375 -62.90625 Z M 136.617188 -65 L 137.316406 -58.726562 L 136.617188 -48.617188 L 135.746094 -44.957031 L 135.574219 -41.125 L 129.824219 -25.265625 L 121.109375 -13.59375 L 116.230469 -8.714844 L 111.003906 -4.703125 L 107.515625 -3.3125 L 104.902344 -1.566406 L 98.628906 1.566406 L 95.492188 2.789062 L 85.386719 5.226562 L 73.535156 6.097656 L 59.074219 5.402344 L 55.238281 4.703125 L 53.324219 5.054688 L 54.71875 6.796875 L 61.339844 8.191406 L 64.648438 9.410156 L 72.839844 10.457031 L 85.386719 10.628906 L 97.757812 8.539062 L 102.636719 6.621094 L 106.125 5.925781 L 108.5625 4.183594 L 117.972656 -1.046875 L 123.199219 -5.578125 L 125.640625 -8.539062 L 128.429688 -10.804688 L 134.179688 -19.867188 L 138.535156 -29.277344 L 139.582031 -36.421875 L 140.800781 -39.90625 L 141.496094 -52.101562 L 141.324219 -57.503906 L 141.496094 -60.640625 L 140.277344 -64.300781 L 140.277344 -67.4375 L 137.316406 -77.371094 L 136.269531 -78.9375 L 135.574219 -77.195312 Z M 137.488281 -55.9375 L 136.96875 -55.066406 L 137.664062 -56.460938 Z M 137.488281 -55.9375 "/></g></g></g><g fill="#ffffff" fill-opacity="1"><g transform="translate(274.109049, 241.955742)"><g><path d="M 42.519531 -3.484375 L 45.132812 -0.175781 L 48.964844 1.046875 L 55.761719 1.046875 L 59.769531 -0.347656 L 62.558594 -3.832031 L 65.695312 -9.933594 L 68.136719 -16.902344 L 69.527344 -19.691406 L 70.402344 -23.175781 L 77.371094 -39.730469 L 78.066406 -42.691406 L 81.203125 -49.488281 L 82.25 -52.625 L 83.644531 -52.800781 L 85.386719 -49.316406 L 86.257812 -46.351562 L 88 -43.042969 L 89.570312 -39.730469 L 90.441406 -36.246094 L 93.226562 -29.972656 L 94.273438 -26.660156 L 96.886719 -20.214844 L 98.804688 -16.730469 L 100.023438 -13.59375 L 100.722656 -10.28125 L 103.335938 -4.007812 L 106.472656 -0.175781 L 110.480469 1.394531 L 116.40625 1.046875 L 120.761719 -0.523438 L 123.722656 -3.660156 L 124.421875 -6.96875 L 127.558594 -13.417969 L 129.472656 -20.214844 L 132.261719 -26.3125 L 134.527344 -33.285156 L 136.269531 -36.421875 L 136.96875 -39.730469 L 138.359375 -43.390625 L 139.753906 -48.445312 L 143.589844 -56.460938 L 147.597656 -69.355469 L 149.515625 -72.664062 L 151.257812 -79.113281 L 152.824219 -82.597656 L 153.523438 -85.910156 L 155.265625 -89.046875 L 158.402344 -98.980469 L 160.316406 -101.941406 L 164.847656 -116.578125 L 164.152344 -120.761719 L 158.75 -122.15625 L 139.753906 -121.804688 L 136.617188 -121.980469 L 132.609375 -120.0625 L 129.996094 -116.925781 L 129.125 -113.441406 L 127.558594 -110.480469 L 124.59375 -100.199219 L 123.027344 -96.714844 L 122.15625 -93.578125 L 120.0625 -88.347656 L 112.398438 -58.203125 L 110.828125 -58.550781 L 110.304688 -61.6875 L 108.390625 -64.648438 L 107.867188 -67.960938 L 101.59375 -84.691406 L 100.894531 -88 L 99.328125 -91.484375 L 98.804688 -94.972656 L 91.484375 -115.011719 L 88.871094 -118.496094 L 84.339844 -120.0625 L 81.03125 -120.238281 L 77.195312 -118.320312 L 75.105469 -114.835938 L 71.96875 -108.039062 L 70.402344 -101.242188 L 65.519531 -88.523438 L 64.476562 -84.691406 L 60.640625 -74.929688 L 60.121094 -71.621094 L 58.898438 -68.308594 L 56.984375 -64.648438 L 56.460938 -61.6875 L 54.542969 -58.203125 L 53.496094 -58.027344 L 43.566406 -96.539062 L 41.820312 -99.851562 L 39.207031 -106.644531 L 38.511719 -110.304688 L 37.464844 -113.441406 L 36.59375 -116.925781 L 33.804688 -120.0625 L 29.449219 -122.15625 L 26.488281 -121.804688 L 15.507812 -121.980469 L 12.722656 -121.632812 L 6.097656 -121.632812 L 2.441406 -120.414062 L 1.566406 -116.40625 L 2.441406 -111.875 L 4.007812 -108.5625 L 6.097656 -102.117188 L 7.667969 -98.980469 L 8.539062 -95.320312 L 10.28125 -92.355469 L 13.59375 -82.425781 L 15.160156 -79.113281 L 16.03125 -75.976562 L 17.601562 -72.492188 L 18.296875 -69.355469 L 22.304688 -59.769531 L 22.828125 -56.460938 L 24.570312 -52.800781 L 25.09375 -49.488281 L 37.988281 -16.902344 L 39.730469 -10.105469 Z M 173.210938 -106.996094 L 172.691406 -111.003906 L 168.855469 -110.480469 L 166.417969 -107.167969 L 165.023438 -104.207031 L 163.105469 -97.410156 L 161.710938 -94.449219 L 160.839844 -91.136719 L 159.097656 -87.828125 L 158.226562 -84.339844 L 156.832031 -81.378906 L 155.785156 -78.066406 L 154.042969 -74.757812 L 153.347656 -71.445312 L 149.6875 -61.6875 L 148.992188 -58.203125 L 147.421875 -54.890625 L 145.855469 -52.101562 L 141.496094 -39.207031 L 139.753906 -35.722656 L 135.574219 -22.304688 L 132.960938 -15.859375 L 132.085938 -12.722656 L 129.300781 -6.449219 L 128.253906 -2.613281 L 126.511719 0.175781 L 123.898438 3.660156 L 119.890625 5.226562 L 116.578125 5.054688 L 114.3125 7.144531 L 115.882812 10.628906 L 120.585938 12.546875 L 124.246094 12.371094 L 128.601562 10.976562 L 131.738281 7.839844 L 136.617188 -5.226562 L 137.488281 -8.539062 L 138.535156 -11.675781 L 140.105469 -14.984375 L 142.019531 -21.433594 L 143.589844 -24.570312 L 146.726562 -34.15625 L 148.46875 -37.640625 L 150.734375 -44.261719 L 153.347656 -50.710938 L 155.089844 -56.984375 L 157.878906 -63.777344 L 158.921875 -66.914062 L 162.929688 -76.671875 L 165.894531 -86.257812 L 169.203125 -93.054688 L 170.949219 -99.328125 L 172.515625 -102.289062 Z M 53.847656 -78.9375 L 55.414062 -76.671875 L 56.632812 -77.71875 L 58.027344 -80.683594 L 58.375 -85.386719 L 56.632812 -93.226562 L 51.40625 -107.167969 L 48.445312 -110.652344 L 44.609375 -110.304688 L 44.261719 -106.820312 L 46.351562 -102.117188 Z M 109.78125 -76.324219 L 111.003906 -75.105469 L 112.570312 -77.546875 L 113.617188 -83.121094 L 112.746094 -88.175781 L 111.523438 -91.835938 L 110.652344 -95.320312 L 107.167969 -104.902344 L 103.859375 -108.5625 L 99.851562 -108.738281 L 99.5 -105.253906 L 100.722656 -102.464844 L 101.417969 -99.152344 L 102.464844 -96.015625 L 104.207031 -92.707031 Z M 85.039062 -28.230469 L 85.5625 -33.285156 L 85.210938 -38.511719 L 83.121094 -39.90625 L 81.554688 -37.988281 L 77.023438 -28.753906 L 71.445312 -12.199219 L 69.703125 -9.0625 L 65.347656 0.175781 L 62.734375 3.660156 L 58.898438 5.226562 L 55.9375 5.054688 L 53.148438 6.621094 L 55.066406 10.628906 L 61.511719 12.722656 L 68.136719 11.152344 L 71.273438 7.492188 L 72.664062 4.53125 L 74.582031 -2.265625 L 76.5 -5.75 L 79.808594 -15.335938 L 81.378906 -18.644531 L 83.644531 -25.265625 Z M 85.039062 -28.230469 "/></g></g></g><g fill="#ffffff" fill-opacity="1"><g transform="translate(440.351979, 241.955742)"><g/></g></g><g fill="#ffffff" fill-opacity="1"><g transform="translate(487.576156, 241.955742)"><g><path d="M 33.457031 -5.402344 L 34.851562 -1.742188 L 38.511719 0 L 41.820312 -0.347656 L 45.308594 0 L 48.617188 -0.347656 L 59.421875 -0.347656 L 62.90625 -1.742188 L 64.300781 -5.226562 L 64.128906 -8.539062 L 64.476562 -12.546875 L 64.300781 -19.515625 L 63.777344 -22.480469 L 64.300781 -26.140625 L 64.648438 -36.769531 L 64.300781 -39.90625 L 64.824219 -47.222656 L 64.128906 -81.902344 L 64.648438 -85.386719 L 64.300781 -89.21875 L 65.695312 -92.355469 L 69.527344 -93.925781 L 72.492188 -94.097656 L 75.976562 -93.925781 L 79.113281 -94.273438 L 88.699219 -94.097656 L 92.707031 -95.667969 L 94.449219 -99.152344 L 94.097656 -102.8125 L 94.449219 -117.101562 L 92.707031 -120.585938 L 89.21875 -122.328125 L 85.039062 -121.980469 L 82.25 -122.328125 L 78.9375 -122.328125 L 75.105469 -121.804688 L 71.621094 -121.804688 L 68.136719 -122.15625 L 64.648438 -122.15625 L 60.640625 -121.632812 L 8.714844 -121.980469 L 4.878906 -120.238281 L 3.136719 -116.753906 L 2.960938 -99.328125 L 4.878906 -95.492188 L 8.363281 -93.75 L 12.894531 -94.273438 L 28.402344 -94.097656 L 31.539062 -92.183594 L 33.285156 -88.871094 L 33.804688 -69.703125 L 33.285156 -64.300781 L 33.632812 -60.992188 L 33.285156 -57.503906 L 33.285156 -50.535156 L 33.804688 -45.480469 L 33.109375 -40.253906 L 33.285156 -36.769531 L 33.109375 -33.109375 L 33.632812 -22.480469 L 33.285156 -18.996094 Z M 46.527344 6.273438 L 46.351562 9.585938 L 51.582031 11.675781 L 60.640625 10.976562 L 63.777344 11.5 L 70.226562 11.675781 L 73.710938 9.757812 L 76.152344 6.273438 L 75.628906 2.789062 L 75.453125 -0.871094 L 75.976562 -4.183594 L 75.453125 -18.296875 L 75.628906 -21.609375 L 75.453125 -25.265625 L 75.800781 -32.238281 L 75.28125 -35.898438 L 75.976562 -39.207031 L 75.800781 -42.519531 L 75.976562 -46.003906 L 75.28125 -56.808594 L 75.800781 -60.121094 L 75.28125 -63.605469 L 75.453125 -77.546875 L 77.195312 -81.203125 L 80.507812 -82.945312 L 87.476562 -83.121094 L 94.273438 -82.597656 L 100.546875 -82.773438 L 103.859375 -84.691406 L 105.425781 -88 L 105.601562 -91.660156 L 105.253906 -94.796875 L 105.601562 -105.773438 L 103.859375 -108.910156 L 100.722656 -109.085938 L 98.628906 -105.601562 L 98.28125 -101.941406 L 98.457031 -98.628906 L 98.28125 -94.972656 L 96.714844 -91.660156 L 93.402344 -89.570312 L 90.789062 -89.742188 L 86.78125 -89.570312 L 80.683594 -90.089844 L 77.195312 -89.742188 L 74.058594 -89.917969 L 70.574219 -88.175781 L 69.007812 -84.515625 L 68.136719 -58.375 L 68.65625 -53.496094 L 68.65625 -50.011719 L 69.179688 -46.351562 L 68.484375 -42.34375 L 69.007812 -35.546875 L 68.484375 -32.410156 L 69.179688 -18.296875 L 68.484375 -14.984375 L 68.484375 -0.695312 L 66.742188 2.613281 L 63.429688 4.183594 L 52.800781 4.703125 L 49.664062 4.53125 Z M 15.507812 -87.652344 L 15.160156 -84.515625 L 18.996094 -82.773438 L 24.394531 -82.773438 L 28.054688 -84.515625 L 28.054688 -88.175781 L 24.570312 -90.089844 L 18.996094 -89.570312 Z M 15.507812 -87.652344 "/></g></g></g><g fill="#ffffff" fill-opacity="1"><g transform="translate(584.986772, 241.955742)"><g><path d="M 65.171875 2.089844 L 74.929688 1.917969 L 85.386719 0.523438 L 98.457031 -3.832031 L 104.207031 -6.96875 L 106.820312 -9.0625 L 110.132812 -10.628906 L 115.011719 -14.8125 L 117.277344 -17.949219 L 119.714844 -20.386719 L 127.382812 -32.0625 L 129.996094 -38.683594 L 131.390625 -45.308594 L 131.566406 -48.445312 L 132.4375 -51.929688 L 132.609375 -55.589844 L 133.308594 -60.640625 L 132.785156 -69.355469 L 131.566406 -76.5 L 127.207031 -89.570312 L 123.898438 -96.015625 L 120.0625 -101.242188 L 115.183594 -106.644531 L 110.132812 -111.003906 L 106.125 -113.789062 L 100.894531 -116.054688 L 98.28125 -117.972656 L 84.863281 -122.15625 L 74.757812 -123.898438 L 70.050781 -124.070312 L 51.582031 -121.457031 L 38.511719 -116.578125 L 35.898438 -114.660156 L 32.761719 -113.09375 L 26.835938 -108.738281 L 18.296875 -98.804688 L 12.894531 -89.570312 L 10.28125 -82.945312 L 7.320312 -69.527344 L 6.796875 -55.414062 L 7.320312 -51.753906 L 8.191406 -48.617188 L 8.539062 -45.308594 L 10.105469 -38.683594 L 18.121094 -22.828125 L 20.214844 -20.738281 L 22.480469 -17.949219 L 25.09375 -15.507812 L 27.011719 -13.242188 L 32.761719 -8.714844 L 46.351562 -1.742188 L 51.40625 0 L 55.238281 0.347656 L 61.511719 1.742188 Z M 74.929688 -28.753906 L 65.347656 -28.753906 L 61.511719 -29.277344 L 55.238281 -31.890625 L 52.453125 -33.457031 L 47.746094 -37.292969 L 45.480469 -39.730469 L 43.042969 -43.042969 L 42.171875 -45.828125 L 40.601562 -48.964844 L 39.207031 -55.414062 L 39.207031 -66.042969 L 40.078125 -69.179688 L 40.601562 -72.492188 L 41.996094 -75.628906 L 43.042969 -78.765625 L 47.222656 -84.339844 L 55.9375 -90.265625 L 58.203125 -91.136719 L 65 -92.878906 L 69.878906 -93.226562 L 78.242188 -92.183594 L 81.378906 -91.484375 L 84.515625 -90.089844 L 89.917969 -86.257812 L 96.714844 -79.113281 L 98.804688 -72.492188 L 100.371094 -69.179688 L 100.894531 -66.042969 L 100.546875 -55.414062 L 99.152344 -48.964844 L 97.933594 -45.828125 L 96.015625 -42.691406 L 94.972656 -40.078125 L 92.53125 -37.292969 L 84.167969 -31.539062 L 81.03125 -30.667969 L 78.417969 -29.449219 Z M 44.261719 -57.679688 L 45.65625 -50.359375 L 48.09375 -44.4375 L 49.140625 -46.703125 L 48.964844 -52.625 L 50.359375 -61.511719 L 53.496094 -70.574219 L 58.027344 -75.976562 L 61.6875 -79.113281 L 66.21875 -81.378906 L 69.703125 -82.425781 L 73.015625 -83.121094 L 78.066406 -83.46875 L 81.03125 -83.644531 L 83.992188 -84.167969 L 78.066406 -87.476562 L 72.144531 -88.523438 L 69.355469 -88 L 64.648438 -87.828125 L 61.511719 -86.953125 L 58.550781 -85.5625 L 52.972656 -81.378906 L 50.1875 -78.589844 L 46.527344 -72.839844 L 44.609375 -62.90625 Z M 136.617188 -65 L 137.316406 -58.726562 L 136.617188 -48.617188 L 135.746094 -44.957031 L 135.574219 -41.125 L 129.824219 -25.265625 L 121.109375 -13.59375 L 116.230469 -8.714844 L 111.003906 -4.703125 L 107.515625 -3.3125 L 104.902344 -1.566406 L 98.628906 1.566406 L 95.492188 2.789062 L 85.386719 5.226562 L 73.535156 6.097656 L 59.074219 5.402344 L 55.238281 4.703125 L 53.324219 5.054688 L 54.71875 6.796875 L 61.339844 8.191406 L 64.648438 9.410156 L 72.839844 10.457031 L 85.386719 10.628906 L 97.757812 8.539062 L 102.636719 6.621094 L 106.125 5.925781 L 108.5625 4.183594 L 117.972656 -1.046875 L 123.199219 -5.578125 L 125.640625 -8.539062 L 128.429688 -10.804688 L 134.179688 -19.867188 L 138.535156 -29.277344 L 139.582031 -36.421875 L 140.800781 -39.90625 L 141.496094 -52.101562 L 141.324219 -57.503906 L 141.496094 -60.640625 L 140.277344 -64.300781 L 140.277344 -67.4375 L 137.316406 -77.371094 L 136.269531 -78.9375 L 135.574219 -77.195312 Z M 137.488281 -55.9375 L 136.96875 -55.066406 L 137.664062 -56.460938 Z M 137.488281 -55.9375 "/></g></g></g><g fill="#ffffff" fill-opacity="1"><g transform="translate(724.74235, 241.955742)"><g/></g></g><g fill="#ffffff" fill-opacity="1"><g transform="translate(771.966527, 241.955742)"><g><path d="M 12.722656 -5.226562 L 14.636719 -1.21875 L 17.949219 0.347656 L 75.628906 -0.347656 L 82.25 -1.21875 L 88 -3.484375 L 94.621094 -7.320312 L 96.886719 -9.0625 L 99.675781 -11.675781 L 103.683594 -17.425781 L 105.253906 -20.738281 L 105.949219 -23.699219 L 107.34375 -27.183594 L 107.515625 -41.125 L 106.820312 -44.4375 L 105.601562 -48.09375 L 102.464844 -54.195312 L 100.023438 -57.15625 L 97.410156 -59.769531 L 95.84375 -63.605469 L 96.539062 -67.089844 L 98.457031 -70.574219 L 100.546875 -73.535156 L 102.988281 -86.082031 L 102.8125 -91.136719 L 100.894531 -97.585938 L 99.152344 -100.894531 L 98.109375 -104.207031 L 93.925781 -109.78125 L 91.484375 -112.222656 L 86.257812 -115.882812 L 79.808594 -119.367188 L 70.050781 -121.632812 L 17.601562 -121.980469 L 14.113281 -120.414062 L 12.546875 -116.753906 L 12.894531 -109.261719 L 12.546875 -104.207031 L 13.242188 -92.53125 L 12.722656 -88.871094 L 13.070312 -85.210938 L 12.722656 -81.902344 L 12.894531 -78.242188 L 12.546875 -74.929688 L 12.546875 -60.992188 L 13.070312 -57.332031 L 12.722656 -54.019531 L 12.722656 -47.050781 L 13.070312 -43.738281 L 12.722656 -29.449219 L 13.242188 -22.304688 L 12.546875 -11.847656 Z M 109.085938 -93.226562 L 106.996094 -94.621094 L 105.949219 -91.484375 L 106.644531 -86.78125 L 106.820312 -81.902344 L 105.425781 -73.886719 L 102.464844 -68.136719 L 101.765625 -64.128906 L 104.554688 -61.339844 L 107.34375 -63.253906 L 108.910156 -66.21875 L 110.132812 -69.527344 L 111.875 -76.324219 L 112.046875 -79.808594 L 111.351562 -83.644531 L 111.351562 -86.78125 Z M 48.445312 -74.757812 L 44.261719 -76.152344 L 42.519531 -79.636719 L 43.214844 -82.597656 L 43.214844 -85.910156 L 42.867188 -89.21875 L 44.785156 -92.183594 L 48.445312 -94.097656 L 60.992188 -93.578125 L 66.390625 -92.53125 L 68.484375 -91.136719 L 70.75 -88.699219 L 71.273438 -83.992188 L 70.402344 -78.765625 L 67.4375 -75.976562 L 61.511719 -74.757812 Z M 65.347656 -82.773438 L 68.484375 -84.167969 L 68.308594 -85.910156 L 66.914062 -87.128906 L 65.347656 -88.871094 L 62.558594 -89.917969 L 60.640625 -89.742188 L 52.800781 -90.089844 L 50.710938 -89.917969 L 47.921875 -88.699219 L 47.222656 -86.953125 L 47.574219 -84.863281 L 46.875 -83.121094 L 48.445312 -79.636719 L 51.058594 -78.242188 L 53.148438 -79.636719 L 55.066406 -81.902344 L 57.15625 -82.773438 L 59.597656 -82.773438 L 61.6875 -83.296875 Z M 47.921875 -27.707031 L 44.957031 -29.101562 L 43.042969 -32.761719 L 43.214844 -35.722656 L 42.867188 -39.035156 L 43.042969 -42.519531 L 44.261719 -45.65625 L 47.746094 -47.398438 L 66.21875 -47.398438 L 71.097656 -46.527344 L 73.710938 -44.609375 L 76.324219 -42.171875 L 76.671875 -37.292969 L 76.324219 -32.761719 L 74.058594 -30.320312 L 70.921875 -28.402344 L 61.511719 -27.53125 Z M 71.792969 -36.769531 L 73.1875 -37.464844 L 73.1875 -39.207031 L 72.664062 -41.125 L 69.878906 -42.519531 L 67.4375 -43.390625 L 65 -43.914062 L 60.816406 -43.566406 L 55.9375 -43.738281 L 54.019531 -43.390625 L 50.1875 -43.566406 L 48.269531 -42.34375 L 46.875 -40.777344 L 47.398438 -38.335938 L 47.050781 -34.503906 L 48.792969 -32.761719 L 51.058594 -31.714844 L 52.800781 -32.410156 L 54.542969 -34.15625 L 55.238281 -35.898438 L 57.332031 -36.59375 L 64.824219 -36.421875 L 67.785156 -36.941406 Z M 114.488281 -40.949219 L 112.222656 -43.566406 L 111.699219 -39.207031 L 112.222656 -32.0625 L 111.003906 -26.488281 L 110.828125 -23.175781 L 108.214844 -16.554688 L 106.125 -13.242188 L 103.859375 -10.28125 L 99.152344 -5.226562 L 93.054688 -1.21875 L 89.917969 0.175781 L 87.128906 1.917969 L 79.636719 3.660156 L 58.027344 4.355469 L 54.367188 4.007812 L 31.191406 4.183594 L 25.789062 5.578125 L 25.617188 9.234375 L 29.449219 11.328125 L 36.070312 11.328125 L 39.382812 10.976562 L 43.042969 11.328125 L 53.671875 10.976562 L 58.898438 11.328125 L 63.777344 10.976562 L 69.007812 11.152344 L 72.492188 10.804688 L 77.894531 10.976562 L 88.523438 9.0625 L 91.484375 7.492188 L 95.144531 6.097656 L 98.109375 4.53125 L 105.253906 -0.523438 L 108.5625 -3.832031 L 111.175781 -6.96875 L 112.570312 -10.105469 L 114.3125 -13.070312 L 115.535156 -16.03125 L 116.40625 -19.691406 L 116.925781 -24.917969 L 116.925781 -29.972656 L 116.578125 -33.109375 Z M 114.488281 -40.949219 "/></g></g></g><g fill="#ffffff" fill-opacity="1"><g transform="translate(886.977378, 241.955742)"><g><path d="M 51.40625 1.394531 L 59.769531 2.089844 L 68.484375 1.742188 L 75.453125 0.175781 L 79.113281 -1.21875 L 82.597656 -2.089844 L 85.386719 -3.832031 L 88.523438 -5.226562 L 91.3125 -7.144531 L 99.152344 -14.113281 L 101.070312 -17.25 L 103.335938 -19.867188 L 104.378906 -23.351562 L 106.125 -26.3125 L 107.34375 -29.625 L 108.5625 -47.222656 L 108.039062 -61.339844 L 108.738281 -65 L 108.738281 -68.136719 L 108.039062 -71.621094 L 107.867188 -74.929688 L 108.214844 -78.589844 L 108.039062 -83.46875 L 108.390625 -88.871094 L 108.214844 -92.707031 L 108.738281 -96.015625 L 108.214844 -99.5 L 108.390625 -113.617188 L 107.867188 -116.578125 L 106.472656 -120.414062 L 100.894531 -121.980469 L 84.515625 -122.15625 L 80.683594 -120.585938 L 78.9375 -116.753906 L 79.113281 -99.675781 L 78.765625 -96.191406 L 78.9375 -89.394531 L 78.589844 -85.734375 L 79.113281 -82.074219 L 78.589844 -68.308594 L 79.289062 -65.171875 L 78.9375 -61.339844 L 79.113281 -55.066406 L 78.765625 -51.582031 L 78.9375 -42.691406 L 78.242188 -37.117188 L 76.671875 -33.804688 L 75.105469 -31.367188 L 72.316406 -28.753906 L 65.347656 -26.488281 L 60.640625 -26.140625 L 54.890625 -26.488281 L 51.753906 -27.359375 L 47.921875 -29.277344 L 45.308594 -31.539062 L 43.214844 -33.980469 L 42.171875 -37.640625 L 41.820312 -68.308594 L 41.300781 -71.792969 L 41.125 -82.597656 L 41.472656 -85.734375 L 41.472656 -99.675781 L 40.949219 -104.730469 L 40.949219 -108.039062 L 41.820312 -113.269531 L 41.820312 -116.925781 L 39.90625 -120.238281 L 35.722656 -121.804688 L 17.425781 -121.980469 L 13.941406 -120.0625 L 12.371094 -116.578125 L 12.371094 -106.125 L 11.5 -103.160156 L 12.199219 -95.84375 L 11.675781 -89.21875 L 12.546875 -78.765625 L 11.847656 -75.453125 L 12.371094 -71.621094 L 12.023438 -68.308594 L 12.199219 -64.824219 L 11.847656 -61.511719 L 12.371094 -54.542969 L 12.199219 -41.996094 L 12.722656 -36.941406 L 12.722656 -33.285156 L 13.765625 -29.796875 L 14.289062 -26.488281 L 15.335938 -23.175781 L 18.820312 -17.25 L 23.523438 -11.5 L 25.789062 -9.234375 L 31.714844 -5.75 L 34.328125 -3.660156 L 37.640625 -2.265625 L 41.648438 -1.046875 L 44.261719 0.347656 L 48.09375 0.523438 Z M 112.398438 -45.480469 L 112.046875 -37.8125 L 111.351562 -29.449219 L 109.261719 -22.652344 L 104.378906 -13.417969 L 102.636719 -10.804688 L 96.363281 -4.53125 L 92.355469 -1.566406 L 89.394531 0 L 76.152344 5.054688 L 73.015625 5.75 L 63.953125 6.273438 L 51.058594 5.054688 L 48.269531 5.054688 L 45.480469 4.703125 L 43.738281 5.054688 L 44.957031 6.449219 L 50.882812 8.886719 L 57.679688 10.976562 L 74.757812 11.5 L 84.691406 9.234375 L 91.3125 6.273438 L 97.234375 2.789062 L 99.5 0.523438 L 105.425781 -3.660156 L 106.996094 -6.097656 L 111.699219 -11.847656 L 116.230469 -21.257812 L 117.101562 -24.394531 L 118.84375 -34.503906 L 119.542969 -62.734375 L 119.191406 -66.042969 L 119.367188 -69.703125 L 119.191406 -73.1875 L 119.542969 -77.195312 L 119.019531 -80.507812 L 119.714844 -100.199219 L 119.367188 -105.425781 L 117.796875 -108.738281 L 114.3125 -108.910156 L 112.398438 -105.425781 L 112.570312 -69.355469 Z M 45.480469 -50.535156 L 46.351562 -39.730469 L 47.921875 -36.59375 L 50.359375 -33.632812 L 52.101562 -33.457031 L 52.800781 -38.164062 L 52.625 -43.914062 L 53.148438 -46.875 L 52.972656 -57.332031 L 52.277344 -60.992188 L 52.453125 -64.128906 L 52.972656 -67.613281 L 52.972656 -74.582031 L 52.277344 -77.71875 L 52.972656 -81.378906 L 52.972656 -92.007812 L 52.277344 -96.714844 L 52.625 -101.765625 L 53.324219 -105.601562 L 51.40625 -108.910156 L 47.574219 -108.738281 L 46.003906 -105.078125 L 45.480469 -95.144531 L 45.828125 -91.660156 L 45.480469 -88.175781 L 45.828125 -84.863281 L 45.65625 -81.726562 L 46.179688 -78.242188 L 46.003906 -74.929688 L 45.480469 -71.273438 Z M 45.480469 -50.535156 "/></g></g></g><g fill="#ffffff" fill-opacity="1"><g transform="translate(1007.215935, 241.955742)"><g><path d="M 40.078125 -4.878906 L 41.996094 -1.917969 L 45.308594 -0.175781 L 51.582031 0.175781 L 55.066406 -0.175781 L 58.726562 0 L 63.605469 -0.175781 L 68.832031 -1.917969 L 70.574219 -5.402344 L 70.574219 -8.363281 L 70.226562 -12.023438 L 70.402344 -15.335938 L 70.226562 -18.472656 L 71.097656 -29.101562 L 70.574219 -32.761719 L 71.097656 -42.867188 L 70.402344 -46.003906 L 71.273438 -51.058594 L 77.371094 -61.6875 L 78.765625 -65 L 80.683594 -67.960938 L 85.039062 -73.710938 L 105.078125 -106.820312 L 107.167969 -109.433594 L 108.390625 -112.570312 L 110.828125 -116.753906 L 110.304688 -120.933594 L 106.996094 -122.328125 L 103.507812 -121.804688 L 96.714844 -122.328125 L 93.054688 -121.804688 L 86.433594 -121.804688 L 83.121094 -122.15625 L 78.765625 -120.414062 L 75.105469 -117.101562 L 72.144531 -111.175781 L 69.878906 -107.867188 L 68.832031 -104.554688 L 64.824219 -98.804688 L 62.210938 -92.53125 L 56.460938 -83.121094 L 54.019531 -82.773438 L 50.011719 -89.046875 L 48.445312 -92.183594 L 47.398438 -95.667969 L 38.683594 -111.003906 L 36.769531 -113.964844 L 35.375 -117.449219 L 31.539062 -120.238281 L 27.183594 -122.15625 L 4.183594 -121.804688 L 0.347656 -120.761719 L 0 -116.925781 L 1.742188 -112.746094 L 20.5625 -82.945312 L 21.957031 -79.984375 L 37.464844 -55.589844 L 38.859375 -51.058594 L 39.730469 -46.003906 L 39.558594 -32.238281 L 39.90625 -28.753906 L 40.078125 -25.441406 L 39.730469 -22.304688 L 39.558594 -15.683594 L 40.429688 -8.539062 Z M 52.800781 -93.75 L 55.238281 -91.835938 L 57.503906 -93.226562 L 58.203125 -97.234375 L 57.332031 -101.417969 L 55.589844 -104.03125 L 54.367188 -106.820312 L 50.535156 -109.78125 L 46.527344 -109.609375 L 45.828125 -106.820312 Z M 53.148438 5.75 L 52.625 9.585938 L 56.460938 11.152344 L 76.847656 11.328125 L 80.332031 9.585938 L 82.074219 6.273438 L 81.554688 -0.523438 L 81.902344 -24.570312 L 82.25 -27.707031 L 81.902344 -34.503906 L 82.074219 -41.300781 L 82.945312 -46.179688 L 84.863281 -51.058594 L 86.433594 -54.195312 L 88.523438 -56.984375 L 89.917969 -60.121094 L 91.660156 -62.558594 L 94.097656 -67.089844 L 98.980469 -74.757812 L 100.199219 -77.546875 L 101.941406 -80.507812 L 104.378906 -83.296875 L 105.425781 -86.082031 L 107.167969 -89.570312 L 109.609375 -92.355469 L 110.828125 -95.144531 L 112.917969 -98.109375 L 114.488281 -101.242188 L 116.054688 -105.078125 L 115.535156 -108.738281 L 112.222656 -108.738281 L 109.433594 -105.949219 L 107.167969 -102.636719 L 104.207031 -96.363281 L 102.464844 -93.75 L 99.851562 -90.789062 L 96.886719 -84.515625 L 94.449219 -81.554688 L 82.074219 -60.292969 L 77.71875 -54.890625 L 74.582031 -44.957031 L 74.410156 -41.125 L 75.105469 -37.988281 L 74.757812 -34.503906 L 75.105469 -31.367188 L 74.929688 -24.394531 L 75.28125 -21.257812 L 74.929688 -17.773438 L 75.453125 -10.804688 L 74.757812 -7.320312 L 74.929688 -2.441406 L 73.1875 2.265625 L 68.136719 4.53125 L 57.855469 4.183594 Z M 53.148438 5.75 "/></g></g></g></svg>