<svg xmlns="http://www.w3.org/2000/svg" xmlns:xlink="http://www.w3.org/1999/xlink" width="1536" zoomAndPan="magnify" viewBox="0 0 1152 647.999998" height="864" preserveAspectRatio="xMidYMid meet" version="1.0"><defs><g/><clipPath id="f778ff9dca"><path d="M 285.480469 227.507812 L 866.730469 227.507812 L 866.730469 420.257812 L 285.480469 420.257812 Z M 285.480469 227.507812 " clip-rule="nonzero"/></clipPath><clipPath id="c5bc7995cf"><path d="M 323.730469 227.507812 L 828.257812 227.507812 C 849.382812 227.507812 866.507812 244.632812 866.507812 265.757812 L 866.507812 382.242188 C 866.507812 403.367188 849.382812 420.488281 828.257812 420.488281 L 323.730469 420.488281 C 302.605469 420.488281 285.480469 403.367188 285.480469 382.242188 L 285.480469 265.757812 C 285.480469 244.632812 302.605469 227.507812 323.730469 227.507812 Z M 323.730469 227.507812 " clip-rule="nonzero"/></clipPath></defs><g clip-path="url(#f778ff9dca)"><g clip-path="url(#c5bc7995cf)"><path stroke-linecap="butt" transform="matrix(0.75, 0, 0, 0.75, 285.480603, 227.507909)" fill="none" stroke-linejoin="miter" d="M 50.999826 -0.000128691 L 723.703024 -0.000128691 C 751.869694 -0.000128691 774.70303 22.833207 774.70303 50.999877 L 774.70303 206.312394 C 774.70303 234.479063 751.869694 257.307191 723.703024 257.307191 L 50.999826 257.307191 C 22.833156 257.307191 -0.000179536 234.479063 -0.000179536 206.312394 L -0.000179536 50.999877 C -0.000179536 22.833207 22.833156 -0.000128691 50.999826 -0.000128691 Z M 50.999826 -0.000128691 " stroke="#ffffff" stroke-width="18" stroke-opacity="1" stroke-miterlimit="4"/></g></g><g fill="#ffffff" fill-opacity="1"><g transform="translate(332.005554, 352.964916)"><g><path d="M 24.191406 0.183594 L 30.402344 0 L 33.089844 -0.925781 L 34.015625 -3.523438 L 34.292969 -8.34375 L 34.015625 -11.863281 L 34.203125 -13.808594 L 34.109375 -17.519531 L 34.292969 -19.1875 L 34.015625 -21.226562 L 34.203125 -36.148438 L 33.921875 -38.09375 L 34.203125 -46.160156 L 34.941406 -48.9375 L 36.703125 -50.050781 L 40.320312 -50.238281 L 43.75 -49.773438 L 45.695312 -50.050781 L 47.363281 -49.957031 L 48.9375 -50.976562 L 50.050781 -53.015625 L 50.144531 -61.824219 L 49.125 -63.675781 L 47.363281 -64.882812 L 41.617188 -64.882812 L 39.855469 -65.066406 L 37.910156 -64.789062 L 36.148438 -64.972656 L 28.640625 -64.601562 L 26.785156 -64.972656 L 25.027344 -65.066406 L 23.078125 -64.789062 L 21.039062 -64.972656 L 19.371094 -64.601562 L 13.902344 -64.882812 L 11.03125 -64.601562 L 4.542969 -64.972656 L 2.78125 -64.046875 L 1.667969 -61.914062 L 1.761719 -60.0625 L 1.574219 -55.425781 L 1.761719 -52.554688 L 2.59375 -50.886719 L 4.261719 -49.957031 L 6.117188 -50.144531 L 14.921875 -49.957031 L 16.683594 -49.03125 L 17.703125 -47.179688 L 17.519531 -44.210938 L 17.703125 -41.617188 L 17.609375 -39.578125 L 17.703125 -37.722656 L 17.519531 -35.128906 L 17.796875 -21.316406 L 17.609375 -19.464844 L 17.519531 -11.957031 L 17.703125 -10.011719 L 17.609375 -4.632812 L 17.425781 -2.875 L 18.628906 -0.835938 L 21.316406 0.09375 Z M 26.230469 6.304688 L 31.976562 6.210938 L 33.644531 6.023438 L 37.445312 6.210938 L 39.300781 5.191406 L 40.042969 3.242188 L 40.226562 -7.785156 L 40.042969 -9.546875 L 40.042969 -22.894531 L 40.320312 -24.5625 L 39.949219 -29.011719 L 40.132812 -41.152344 L 40.78125 -42.914062 L 42.820312 -43.839844 L 46.25 -43.933594 L 48.199219 -43.75 L 53.480469 -43.933594 L 55.148438 -44.769531 L 55.984375 -46.621094 L 56.167969 -50.328125 L 55.796875 -54.128906 L 55.890625 -56.074219 L 55.242188 -57.746094 L 53.109375 -57.835938 L 52.277344 -56.074219 L 52.367188 -53.109375 L 52.183594 -51.441406 L 51.441406 -48.570312 L 49.496094 -47.640625 L 48.011719 -47.828125 L 45.972656 -47.457031 L 41.429688 -47.457031 L 39.023438 -47.734375 L 37.445312 -46.53125 L 36.425781 -45.046875 L 36.332031 -20.667969 L 36.519531 -19.1875 L 36.242188 -16.21875 L 36.519531 -9.730469 L 36.332031 -7.878906 L 36.613281 -2.222656 L 36.332031 -0.554688 L 35.5 1.667969 L 33.644531 2.59375 L 27.992188 2.316406 L 26.417969 2.59375 L 24.5625 3.523438 L 24.375 5.46875 Z M 8.527344 -46.621094 L 8.34375 -44.953125 L 10.382812 -44.027344 L 13.253906 -44.027344 L 15.199219 -44.953125 L 15.199219 -46.898438 L 13.347656 -47.917969 L 10.382812 -47.640625 Z M 8.527344 -46.621094 "/></g></g></g><g fill="#ffffff" fill-opacity="1"><g transform="translate(383.818145, 352.964916)"><g><path d="M 6.671875 -2.6875 L 7.878906 -0.925781 L 9.640625 0.09375 L 30.585938 -0.09375 L 32.253906 0.183594 L 37.910156 -0.09375 L 43.5625 0.277344 L 45.324219 0.09375 L 47.269531 -0.835938 L 48.105469 -2.59375 L 48.289062 -4.355469 L 48.199219 -10.101562 L 48.382812 -11.863281 L 47.179688 -13.71875 L 44.398438 -14.644531 L 32.164062 -14.828125 L 30.402344 -14.550781 L 28.363281 -14.738281 L 26.324219 -14.550781 L 24.375 -15.664062 L 23.542969 -18.539062 L 23.636719 -23.078125 L 24.46875 -25.027344 L 26.136719 -26.046875 L 29.753906 -26.046875 L 31.605469 -26.230469 L 36.519531 -25.953125 L 39.023438 -26.136719 L 40.96875 -25.953125 L 42.636719 -26.046875 L 44.488281 -27.066406 L 45.417969 -28.824219 L 45.601562 -36.148438 L 45.417969 -38.003906 L 44.582031 -39.761719 L 43.007812 -40.78125 L 39.300781 -40.875 L 37.445312 -40.691406 L 35.5 -40.691406 L 33.367188 -40.875 L 26.046875 -40.78125 L 24.46875 -41.800781 L 23.355469 -43.46875 L 23.171875 -46.34375 L 24.097656 -49.03125 L 26.972656 -49.867188 L 44.769531 -49.957031 L 46.714844 -50.976562 L 47.734375 -52.648438 L 47.550781 -56.445312 L 47.269531 -58.207031 L 47.363281 -60.246094 L 47.640625 -62.007812 L 46.714844 -63.863281 L 44.769531 -64.695312 L 37.351562 -64.789062 L 35.683594 -64.601562 L 33.832031 -64.882812 L 29.753906 -64.695312 L 27.898438 -64.882812 L 24.285156 -64.789062 L 22.617188 -64.972656 L 10.472656 -64.695312 L 7.785156 -64.046875 L 6.859375 -62.007812 L 7.042969 -58.300781 L 6.671875 -55.613281 L 7.042969 -50.886719 L 6.859375 -48.9375 L 7.042969 -47.269531 L 7.042969 -30.679688 L 6.765625 -28.734375 L 7.042969 -25.117188 L 6.859375 -21.410156 L 7.136719 -19.464844 L 6.953125 -17.425781 L 7.042969 -15.664062 L 6.765625 -13.996094 L 6.953125 -11.863281 L 6.953125 -10.011719 L 7.136719 -6.394531 L 7.042969 -4.542969 Z M 26.695312 -46.53125 L 26.878906 -44.304688 L 28.734375 -43.191406 L 30.496094 -43.839844 L 37.722656 -43.839844 L 40.503906 -44.121094 L 47.085938 -43.839844 L 50.050781 -44.027344 L 52.554688 -45.046875 L 53.386719 -46.714844 L 53.757812 -50.515625 L 53.480469 -52.183594 L 53.574219 -56.167969 L 52.648438 -57.929688 L 50.699219 -57.746094 L 49.773438 -55.890625 L 49.867188 -50.515625 L 49.03125 -48.660156 L 46.898438 -47.734375 L 45.140625 -47.550781 L 35.871094 -47.734375 L 34.203125 -47.550781 L 30.125 -47.734375 L 28.269531 -47.640625 Z M 25.765625 -19.371094 L 26.601562 -17.703125 L 28.546875 -17.890625 L 30.308594 -19.371094 L 33.183594 -20.019531 L 36.054688 -20.113281 L 37.722656 -19.929688 L 39.761719 -19.929688 L 41.152344 -20.113281 L 43.007812 -20.207031 L 45.140625 -20.019531 L 48.753906 -20.113281 L 50.515625 -20.949219 L 51.347656 -22.894531 L 51.8125 -26.417969 L 51.441406 -30.957031 L 50.699219 -33.832031 L 48.753906 -33.738281 L 47.828125 -31.976562 L 48.011719 -30.03125 L 47.828125 -28.363281 L 47.828125 -26.324219 L 47.179688 -24.65625 L 45.230469 -23.726562 L 34.015625 -23.636719 L 32.070312 -23.914062 L 28.363281 -23.914062 L 26.785156 -22.894531 L 26.046875 -21.132812 Z M 13.902344 3.335938 L 14.089844 5.097656 L 15.941406 6.117188 L 17.703125 6.023438 L 23.355469 6.304688 L 25.117188 6.117188 L 36.425781 6.023438 L 38.464844 6.304688 L 51.8125 6.304688 L 53.296875 5.285156 L 54.5 3.242188 L 54.316406 -5.933594 L 53.296875 -7.601562 L 51.535156 -7.691406 L 50.886719 -5.933594 L 50.609375 -3.894531 L 50.792969 -2.410156 L 50.515625 -0.464844 L 49.773438 1.574219 L 48.011719 2.316406 L 30.679688 2.503906 L 28.917969 2.316406 L 26.878906 2.316406 L 25.304688 2.503906 L 20.578125 2.222656 L 15.757812 2.503906 Z M 13.902344 3.335938 "/></g></g></g><g fill="#ffffff" fill-opacity="1"><g transform="translate(436.92836, 352.964916)"><g><path d="M 6.953125 -2.6875 L 7.785156 -1.019531 L 10.75 0.09375 L 43.5625 -0.09375 L 46.160156 -1.019531 L 47.179688 -2.6875 L 46.992188 -4.726562 L 47.085938 -6.582031 L 47.269531 -8.25 L 46.992188 -10.289062 L 47.269531 -12.050781 L 46.066406 -14.089844 L 44.582031 -15.015625 L 42.542969 -14.738281 L 26.230469 -14.921875 L 24.285156 -15.757812 L 23.726562 -17.796875 L 23.820312 -21.226562 L 23.542969 -22.988281 L 23.636719 -25.027344 L 23.449219 -26.878906 L 23.636719 -28.824219 L 23.542969 -33.460938 L 23.820312 -36.054688 L 23.542969 -38.09375 L 23.820312 -40.042969 L 23.542969 -54.5 L 23.726562 -56.539062 L 23.542969 -61.082031 L 22.617188 -63.863281 L 20.207031 -64.972656 L 10.566406 -64.789062 L 7.878906 -63.769531 L 6.671875 -61.265625 L 7.230469 -56.445312 L 7.042969 -54.6875 L 6.765625 -52.738281 L 7.042969 -50.886719 L 7.230469 -49.125 L 6.953125 -47.085938 L 7.042969 -45.324219 L 6.859375 -43.46875 L 7.136719 -41.523438 L 6.859375 -39.855469 L 7.042969 -38.003906 L 6.765625 -36.242188 L 7.042969 -32.253906 L 6.765625 -30.496094 L 7.042969 -26.785156 L 6.765625 -24.933594 L 6.859375 -21.226562 L 7.042969 -19.558594 L 6.953125 -8.25 L 7.136719 -6.394531 L 6.765625 -4.632812 Z M 26.136719 -20.019531 L 26.972656 -17.980469 L 28.917969 -18.074219 L 29.753906 -20.019531 L 29.9375 -21.6875 L 29.9375 -26.695312 L 29.660156 -28.363281 L 29.660156 -33.089844 L 29.9375 -34.941406 L 29.660156 -38.835938 L 29.753906 -46.4375 L 29.476562 -48.289062 L 29.9375 -55.984375 L 28.734375 -57.746094 L 26.878906 -57.835938 L 26.136719 -55.984375 L 26.136719 -52.089844 L 25.765625 -50.328125 L 25.953125 -48.382812 L 26.136719 -25.675781 L 25.859375 -23.726562 L 26.136719 -21.96875 Z M 13.996094 3.429688 L 13.996094 5.003906 L 15.570312 6.023438 L 31.144531 6.304688 L 32.996094 6.117188 L 34.941406 6.304688 L 50.421875 6.117188 L 52.460938 5.191406 L 53.203125 3.242188 L 53.386719 -6.023438 L 52.648438 -7.972656 L 50.609375 -7.972656 L 49.496094 -6.023438 L 49.773438 -3.984375 L 49.496094 -2.132812 L 49.679688 -0.277344 L 48.753906 1.484375 L 46.621094 2.316406 L 43.101562 2.59375 L 34.109375 2.410156 L 31.421875 2.59375 L 24.746094 2.222656 L 23.171875 2.410156 L 16.589844 2.410156 Z M 13.996094 3.429688 "/></g></g></g><g fill="#ffffff" fill-opacity="1"><g transform="translate(486.794516, 352.964916)"><g><path d="M 6.671875 -2.6875 L 7.878906 -0.925781 L 9.640625 0.09375 L 30.585938 -0.09375 L 32.253906 0.183594 L 37.910156 -0.09375 L 43.5625 0.277344 L 45.324219 0.09375 L 47.269531 -0.835938 L 48.105469 -2.59375 L 48.289062 -4.355469 L 48.199219 -10.101562 L 48.382812 -11.863281 L 47.179688 -13.71875 L 44.398438 -14.644531 L 32.164062 -14.828125 L 30.402344 -14.550781 L 28.363281 -14.738281 L 26.324219 -14.550781 L 24.375 -15.664062 L 23.542969 -18.539062 L 23.636719 -23.078125 L 24.46875 -25.027344 L 26.136719 -26.046875 L 29.753906 -26.046875 L 31.605469 -26.230469 L 36.519531 -25.953125 L 39.023438 -26.136719 L 40.96875 -25.953125 L 42.636719 -26.046875 L 44.488281 -27.066406 L 45.417969 -28.824219 L 45.601562 -36.148438 L 45.417969 -38.003906 L 44.582031 -39.761719 L 43.007812 -40.78125 L 39.300781 -40.875 L 37.445312 -40.691406 L 35.5 -40.691406 L 33.367188 -40.875 L 26.046875 -40.78125 L 24.46875 -41.800781 L 23.355469 -43.46875 L 23.171875 -46.34375 L 24.097656 -49.03125 L 26.972656 -49.867188 L 44.769531 -49.957031 L 46.714844 -50.976562 L 47.734375 -52.648438 L 47.550781 -56.445312 L 47.269531 -58.207031 L 47.363281 -60.246094 L 47.640625 -62.007812 L 46.714844 -63.863281 L 44.769531 -64.695312 L 37.351562 -64.789062 L 35.683594 -64.601562 L 33.832031 -64.882812 L 29.753906 -64.695312 L 27.898438 -64.882812 L 24.285156 -64.789062 L 22.617188 -64.972656 L 10.472656 -64.695312 L 7.785156 -64.046875 L 6.859375 -62.007812 L 7.042969 -58.300781 L 6.671875 -55.613281 L 7.042969 -50.886719 L 6.859375 -48.9375 L 7.042969 -47.269531 L 7.042969 -30.679688 L 6.765625 -28.734375 L 7.042969 -25.117188 L 6.859375 -21.410156 L 7.136719 -19.464844 L 6.953125 -17.425781 L 7.042969 -15.664062 L 6.765625 -13.996094 L 6.953125 -11.863281 L 6.953125 -10.011719 L 7.136719 -6.394531 L 7.042969 -4.542969 Z M 26.695312 -46.53125 L 26.878906 -44.304688 L 28.734375 -43.191406 L 30.496094 -43.839844 L 37.722656 -43.839844 L 40.503906 -44.121094 L 47.085938 -43.839844 L 50.050781 -44.027344 L 52.554688 -45.046875 L 53.386719 -46.714844 L 53.757812 -50.515625 L 53.480469 -52.183594 L 53.574219 -56.167969 L 52.648438 -57.929688 L 50.699219 -57.746094 L 49.773438 -55.890625 L 49.867188 -50.515625 L 49.03125 -48.660156 L 46.898438 -47.734375 L 45.140625 -47.550781 L 35.871094 -47.734375 L 34.203125 -47.550781 L 30.125 -47.734375 L 28.269531 -47.640625 Z M 25.765625 -19.371094 L 26.601562 -17.703125 L 28.546875 -17.890625 L 30.308594 -19.371094 L 33.183594 -20.019531 L 36.054688 -20.113281 L 37.722656 -19.929688 L 39.761719 -19.929688 L 41.152344 -20.113281 L 43.007812 -20.207031 L 45.140625 -20.019531 L 48.753906 -20.113281 L 50.515625 -20.949219 L 51.347656 -22.894531 L 51.8125 -26.417969 L 51.441406 -30.957031 L 50.699219 -33.832031 L 48.753906 -33.738281 L 47.828125 -31.976562 L 48.011719 -30.03125 L 47.828125 -28.363281 L 47.828125 -26.324219 L 47.179688 -24.65625 L 45.230469 -23.726562 L 34.015625 -23.636719 L 32.070312 -23.914062 L 28.363281 -23.914062 L 26.785156 -22.894531 L 26.046875 -21.132812 Z M 13.902344 3.335938 L 14.089844 5.097656 L 15.941406 6.117188 L 17.703125 6.023438 L 23.355469 6.304688 L 25.117188 6.117188 L 36.425781 6.023438 L 38.464844 6.304688 L 51.8125 6.304688 L 53.296875 5.285156 L 54.5 3.242188 L 54.316406 -5.933594 L 53.296875 -7.601562 L 51.535156 -7.691406 L 50.886719 -5.933594 L 50.609375 -3.894531 L 50.792969 -2.410156 L 50.515625 -0.464844 L 49.773438 1.574219 L 48.011719 2.316406 L 30.679688 2.503906 L 28.917969 2.316406 L 26.878906 2.316406 L 25.304688 2.503906 L 20.578125 2.222656 L 15.757812 2.503906 Z M 13.902344 3.335938 "/></g></g></g><g fill="#ffffff" fill-opacity="1"><g transform="translate(539.904731, 352.964916)"><g><path d="M 33.921875 1.113281 L 36.332031 1.203125 L 41.339844 0.742188 L 43.191406 0.371094 L 44.953125 0.277344 L 46.53125 -0.183594 L 53.386719 -3.152344 L 54.6875 -4.261719 L 57.746094 -6.210938 L 60.433594 -9.082031 L 63.398438 -13.441406 L 65.53125 -17.703125 L 66.734375 -21.6875 L 66.828125 -23.449219 L 67.382812 -25.304688 L 67.753906 -32.347656 L 67.476562 -34.203125 L 66.363281 -36.054688 L 63.675781 -36.890625 L 40.410156 -36.890625 L 37.539062 -35.871094 L 36.703125 -34.109375 L 36.519531 -27.15625 L 36.890625 -25.394531 L 37.445312 -23.820312 L 39.207031 -22.988281 L 40.96875 -22.988281 L 42.636719 -22.800781 L 48.199219 -23.078125 L 49.496094 -22.058594 L 49.867188 -20.484375 L 49.125 -19 L 46.4375 -16.40625 L 44.953125 -15.664062 L 41.429688 -14.550781 L 39.578125 -14.273438 L 36.890625 -14.179688 L 34.015625 -14.367188 L 32.347656 -14.738281 L 30.679688 -15.386719 L 27.34375 -17.148438 L 24.5625 -19.371094 L 23.542969 -20.949219 L 22.800781 -22.523438 L 21.78125 -24.191406 L 21.132812 -25.953125 L 20.578125 -35.222656 L 21.597656 -38.558594 L 21.96875 -40.410156 L 23.355469 -43.839844 L 25.765625 -46.4375 L 28.824219 -48.570312 L 30.402344 -49.308594 L 34.015625 -50.515625 L 36.613281 -50.609375 L 41.429688 -50.050781 L 43.191406 -49.589844 L 47.828125 -46.714844 L 48.753906 -45.230469 L 50.792969 -43.75 L 52.832031 -42.820312 L 61.914062 -42.820312 L 63.675781 -43.007812 L 65.253906 -43.5625 L 65.902344 -45.601562 L 62.933594 -52.460938 L 61.636719 -53.757812 L 59.320312 -56.726562 L 56.632812 -59.414062 L 50.328125 -63.304688 L 48.289062 -63.863281 L 46.808594 -64.511719 L 44.953125 -64.789062 L 42.914062 -65.34375 L 33.738281 -65.808594 L 28.085938 -64.882812 L 21.039062 -62.378906 L 19.371094 -61.542969 L 14.738281 -58.394531 L 11.957031 -55.796875 L 10.75 -54.222656 L 9.824219 -52.738281 L 8.433594 -51.441406 L 7.414062 -49.679688 L 4.542969 -42.636719 L 4.449219 -40.96875 L 3.429688 -36.890625 L 3.613281 -32.253906 L 3.429688 -29.660156 L 3.523438 -27.714844 L 5.097656 -20.578125 L 7.042969 -15.480469 L 8.0625 -13.71875 L 11.402344 -9.546875 L 13.996094 -6.859375 L 19.929688 -2.875 L 21.597656 -2.039062 L 26.785156 -0.183594 L 31.976562 0.925781 Z M 55.613281 -40.875 L 54.59375 -40.410156 L 55.613281 -39.578125 L 58.484375 -38.835938 L 69.238281 -38.835938 L 71.832031 -39.949219 L 72.203125 -41.800781 L 71.089844 -45.601562 L 69.886719 -47.179688 L 69.238281 -49.03125 L 68.03125 -50.609375 L 66.640625 -51.996094 L 65.53125 -52.460938 L 65.714844 -51.535156 L 66.457031 -50.144531 L 66.921875 -48.382812 L 67.847656 -46.992188 L 68.03125 -45.324219 L 68.496094 -43.46875 L 68.125 -41.710938 L 65.621094 -40.78125 L 61.175781 -40.96875 L 58.484375 -40.691406 Z M 22.988281 -30.308594 L 23.355469 -27.15625 L 24.5625 -24.65625 L 25.582031 -23.820312 L 25.675781 -24.46875 L 25.488281 -27.15625 L 25.765625 -30.125 L 25.765625 -32.070312 L 26.230469 -33.832031 L 27.066406 -35.59375 L 27.714844 -37.445312 L 28.734375 -39.023438 L 31.144531 -41.894531 L 32.8125 -43.191406 L 34.480469 -44.121094 L 35.871094 -44.675781 L 37.722656 -45.230469 L 40.320312 -45.507812 L 43.007812 -45.324219 L 43.839844 -45.789062 L 43.46875 -46.4375 L 40.226562 -48.011719 L 38.09375 -48.199219 L 36.332031 -48.105469 L 34.109375 -47.640625 L 32.625 -47.179688 L 29.289062 -45.417969 L 27.992188 -44.304688 L 24.933594 -39.949219 L 23.449219 -36.242188 L 22.988281 -34.480469 L 23.171875 -32.902344 Z M 36.890625 3.335938 L 29.105469 3.242188 L 28.457031 3.429688 L 29.011719 3.984375 L 32.441406 5.191406 L 35.960938 5.46875 L 37.632812 5.839844 L 43.285156 5.933594 L 44.769531 5.5625 L 46.808594 5.375 L 52.183594 4.078125 L 54.035156 3.152344 L 55.707031 2.503906 L 59.226562 0.554688 L 62.101562 -1.390625 L 63.492188 -2.875 L 64.882812 -4.078125 L 68.125 -8.527344 L 71.371094 -15.480469 L 71.648438 -17.148438 L 72.296875 -18.816406 L 72.480469 -20.484375 L 73.039062 -22.335938 L 73.128906 -25.953125 L 73.410156 -27.4375 L 73.410156 -29.289062 L 72.667969 -31.234375 L 71 -31.144531 L 70.257812 -29.105469 L 69.515625 -25.394531 L 69.609375 -23.355469 L 69.332031 -21.410156 L 68.402344 -17.796875 L 67.382812 -15.199219 L 66.085938 -12.605469 L 65.53125 -11.03125 L 63.304688 -8.0625 L 59.503906 -3.984375 L 56.539062 -1.945312 L 53.203125 -0.09375 L 48.199219 1.855469 L 44.859375 2.6875 Z M 36.890625 3.335938 "/></g></g></g><g fill="#ffffff" fill-opacity="1"><g transform="translate(610.903773, 352.964916)"><g><path d="M 7.136719 -2.964844 L 7.785156 -0.925781 L 9.640625 0 L 11.402344 0.09375 L 15.199219 -0.183594 L 17.148438 0 L 19.929688 0 L 22.800781 -0.925781 L 23.449219 -2.6875 L 23.636719 -4.632812 L 23.265625 -6.582031 L 23.542969 -10.566406 L 23.355469 -16.3125 L 24.191406 -18.167969 L 26.046875 -19.09375 L 27.714844 -19.09375 L 29.382812 -19.1875 L 31.699219 -18.445312 L 33.183594 -16.871094 L 35.59375 -13.625 L 36.242188 -11.863281 L 38.835938 -7.230469 L 40.042969 -5.46875 L 40.875 -3.894531 L 41.988281 -2.410156 L 43.839844 -0.742188 L 46.160156 -0.183594 L 49.496094 0 L 51.535156 -0.183594 L 53.386719 0 L 57.097656 0 L 59.136719 -0.183594 L 61.082031 -0.648438 L 61.453125 -2.59375 L 60.246094 -4.914062 L 57.28125 -9.453125 L 56.445312 -11.03125 L 55.335938 -12.699219 L 54.40625 -14.367188 L 53.203125 -15.851562 L 50.421875 -20.667969 L 50.144531 -22.894531 L 51.164062 -24.839844 L 53.757812 -27.34375 L 54.871094 -28.917969 L 55.519531 -30.679688 L 56.539062 -32.347656 L 57.1875 -33.921875 L 58.207031 -37.445312 L 58.300781 -44.769531 L 57.835938 -46.53125 L 57.558594 -48.289062 L 57.097656 -50.144531 L 54.59375 -55.242188 L 53.296875 -56.632812 L 52.460938 -58.023438 L 47.828125 -61.542969 L 44.582031 -63.214844 L 36.890625 -64.789062 L 34.574219 -64.972656 L 31.882812 -64.882812 L 29.84375 -64.972656 L 27.992188 -64.789062 L 25.953125 -64.972656 L 24.375 -64.789062 L 18.816406 -64.972656 L 17.054688 -64.695312 L 13.253906 -65.066406 L 11.492188 -64.789062 L 9.453125 -64.882812 L 7.691406 -64.046875 L 6.953125 -62.101562 L 6.671875 -36.148438 L 6.953125 -33.460938 L 6.953125 -28.824219 L 6.765625 -26.878906 L 6.671875 -23.355469 L 6.953125 -21.316406 L 6.671875 -17.519531 L 7.042969 -12.140625 L 6.859375 -10.195312 Z M 26.046875 -34.109375 L 24.46875 -34.941406 L 23.542969 -36.890625 L 23.265625 -47.269531 L 24.375 -49.125 L 26.230469 -50.050781 L 27.714844 -50.144531 L 32.8125 -50.050781 L 37.074219 -49.496094 L 39.949219 -47.734375 L 40.875 -46.34375 L 41.523438 -44.859375 L 41.710938 -42.171875 L 41.429688 -39.671875 L 40.691406 -37.816406 L 39.671875 -36.242188 L 38.558594 -35.128906 L 37.167969 -34.480469 L 29.9375 -33.832031 L 28.085938 -34.109375 Z M 61.175781 -48.105469 L 60.433594 -48.753906 L 60.0625 -47.640625 L 60.617188 -45.972656 L 60.894531 -44.121094 L 60.804688 -37.074219 L 60.433594 -35.222656 L 58.765625 -30.03125 L 57.097656 -26.972656 L 55.890625 -25.582031 L 54.5 -24.285156 L 53.574219 -22.058594 L 54.128906 -19.929688 L 55.242188 -18.351562 L 55.984375 -16.871094 L 56.726562 -15.199219 L 59.96875 -10.566406 L 60.710938 -8.898438 L 61.824219 -7.230469 L 62.65625 -5.839844 L 63.675781 -3.242188 L 63.769531 -0.648438 L 62.84375 1.390625 L 61.082031 2.316406 L 49.867188 2.222656 L 48.660156 3.242188 L 49.496094 4.914062 L 52.738281 5.839844 L 56.726562 6.023438 L 59.503906 5.746094 L 61.175781 5.933594 L 63.214844 5.839844 L 65.53125 4.914062 L 67.476562 2.132812 L 67.753906 -0.925781 L 67.105469 -3.894531 L 65.53125 -8.0625 L 63.492188 -11.308594 L 62.75 -13.070312 L 61.542969 -14.550781 L 59.042969 -19.648438 L 58.578125 -21.875 L 59.136719 -24.007812 L 62.933594 -30.496094 L 63.769531 -34.203125 L 63.863281 -36.890625 L 64.234375 -39.578125 L 63.398438 -43.285156 L 62.5625 -44.859375 L 61.914062 -46.4375 Z M 25.859375 -39.207031 L 26.695312 -37.539062 L 28.734375 -37.351562 L 30.496094 -43.191406 L 32.71875 -44.210938 L 37.261719 -44.121094 L 38.652344 -44.582031 L 38.371094 -46.066406 L 36.703125 -47.085938 L 34.015625 -47.734375 L 28.640625 -47.828125 L 26.695312 -46.714844 L 25.859375 -45.046875 Z M 13.808594 3.152344 L 13.808594 5.003906 L 15.664062 5.933594 L 25.675781 5.839844 L 28.546875 4.914062 L 29.289062 3.152344 L 29.566406 -10.472656 L 31.328125 -13.996094 L 30.214844 -15.757812 L 28.175781 -16.777344 L 26.601562 -15.941406 L 25.859375 -12.976562 L 25.953125 -10.195312 L 25.675781 -8.15625 L 25.765625 -6.394531 L 25.675781 -4.449219 L 25.859375 -1.574219 L 24.933594 1.296875 L 23.171875 2.316406 L 15.664062 2.222656 Z M 13.808594 3.152344 "/></g></g></g><g fill="#ffffff" fill-opacity="1"><g transform="translate(675.136607, 352.964916)"><g><path d="M 1.203125 -2.503906 L 1.667969 -0.554688 L 3.523438 -0.09375 L 11.679688 -0.09375 L 14.089844 0.183594 L 16.21875 -0.742188 L 17.890625 -2.410156 L 19.464844 -5.5625 L 21.039062 -7.324219 L 23.265625 -8.25 L 25.117188 -8.0625 L 30.308594 -8.15625 L 32.253906 -7.878906 L 34.386719 -8.15625 L 36.054688 -8.15625 L 38.003906 -7.972656 L 42.359375 -8.15625 L 45.417969 -7.136719 L 47.363281 -5.652344 L 47.828125 -3.984375 L 48.847656 -2.316406 L 50.421875 -0.835938 L 52.832031 0.09375 L 54.5 -0.09375 L 57.746094 0.183594 L 63.492188 0 L 65.160156 -0.554688 L 65.53125 -2.503906 L 64.972656 -4.820312 L 64.324219 -6.488281 L 63.121094 -8.0625 L 62.5625 -9.917969 L 61.636719 -11.308594 L 61.082031 -13.070312 L 59.503906 -16.40625 L 58.855469 -18.167969 L 57.929688 -19.742188 L 56.632812 -23.171875 L 55.613281 -24.65625 L 54.871094 -26.507812 L 54.035156 -28.085938 L 53.386719 -29.9375 L 52.554688 -31.328125 L 51.996094 -33.183594 L 50.976562 -34.851562 L 50.238281 -36.425781 L 49.308594 -38.003906 L 48.847656 -39.761719 L 46.992188 -43.007812 L 46.4375 -44.769531 L 44.769531 -48.289062 L 44.304688 -49.773438 L 42.914062 -53.015625 L 41.0625 -56.445312 L 39.578125 -59.96875 L 38.742188 -61.359375 L 38.1875 -63.121094 L 36.519531 -64.882812 L 33.367188 -65.714844 L 30.402344 -64.789062 L 28.640625 -63.121094 L 28.085938 -61.453125 L 24.097656 -53.109375 L 23.078125 -51.441406 L 17.890625 -39.761719 L 17.425781 -38.1875 L 16.40625 -36.519531 L 14.921875 -33.183594 L 13.53125 -30.773438 L 12.882812 -29.011719 L 11.585938 -26.601562 L 11.03125 -24.65625 L 10.195312 -23.171875 L 9.546875 -21.316406 L 6.953125 -16.5 L 4.261719 -9.730469 L 3.152344 -8.25 L 2.316406 -6.394531 Z M 45.324219 -58.765625 L 43.378906 -58.855469 L 43.191406 -57.003906 L 48.9375 -45.324219 L 49.308594 -43.46875 L 50.238281 -41.710938 L 51.257812 -40.226562 L 51.996094 -38.742188 L 52.554688 -36.890625 L 53.574219 -35.128906 L 54.222656 -33.554688 L 55.054688 -31.976562 L 57.097656 -26.695312 L 58.117188 -25.210938 L 62.007812 -16.871094 L 62.5625 -15.015625 L 64.511719 -11.679688 L 64.882812 -10.011719 L 65.992188 -8.25 L 66.457031 -6.671875 L 67.382812 -4.820312 L 68.496094 0 L 67.753906 1.484375 L 65.808594 2.410156 L 64.046875 2.316406 L 62.101562 2.503906 L 54.59375 2.410156 L 53.386719 3.242188 L 54.035156 5.285156 L 56.445312 6.023438 L 64.695312 6.023438 L 66.640625 6.210938 L 68.402344 6.210938 L 71.183594 5.375 L 72.574219 2.503906 L 72.480469 0 L 71.183594 -5.285156 L 70.257812 -6.953125 L 69.792969 -8.710938 L 67.105469 -13.441406 L 65.160156 -18.722656 L 64.046875 -20.207031 L 61.636719 -25.304688 L 60.988281 -27.15625 L 59.96875 -28.640625 L 59.414062 -30.214844 L 58.484375 -31.882812 L 57.1875 -35.5 L 54.6875 -40.320312 L 54.222656 -42.082031 L 53.203125 -43.75 L 52.648438 -45.324219 L 51.535156 -46.992188 L 50.050781 -50.238281 L 49.402344 -52.183594 L 48.476562 -53.667969 L 46.992188 -57.1875 Z M 29.84375 -22.894531 L 28.085938 -23.636719 L 27.804688 -25.488281 L 31.515625 -33.921875 L 32.347656 -35.40625 L 33.554688 -36.332031 L 34.664062 -35.59375 L 35.871094 -31.976562 L 36.890625 -30.402344 L 37.261719 -28.917969 L 38.1875 -27.066406 L 38.835938 -25.394531 L 38.652344 -23.726562 L 37.074219 -22.988281 Z M 30.957031 -26.785156 L 31.421875 -24.933594 L 33.460938 -25.394531 L 34.851562 -28.546875 L 34.015625 -31.234375 L 32.347656 -30.496094 L 31.421875 -28.734375 Z M 4.632812 4.171875 L 5.285156 5.652344 L 6.953125 6.117188 L 13.441406 6.023438 L 15.757812 6.304688 L 17.703125 6.210938 L 19.929688 5.285156 L 21.503906 3.800781 L 23.078125 0.277344 L 24.933594 -1.113281 L 26.878906 -2.132812 L 36.148438 -2.222656 L 38.1875 -1.945312 L 39.761719 -2.132812 L 43.378906 -2.132812 L 44.769531 -2.875 L 44.121094 -4.914062 L 41.617188 -5.746094 L 39.855469 -5.839844 L 35.035156 -5.652344 L 32.535156 -5.839844 L 30.496094 -5.652344 L 26.695312 -5.839844 L 24.65625 -5.746094 L 22.429688 -5.003906 L 20.667969 -3.335938 L 19.1875 0.09375 L 17.609375 1.667969 L 15.109375 2.503906 L 11.492188 2.316406 L 9.824219 2.503906 L 7.691406 2.410156 L 5.746094 2.875 Z M 4.632812 4.171875 "/></g></g></g><g fill="#ffffff" fill-opacity="1"><g transform="translate(742.428139, 352.964916)"><g><path d="M 6.859375 -2.6875 L 7.691406 -1.019531 L 9.917969 0 L 20.113281 -0.183594 L 22.894531 -1.019531 L 23.914062 -2.503906 L 24.097656 -4.261719 L 24.007812 -6.210938 L 23.726562 -8.15625 L 24.007812 -20.667969 L 23.636719 -26.046875 L 24.46875 -27.34375 L 25.859375 -26.972656 L 28.175781 -24.097656 L 33.367188 -19.1875 L 34.574219 -17.609375 L 37.632812 -15.109375 L 39.761719 -15.109375 L 41.339844 -16.21875 L 49.125 -24.097656 L 50.328125 -25.675781 L 51.628906 -26.972656 L 52.738281 -27.15625 L 53.480469 -26.046875 L 53.757812 -24.191406 L 53.480469 -22.429688 L 53.574219 -20.761719 L 53.480469 -18.910156 L 53.757812 -15.480469 L 53.480469 -2.6875 L 54.40625 -0.742188 L 56.445312 0 L 67.570312 0.09375 L 69.332031 -1.019531 L 70.351562 -2.964844 L 70.628906 -4.820312 L 70.257812 -15.941406 L 70.441406 -17.703125 L 70.257812 -21.316406 L 70.535156 -23.171875 L 70.441406 -25.027344 L 70.628906 -26.972656 L 70.441406 -28.824219 L 70.722656 -30.496094 L 70.441406 -56.726562 L 70.628906 -58.671875 L 70.441406 -60.246094 L 70.535156 -62.195312 L 69.515625 -63.953125 L 67.664062 -65.066406 L 64.882812 -64.234375 L 62.5625 -62.933594 L 60.433594 -60.339844 L 55.148438 -54.871094 L 54.316406 -53.480469 L 40.597656 -38.929688 L 38.558594 -38.28125 L 36.890625 -38.835938 L 35.683594 -40.042969 L 34.574219 -41.617188 L 33.089844 -42.820312 L 31.976562 -44.304688 L 25.582031 -50.886719 L 23.355469 -53.667969 L 21.78125 -55.054688 L 20.578125 -56.355469 L 19.558594 -57.746094 L 18.257812 -58.949219 L 17.238281 -60.246094 L 15.199219 -62.378906 L 12.511719 -64.324219 L 9.824219 -65.066406 L 7.972656 -64.046875 L 6.953125 -62.195312 L 6.765625 -60.246094 L 7.042969 -19.371094 L 6.671875 -17.609375 L 7.042969 -4.449219 Z M 60.523438 3.335938 L 60.339844 5.097656 L 62.285156 6.023438 L 69.886719 5.933594 L 71.925781 6.117188 L 73.78125 5.933594 L 75.539062 5.191406 L 76.003906 3.429688 L 76.28125 1.390625 L 76.1875 -13.441406 L 76.46875 -15.109375 L 76.28125 -17.054688 L 76.375 -19 L 76.28125 -21.875 L 76.375 -23.636719 L 76.097656 -26.417969 L 76.28125 -29.289062 L 76.003906 -31.050781 L 76.28125 -43.191406 L 76.097656 -44.953125 L 76.46875 -50.609375 L 76.46875 -52.554688 L 76.097656 -54.316406 L 76.375 -56.261719 L 75.449219 -58.207031 L 73.871094 -58.207031 L 72.945312 -56.261719 L 73.128906 -54.40625 L 72.667969 -50.609375 L 72.667969 -48.660156 L 72.945312 -46.808594 L 72.667969 -41.429688 L 73.039062 -32.070312 L 72.667969 -30.03125 L 72.851562 -15.199219 L 72.667969 -13.53125 L 73.039062 -8.710938 L 72.574219 -4.171875 L 72.667969 -1.296875 L 71.742188 1.390625 L 68.867188 2.316406 L 62.5625 2.316406 Z M 13.625 3.335938 L 13.71875 5.285156 L 15.851562 6.210938 L 17.519531 5.933594 L 21.597656 5.839844 L 24.285156 6.117188 L 27.15625 5.933594 L 28.734375 5.097656 L 30.03125 3.429688 L 29.753906 -1.945312 L 29.9375 -3.800781 L 30.03125 -8.34375 L 29.84375 -10.195312 L 29.84375 -12.699219 L 30.125 -14.550781 L 29.84375 -16.40625 L 29.195312 -18.816406 L 28.175781 -20.855469 L 26.878906 -21.226562 L 26.046875 -20.113281 L 26.230469 -16.683594 L 26.046875 -12.976562 L 26.324219 -11.03125 L 26.136719 -9.175781 L 26.417969 -7.414062 L 26.324219 -5.652344 L 26.046875 -3.984375 L 26.046875 -2.222656 L 26.230469 -0.371094 L 25.488281 1.390625 L 23.355469 2.410156 L 21.316406 2.222656 L 15.664062 2.503906 Z M 48.382812 -13.902344 L 50.238281 -16.871094 L 50.886719 -19.371094 L 50.328125 -20.578125 L 49.125 -20.296875 L 47.828125 -18.816406 L 46.53125 -17.703125 L 44.675781 -15.664062 L 42.265625 -13.71875 L 41.429688 -12.511719 L 42.636719 -11.03125 L 45.046875 -10.660156 Z M 48.382812 -13.902344 "/></g></g></g></svg>