<svg xmlns="http://www.w3.org/2000/svg" xmlns:xlink="http://www.w3.org/1999/xlink" width="1536" zoomAndPan="magnify" viewBox="0 0 1152 647.999998" height="864" preserveAspectRatio="xMidYMid meet" version="1.0"><defs><g/><clipPath id="89c906503e"><path d="M 285.480469 227.507812 L 866.730469 227.507812 L 866.730469 420.257812 L 285.480469 420.257812 Z M 285.480469 227.507812 " clip-rule="nonzero"/></clipPath><clipPath id="9b7debf8b2"><path d="M 323.730469 227.507812 L 828.257812 227.507812 C 849.382812 227.507812 866.507812 244.632812 866.507812 265.757812 L 866.507812 382.242188 C 866.507812 403.367188 849.382812 420.492188 828.257812 420.492188 L 323.730469 420.492188 C 302.605469 420.492188 285.480469 403.367188 285.480469 382.242188 L 285.480469 265.757812 C 285.480469 244.632812 302.605469 227.507812 323.730469 227.507812 Z M 323.730469 227.507812 " clip-rule="nonzero"/></clipPath></defs><g clip-path="url(#89c906503e)"><g clip-path="url(#9b7debf8b2)"><path stroke-linecap="butt" transform="matrix(0.75, 0, 0, 0.75, 285.480603, 227.507983)" fill="none" stroke-linejoin="miter" d="M 50.999826 -0.000227891 L 723.703024 -0.000227891 C 751.869694 -0.000227891 774.70303 22.833108 774.70303 50.999778 L 774.70303 206.312295 C 774.70303 234.478964 751.869694 257.3123 723.703024 257.3123 L 50.999826 257.3123 C 22.833156 257.3123 -0.000179536 234.478964 -0.000179536 206.312295 L -0.000179536 50.999778 C -0.000179536 22.833108 22.833156 -0.000227891 50.999826 -0.000227891 Z M 50.999826 -0.000227891 " stroke="#ffffff" stroke-width="18" stroke-opacity="1" stroke-miterlimit="4"/></g></g><g fill="#ffffff" fill-opacity="1"><g transform="translate(374.331547, 352.964976)"><g><path d="M 24.191406 0.183594 L 30.402344 0 L 33.089844 -0.925781 L 34.015625 -3.523438 L 34.292969 -8.34375 L 34.015625 -11.863281 L 34.203125 -13.808594 L 34.109375 -17.519531 L 34.292969 -19.1875 L 34.015625 -21.226562 L 34.203125 -36.148438 L 33.921875 -38.09375 L 34.203125 -46.160156 L 34.941406 -48.9375 L 36.703125 -50.050781 L 40.320312 -50.238281 L 43.75 -49.773438 L 45.695312 -50.050781 L 47.363281 -49.957031 L 48.9375 -50.976562 L 50.050781 -53.015625 L 50.144531 -61.824219 L 49.125 -63.675781 L 47.363281 -64.882812 L 41.617188 -64.882812 L 39.855469 -65.066406 L 37.910156 -64.789062 L 36.148438 -64.972656 L 28.640625 -64.601562 L 26.785156 -64.972656 L 25.027344 -65.066406 L 23.078125 -64.789062 L 21.039062 -64.972656 L 19.371094 -64.601562 L 13.902344 -64.882812 L 11.03125 -64.601562 L 4.542969 -64.972656 L 2.78125 -64.046875 L 1.667969 -61.914062 L 1.761719 -60.0625 L 1.574219 -55.425781 L 1.761719 -52.554688 L 2.59375 -50.886719 L 4.261719 -49.957031 L 6.117188 -50.144531 L 14.921875 -49.957031 L 16.683594 -49.03125 L 17.703125 -47.179688 L 17.519531 -44.210938 L 17.703125 -41.617188 L 17.609375 -39.578125 L 17.703125 -37.722656 L 17.519531 -35.128906 L 17.796875 -21.316406 L 17.609375 -19.464844 L 17.519531 -11.957031 L 17.703125 -10.011719 L 17.609375 -4.632812 L 17.425781 -2.875 L 18.628906 -0.835938 L 21.316406 0.09375 Z M 26.230469 6.304688 L 31.976562 6.210938 L 33.644531 6.023438 L 37.445312 6.210938 L 39.300781 5.191406 L 40.042969 3.242188 L 40.226562 -7.785156 L 40.042969 -9.546875 L 40.042969 -22.894531 L 40.320312 -24.5625 L 39.949219 -29.011719 L 40.132812 -41.152344 L 40.78125 -42.914062 L 42.820312 -43.839844 L 46.25 -43.933594 L 48.199219 -43.75 L 53.480469 -43.933594 L 55.148438 -44.769531 L 55.984375 -46.621094 L 56.167969 -50.328125 L 55.796875 -54.128906 L 55.890625 -56.074219 L 55.242188 -57.746094 L 53.109375 -57.835938 L 52.277344 -56.074219 L 52.367188 -53.109375 L 52.183594 -51.441406 L 51.441406 -48.570312 L 49.496094 -47.640625 L 48.011719 -47.828125 L 45.972656 -47.457031 L 41.429688 -47.457031 L 39.023438 -47.734375 L 37.445312 -46.53125 L 36.425781 -45.046875 L 36.332031 -20.667969 L 36.519531 -19.1875 L 36.242188 -16.21875 L 36.519531 -9.730469 L 36.332031 -7.878906 L 36.613281 -2.222656 L 36.332031 -0.554688 L 35.5 1.667969 L 33.644531 2.59375 L 27.992188 2.316406 L 26.417969 2.59375 L 24.5625 3.523438 L 24.375 5.46875 Z M 8.527344 -46.621094 L 8.34375 -44.953125 L 10.382812 -44.027344 L 13.253906 -44.027344 L 15.199219 -44.953125 L 15.199219 -46.898438 L 13.347656 -47.917969 L 10.382812 -47.640625 Z M 8.527344 -46.621094 "/></g></g></g><g fill="#ffffff" fill-opacity="1"><g transform="translate(426.144138, 352.964976)"><g><path d="M 22.617188 -1.855469 L 24.007812 -0.09375 L 26.046875 0.554688 L 29.660156 0.554688 L 31.792969 -0.183594 L 33.273438 -2.039062 L 34.941406 -5.285156 L 36.242188 -8.992188 L 36.984375 -10.472656 L 37.445312 -12.328125 L 41.152344 -21.132812 L 41.523438 -22.707031 L 43.191406 -26.324219 L 43.75 -27.992188 L 44.488281 -28.085938 L 45.417969 -26.230469 L 45.878906 -24.65625 L 46.808594 -22.894531 L 47.640625 -21.132812 L 48.105469 -19.277344 L 49.589844 -15.941406 L 50.144531 -14.179688 L 51.535156 -10.75 L 52.554688 -8.898438 L 53.203125 -7.230469 L 53.574219 -5.46875 L 54.964844 -2.132812 L 56.632812 -0.09375 L 58.765625 0.742188 L 61.914062 0.554688 L 64.234375 -0.277344 L 65.808594 -1.945312 L 66.179688 -3.707031 L 67.847656 -7.136719 L 68.867188 -10.75 L 70.351562 -13.996094 L 71.554688 -17.703125 L 72.480469 -19.371094 L 72.851562 -21.132812 L 73.59375 -23.078125 L 74.335938 -25.765625 L 76.375 -30.03125 L 78.507812 -36.890625 L 79.527344 -38.652344 L 80.453125 -42.082031 L 81.289062 -43.933594 L 81.65625 -45.695312 L 82.585938 -47.363281 L 84.253906 -52.648438 L 85.273438 -54.222656 L 87.683594 -62.007812 L 87.3125 -64.234375 L 84.4375 -64.972656 L 74.335938 -64.789062 L 72.667969 -64.882812 L 70.535156 -63.863281 L 69.144531 -62.195312 L 68.683594 -60.339844 L 67.847656 -58.765625 L 66.273438 -53.296875 L 65.4375 -51.441406 L 64.972656 -49.773438 L 63.863281 -46.992188 L 59.785156 -30.957031 L 58.949219 -31.144531 L 58.671875 -32.8125 L 57.652344 -34.386719 L 57.375 -36.148438 L 54.035156 -45.046875 L 53.667969 -46.808594 L 52.832031 -48.660156 L 52.554688 -50.515625 L 48.660156 -61.175781 L 47.269531 -63.027344 L 44.859375 -63.863281 L 43.101562 -63.953125 L 41.0625 -62.933594 L 39.949219 -61.082031 L 38.28125 -57.464844 L 37.445312 -53.851562 L 34.851562 -47.085938 L 34.292969 -45.046875 L 32.253906 -39.855469 L 31.976562 -38.09375 L 31.328125 -36.332031 L 30.308594 -34.386719 L 30.03125 -32.8125 L 29.011719 -30.957031 L 28.457031 -30.863281 L 23.171875 -51.347656 L 22.246094 -53.109375 L 20.855469 -56.726562 L 20.484375 -58.671875 L 19.929688 -60.339844 L 19.464844 -62.195312 L 17.980469 -63.863281 L 15.664062 -64.972656 L 14.089844 -64.789062 L 8.25 -64.882812 L 6.765625 -64.695312 L 3.242188 -64.695312 L 1.296875 -64.046875 L 0.835938 -61.914062 L 1.296875 -59.503906 L 2.132812 -57.746094 L 3.242188 -54.316406 L 4.078125 -52.648438 L 4.542969 -50.699219 L 5.46875 -49.125 L 7.230469 -43.839844 L 8.0625 -42.082031 L 8.527344 -40.410156 L 9.363281 -38.558594 L 9.730469 -36.890625 L 11.863281 -31.792969 L 12.140625 -30.03125 L 13.070312 -28.085938 L 13.347656 -26.324219 L 20.207031 -8.992188 L 21.132812 -5.375 Z M 92.132812 -56.910156 L 91.855469 -59.042969 L 89.816406 -58.765625 L 88.515625 -57.003906 L 87.773438 -55.425781 L 86.753906 -51.8125 L 86.015625 -50.238281 L 85.550781 -48.476562 L 84.625 -46.714844 L 84.160156 -44.859375 L 83.417969 -43.285156 L 82.863281 -41.523438 L 81.9375 -39.761719 L 81.566406 -38.003906 L 79.617188 -32.8125 L 79.25 -30.957031 L 78.414062 -29.195312 L 77.578125 -27.714844 L 75.261719 -20.855469 L 74.335938 -19 L 72.109375 -11.863281 L 70.722656 -8.433594 L 70.257812 -6.765625 L 68.773438 -3.429688 L 68.21875 -1.390625 L 67.292969 0.09375 L 65.902344 1.945312 L 63.769531 2.78125 L 62.007812 2.6875 L 60.804688 3.800781 L 61.636719 5.652344 L 64.140625 6.671875 L 66.085938 6.582031 L 68.402344 5.839844 L 70.070312 4.171875 L 72.667969 -2.78125 L 73.128906 -4.542969 L 73.6875 -6.210938 L 74.519531 -7.972656 L 75.539062 -11.402344 L 76.375 -13.070312 L 78.042969 -18.167969 L 78.96875 -20.019531 L 80.175781 -23.542969 L 81.566406 -26.972656 L 82.492188 -30.308594 L 83.976562 -33.921875 L 84.53125 -35.59375 L 86.664062 -40.78125 L 88.238281 -45.878906 L 90 -49.496094 L 90.925781 -52.832031 L 91.761719 -54.40625 Z M 28.640625 -41.988281 L 29.476562 -40.78125 L 30.125 -41.339844 L 30.863281 -42.914062 L 31.050781 -45.417969 L 30.125 -49.589844 L 27.34375 -57.003906 L 25.765625 -58.855469 L 23.726562 -58.671875 L 23.542969 -56.816406 L 24.65625 -54.316406 Z M 58.394531 -40.597656 L 59.042969 -39.949219 L 59.875 -41.246094 L 60.433594 -44.210938 L 59.96875 -46.898438 L 59.320312 -48.847656 L 58.855469 -50.699219 L 57.003906 -55.796875 L 55.242188 -57.746094 L 53.109375 -57.835938 L 52.925781 -55.984375 L 53.574219 -54.5 L 53.945312 -52.738281 L 54.5 -51.070312 L 55.425781 -49.308594 Z M 45.230469 -15.015625 L 45.507812 -17.703125 L 45.324219 -20.484375 L 44.210938 -21.226562 L 43.378906 -20.207031 L 40.96875 -15.292969 L 38.003906 -6.488281 L 37.074219 -4.820312 L 34.757812 0.09375 L 33.367188 1.945312 L 31.328125 2.78125 L 29.753906 2.6875 L 28.269531 3.523438 L 29.289062 5.652344 L 32.71875 6.765625 L 36.242188 5.933594 L 37.910156 3.984375 L 38.652344 2.410156 L 39.671875 -1.203125 L 40.691406 -3.058594 L 42.449219 -8.15625 L 43.285156 -9.917969 L 44.488281 -13.441406 Z M 45.230469 -15.015625 "/></g></g></g><g fill="#ffffff" fill-opacity="1"><g transform="translate(514.568557, 352.964976)"><g><path d="M 4.449219 -2.6875 L 5.375 -0.742188 L 7.230469 -0.09375 L 34.757812 0.09375 L 36.519531 -0.835938 L 37.539062 -2.503906 L 37.539062 -4.542969 L 37.351562 -6.210938 L 37.632812 -11.863281 L 36.332031 -13.441406 L 30.125 -15.386719 L 29.105469 -17.238281 L 29.289062 -24.839844 L 28.917969 -28.546875 L 29.289062 -32.441406 L 29.105469 -35.222656 L 29.289062 -38.09375 L 29.105469 -39.855469 L 29.289062 -41.710938 L 29.105469 -43.65625 L 29.105469 -47.550781 L 30.125 -49.21875 L 31.882812 -50.238281 L 33.921875 -50.328125 L 35.683594 -51.347656 L 36.703125 -53.109375 L 36.703125 -58.578125 L 36.890625 -60.246094 L 36.703125 -62.101562 L 35.960938 -63.953125 L 32.996094 -64.789062 L 21.226562 -64.882812 L 19.1875 -64.695312 L 13.53125 -64.789062 L 11.769531 -64.695312 L 8.15625 -64.882812 L 6.117188 -63.953125 L 5.097656 -62.007812 L 5.097656 -60.246094 L 4.914062 -58.671875 L 4.914062 -56.632812 L 5.097656 -54.777344 L 5.097656 -53.015625 L 6.023438 -51.257812 L 11.679688 -49.308594 L 12.882812 -47.640625 L 12.605469 -39.761719 L 12.699219 -38.1875 L 12.976562 -36.054688 L 12.882812 -32.253906 L 12.699219 -30.402344 L 13.070312 -26.785156 L 12.605469 -24.933594 L 12.976562 -20.949219 L 12.789062 -17.332031 L 11.863281 -15.292969 L 5.746094 -13.347656 L 4.632812 -11.585938 L 4.449219 -9.824219 Z M 31.605469 -19.464844 L 32.253906 -17.609375 L 34.292969 -17.519531 L 35.035156 -19.371094 L 35.3125 -30.679688 L 35.035156 -32.253906 L 35.222656 -34.109375 L 35.035156 -37.910156 L 35.3125 -41.523438 L 35.960938 -43.5625 L 37.816406 -44.488281 L 39.949219 -44.398438 L 41.710938 -45.046875 L 42.636719 -46.898438 L 42.449219 -54.222656 L 42.636719 -56.074219 L 41.617188 -57.746094 L 40.042969 -57.835938 L 39.113281 -56.261719 L 38.929688 -52.277344 L 39.023438 -50.609375 L 38.1875 -48.847656 L 36.242188 -47.917969 L 34.292969 -48.011719 L 32.535156 -47.179688 L 31.421875 -45.230469 L 31.605469 -36.054688 L 31.234375 -33.367188 L 31.605469 -30.585938 Z M 11.492188 3.152344 L 11.492188 5.191406 L 13.160156 6.210938 L 15.109375 6.023438 L 16.960938 6.304688 L 18.910156 6.023438 L 39.761719 6.023438 L 42.449219 5.375 L 43.378906 3.523438 L 43.007812 -1.113281 L 43.378906 -5.5625 L 42.359375 -7.507812 L 40.410156 -7.601562 L 39.671875 -5.652344 L 39.855469 -1.945312 L 39.671875 -0.183594 L 38.929688 1.390625 L 37.074219 2.222656 L 23.171875 2.316406 L 20.667969 2.503906 L 18.722656 2.316406 L 16.777344 2.410156 L 15.015625 2.316406 L 13.253906 2.410156 Z M 11.492188 3.152344 "/></g></g></g><g fill="#ffffff" fill-opacity="1"><g transform="translate(556.648879, 352.964976)"><g><path d="M 17.796875 -2.875 L 18.539062 -0.925781 L 20.484375 0 L 22.246094 -0.183594 L 24.097656 0 L 25.859375 -0.183594 L 31.605469 -0.183594 L 33.460938 -0.925781 L 34.203125 -2.78125 L 34.109375 -4.542969 L 34.292969 -6.671875 L 34.203125 -10.382812 L 33.921875 -11.957031 L 34.203125 -13.902344 L 34.386719 -19.558594 L 34.203125 -21.226562 L 34.480469 -25.117188 L 34.109375 -43.5625 L 34.386719 -45.417969 L 34.203125 -47.457031 L 34.941406 -49.125 L 36.984375 -49.957031 L 38.558594 -50.050781 L 40.410156 -49.957031 L 42.082031 -50.144531 L 47.179688 -50.050781 L 49.308594 -50.886719 L 50.238281 -52.738281 L 50.050781 -54.6875 L 50.238281 -62.285156 L 49.308594 -64.140625 L 47.457031 -65.066406 L 45.230469 -64.882812 L 43.75 -65.066406 L 41.988281 -65.066406 L 39.949219 -64.789062 L 38.09375 -64.789062 L 36.242188 -64.972656 L 34.386719 -64.972656 L 32.253906 -64.695312 L 4.632812 -64.882812 L 2.59375 -63.953125 L 1.667969 -62.101562 L 1.574219 -52.832031 L 2.59375 -50.792969 L 4.449219 -49.867188 L 6.859375 -50.144531 L 15.109375 -50.050781 L 16.777344 -49.03125 L 17.703125 -47.269531 L 17.980469 -37.074219 L 17.703125 -34.203125 L 17.890625 -32.441406 L 17.703125 -30.585938 L 17.703125 -26.878906 L 17.980469 -24.191406 L 17.609375 -21.410156 L 17.703125 -19.558594 L 17.609375 -17.609375 L 17.890625 -11.957031 L 17.703125 -10.101562 Z M 24.746094 3.335938 L 24.65625 5.097656 L 27.4375 6.210938 L 32.253906 5.839844 L 33.921875 6.117188 L 37.351562 6.210938 L 39.207031 5.191406 L 40.503906 3.335938 L 40.226562 1.484375 L 40.132812 -0.464844 L 40.410156 -2.222656 L 40.132812 -9.730469 L 40.226562 -11.492188 L 40.132812 -13.441406 L 40.320312 -17.148438 L 40.042969 -19.09375 L 40.410156 -20.855469 L 40.320312 -22.617188 L 40.410156 -24.46875 L 40.042969 -30.214844 L 40.320312 -31.976562 L 40.042969 -33.832031 L 40.132812 -41.246094 L 41.0625 -43.191406 L 42.820312 -44.121094 L 46.53125 -44.210938 L 50.144531 -43.933594 L 53.480469 -44.027344 L 55.242188 -45.046875 L 56.074219 -46.808594 L 56.167969 -48.753906 L 55.984375 -50.421875 L 56.167969 -56.261719 L 55.242188 -57.929688 L 53.574219 -58.023438 L 52.460938 -56.167969 L 52.277344 -54.222656 L 52.367188 -52.460938 L 52.277344 -50.515625 L 51.441406 -48.753906 L 49.679688 -47.640625 L 48.289062 -47.734375 L 46.160156 -47.640625 L 42.914062 -47.917969 L 41.0625 -47.734375 L 39.390625 -47.828125 L 37.539062 -46.898438 L 36.703125 -44.953125 L 36.242188 -31.050781 L 36.519531 -28.457031 L 36.519531 -26.601562 L 36.796875 -24.65625 L 36.425781 -22.523438 L 36.703125 -18.910156 L 36.425781 -17.238281 L 36.796875 -9.730469 L 36.425781 -7.972656 L 36.425781 -0.371094 L 35.5 1.390625 L 33.738281 2.222656 L 28.085938 2.503906 L 26.417969 2.410156 Z M 8.25 -46.621094 L 8.0625 -44.953125 L 10.101562 -44.027344 L 12.976562 -44.027344 L 14.921875 -44.953125 L 14.921875 -46.898438 L 13.070312 -47.917969 L 10.101562 -47.640625 Z M 8.25 -46.621094 "/></g></g></g><g fill="#ffffff" fill-opacity="1"><g transform="translate(608.461471, 352.964976)"><g><path d="M 17.796875 -2.875 L 18.539062 -0.925781 L 20.484375 0 L 22.246094 -0.183594 L 24.097656 0 L 25.859375 -0.183594 L 31.605469 -0.183594 L 33.460938 -0.925781 L 34.203125 -2.78125 L 34.109375 -4.542969 L 34.292969 -6.671875 L 34.203125 -10.382812 L 33.921875 -11.957031 L 34.203125 -13.902344 L 34.386719 -19.558594 L 34.203125 -21.226562 L 34.480469 -25.117188 L 34.109375 -43.5625 L 34.386719 -45.417969 L 34.203125 -47.457031 L 34.941406 -49.125 L 36.984375 -49.957031 L 38.558594 -50.050781 L 40.410156 -49.957031 L 42.082031 -50.144531 L 47.179688 -50.050781 L 49.308594 -50.886719 L 50.238281 -52.738281 L 50.050781 -54.6875 L 50.238281 -62.285156 L 49.308594 -64.140625 L 47.457031 -65.066406 L 45.230469 -64.882812 L 43.75 -65.066406 L 41.988281 -65.066406 L 39.949219 -64.789062 L 38.09375 -64.789062 L 36.242188 -64.972656 L 34.386719 -64.972656 L 32.253906 -64.695312 L 4.632812 -64.882812 L 2.59375 -63.953125 L 1.667969 -62.101562 L 1.574219 -52.832031 L 2.59375 -50.792969 L 4.449219 -49.867188 L 6.859375 -50.144531 L 15.109375 -50.050781 L 16.777344 -49.03125 L 17.703125 -47.269531 L 17.980469 -37.074219 L 17.703125 -34.203125 L 17.890625 -32.441406 L 17.703125 -30.585938 L 17.703125 -26.878906 L 17.980469 -24.191406 L 17.609375 -21.410156 L 17.703125 -19.558594 L 17.609375 -17.609375 L 17.890625 -11.957031 L 17.703125 -10.101562 Z M 24.746094 3.335938 L 24.65625 5.097656 L 27.4375 6.210938 L 32.253906 5.839844 L 33.921875 6.117188 L 37.351562 6.210938 L 39.207031 5.191406 L 40.503906 3.335938 L 40.226562 1.484375 L 40.132812 -0.464844 L 40.410156 -2.222656 L 40.132812 -9.730469 L 40.226562 -11.492188 L 40.132812 -13.441406 L 40.320312 -17.148438 L 40.042969 -19.09375 L 40.410156 -20.855469 L 40.320312 -22.617188 L 40.410156 -24.46875 L 40.042969 -30.214844 L 40.320312 -31.976562 L 40.042969 -33.832031 L 40.132812 -41.246094 L 41.0625 -43.191406 L 42.820312 -44.121094 L 46.53125 -44.210938 L 50.144531 -43.933594 L 53.480469 -44.027344 L 55.242188 -45.046875 L 56.074219 -46.808594 L 56.167969 -48.753906 L 55.984375 -50.421875 L 56.167969 -56.261719 L 55.242188 -57.929688 L 53.574219 -58.023438 L 52.460938 -56.167969 L 52.277344 -54.222656 L 52.367188 -52.460938 L 52.277344 -50.515625 L 51.441406 -48.753906 L 49.679688 -47.640625 L 48.289062 -47.734375 L 46.160156 -47.640625 L 42.914062 -47.917969 L 41.0625 -47.734375 L 39.390625 -47.828125 L 37.539062 -46.898438 L 36.703125 -44.953125 L 36.242188 -31.050781 L 36.519531 -28.457031 L 36.519531 -26.601562 L 36.796875 -24.65625 L 36.425781 -22.523438 L 36.703125 -18.910156 L 36.425781 -17.238281 L 36.796875 -9.730469 L 36.425781 -7.972656 L 36.425781 -0.371094 L 35.5 1.390625 L 33.738281 2.222656 L 28.085938 2.503906 L 26.417969 2.410156 Z M 8.25 -46.621094 L 8.0625 -44.953125 L 10.101562 -44.027344 L 12.976562 -44.027344 L 14.921875 -44.953125 L 14.921875 -46.898438 L 13.070312 -47.917969 L 10.101562 -47.640625 Z M 8.25 -46.621094 "/></g></g></g><g fill="#ffffff" fill-opacity="1"><g transform="translate(660.274062, 352.964976)"><g><path d="M 6.671875 -2.6875 L 7.878906 -0.925781 L 9.640625 0.09375 L 30.585938 -0.09375 L 32.253906 0.183594 L 37.910156 -0.09375 L 43.5625 0.277344 L 45.324219 0.09375 L 47.269531 -0.835938 L 48.105469 -2.59375 L 48.289062 -4.355469 L 48.199219 -10.101562 L 48.382812 -11.863281 L 47.179688 -13.71875 L 44.398438 -14.644531 L 32.164062 -14.828125 L 30.402344 -14.550781 L 28.363281 -14.738281 L 26.324219 -14.550781 L 24.375 -15.664062 L 23.542969 -18.539062 L 23.636719 -23.078125 L 24.46875 -25.027344 L 26.136719 -26.046875 L 29.753906 -26.046875 L 31.605469 -26.230469 L 36.519531 -25.953125 L 39.023438 -26.136719 L 40.96875 -25.953125 L 42.636719 -26.046875 L 44.488281 -27.066406 L 45.417969 -28.824219 L 45.601562 -36.148438 L 45.417969 -38.003906 L 44.582031 -39.761719 L 43.007812 -40.78125 L 39.300781 -40.875 L 37.445312 -40.691406 L 35.5 -40.691406 L 33.367188 -40.875 L 26.046875 -40.78125 L 24.46875 -41.800781 L 23.355469 -43.46875 L 23.171875 -46.34375 L 24.097656 -49.03125 L 26.972656 -49.867188 L 44.769531 -49.957031 L 46.714844 -50.976562 L 47.734375 -52.648438 L 47.550781 -56.445312 L 47.269531 -58.207031 L 47.363281 -60.246094 L 47.640625 -62.007812 L 46.714844 -63.863281 L 44.769531 -64.695312 L 37.351562 -64.789062 L 35.683594 -64.601562 L 33.832031 -64.882812 L 29.753906 -64.695312 L 27.898438 -64.882812 L 24.285156 -64.789062 L 22.617188 -64.972656 L 10.472656 -64.695312 L 7.785156 -64.046875 L 6.859375 -62.007812 L 7.042969 -58.300781 L 6.671875 -55.613281 L 7.042969 -50.886719 L 6.859375 -48.9375 L 7.042969 -47.269531 L 7.042969 -30.679688 L 6.765625 -28.734375 L 7.042969 -25.117188 L 6.859375 -21.410156 L 7.136719 -19.464844 L 6.953125 -17.425781 L 7.042969 -15.664062 L 6.765625 -13.996094 L 6.953125 -11.863281 L 6.953125 -10.011719 L 7.136719 -6.394531 L 7.042969 -4.542969 Z M 26.695312 -46.53125 L 26.878906 -44.304688 L 28.734375 -43.191406 L 30.496094 -43.839844 L 37.722656 -43.839844 L 40.503906 -44.121094 L 47.085938 -43.839844 L 50.050781 -44.027344 L 52.554688 -45.046875 L 53.386719 -46.714844 L 53.757812 -50.515625 L 53.480469 -52.183594 L 53.574219 -56.167969 L 52.648438 -57.929688 L 50.699219 -57.746094 L 49.773438 -55.890625 L 49.867188 -50.515625 L 49.03125 -48.660156 L 46.898438 -47.734375 L 45.140625 -47.550781 L 35.871094 -47.734375 L 34.203125 -47.550781 L 30.125 -47.734375 L 28.269531 -47.640625 Z M 25.765625 -19.371094 L 26.601562 -17.703125 L 28.546875 -17.890625 L 30.308594 -19.371094 L 33.183594 -20.019531 L 36.054688 -20.113281 L 37.722656 -19.929688 L 39.761719 -19.929688 L 41.152344 -20.113281 L 43.007812 -20.207031 L 45.140625 -20.019531 L 48.753906 -20.113281 L 50.515625 -20.949219 L 51.347656 -22.894531 L 51.8125 -26.417969 L 51.441406 -30.957031 L 50.699219 -33.832031 L 48.753906 -33.738281 L 47.828125 -31.976562 L 48.011719 -30.03125 L 47.828125 -28.363281 L 47.828125 -26.324219 L 47.179688 -24.65625 L 45.230469 -23.726562 L 34.015625 -23.636719 L 32.070312 -23.914062 L 28.363281 -23.914062 L 26.785156 -22.894531 L 26.046875 -21.132812 Z M 13.902344 3.335938 L 14.089844 5.097656 L 15.941406 6.117188 L 17.703125 6.023438 L 23.355469 6.304688 L 25.117188 6.117188 L 36.425781 6.023438 L 38.464844 6.304688 L 51.8125 6.304688 L 53.296875 5.285156 L 54.5 3.242188 L 54.316406 -5.933594 L 53.296875 -7.601562 L 51.535156 -7.691406 L 50.886719 -5.933594 L 50.609375 -3.894531 L 50.792969 -2.410156 L 50.515625 -0.464844 L 49.773438 1.574219 L 48.011719 2.316406 L 30.679688 2.503906 L 28.917969 2.316406 L 26.878906 2.316406 L 25.304688 2.503906 L 20.578125 2.222656 L 15.757812 2.503906 Z M 13.902344 3.335938 "/></g></g></g><g fill="#ffffff" fill-opacity="1"><g transform="translate(713.384278, 352.964976)"><g><path d="M 7.136719 -2.964844 L 7.785156 -0.925781 L 9.640625 0 L 11.402344 0.09375 L 15.199219 -0.183594 L 17.148438 0 L 19.929688 0 L 22.800781 -0.925781 L 23.449219 -2.6875 L 23.636719 -4.632812 L 23.265625 -6.582031 L 23.542969 -10.566406 L 23.355469 -16.3125 L 24.191406 -18.167969 L 26.046875 -19.09375 L 27.714844 -19.09375 L 29.382812 -19.1875 L 31.699219 -18.445312 L 33.183594 -16.871094 L 35.59375 -13.625 L 36.242188 -11.863281 L 38.835938 -7.230469 L 40.042969 -5.46875 L 40.875 -3.894531 L 41.988281 -2.410156 L 43.839844 -0.742188 L 46.160156 -0.183594 L 49.496094 0 L 51.535156 -0.183594 L 53.386719 0 L 57.097656 0 L 59.136719 -0.183594 L 61.082031 -0.648438 L 61.453125 -2.59375 L 60.246094 -4.914062 L 57.28125 -9.453125 L 56.445312 -11.03125 L 55.335938 -12.699219 L 54.40625 -14.367188 L 53.203125 -15.851562 L 50.421875 -20.667969 L 50.144531 -22.894531 L 51.164062 -24.839844 L 53.757812 -27.34375 L 54.871094 -28.917969 L 55.519531 -30.679688 L 56.539062 -32.347656 L 57.1875 -33.921875 L 58.207031 -37.445312 L 58.300781 -44.769531 L 57.835938 -46.53125 L 57.558594 -48.289062 L 57.097656 -50.144531 L 54.59375 -55.242188 L 53.296875 -56.632812 L 52.460938 -58.023438 L 47.828125 -61.542969 L 44.582031 -63.214844 L 36.890625 -64.789062 L 34.574219 -64.972656 L 31.882812 -64.882812 L 29.84375 -64.972656 L 27.992188 -64.789062 L 25.953125 -64.972656 L 24.375 -64.789062 L 18.816406 -64.972656 L 17.054688 -64.695312 L 13.253906 -65.066406 L 11.492188 -64.789062 L 9.453125 -64.882812 L 7.691406 -64.046875 L 6.953125 -62.101562 L 6.671875 -36.148438 L 6.953125 -33.460938 L 6.953125 -28.824219 L 6.765625 -26.878906 L 6.671875 -23.355469 L 6.953125 -21.316406 L 6.671875 -17.519531 L 7.042969 -12.140625 L 6.859375 -10.195312 Z M 26.046875 -34.109375 L 24.46875 -34.941406 L 23.542969 -36.890625 L 23.265625 -47.269531 L 24.375 -49.125 L 26.230469 -50.050781 L 27.714844 -50.144531 L 32.8125 -50.050781 L 37.074219 -49.496094 L 39.949219 -47.734375 L 40.875 -46.34375 L 41.523438 -44.859375 L 41.710938 -42.171875 L 41.429688 -39.671875 L 40.691406 -37.816406 L 39.671875 -36.242188 L 38.558594 -35.128906 L 37.167969 -34.480469 L 29.9375 -33.832031 L 28.085938 -34.109375 Z M 61.175781 -48.105469 L 60.433594 -48.753906 L 60.0625 -47.640625 L 60.617188 -45.972656 L 60.894531 -44.121094 L 60.804688 -37.074219 L 60.433594 -35.222656 L 58.765625 -30.03125 L 57.097656 -26.972656 L 55.890625 -25.582031 L 54.5 -24.285156 L 53.574219 -22.058594 L 54.128906 -19.929688 L 55.242188 -18.351562 L 55.984375 -16.871094 L 56.726562 -15.199219 L 59.96875 -10.566406 L 60.710938 -8.898438 L 61.824219 -7.230469 L 62.65625 -5.839844 L 63.675781 -3.242188 L 63.769531 -0.648438 L 62.84375 1.390625 L 61.082031 2.316406 L 49.867188 2.222656 L 48.660156 3.242188 L 49.496094 4.914062 L 52.738281 5.839844 L 56.726562 6.023438 L 59.503906 5.746094 L 61.175781 5.933594 L 63.214844 5.839844 L 65.53125 4.914062 L 67.476562 2.132812 L 67.753906 -0.925781 L 67.105469 -3.894531 L 65.53125 -8.0625 L 63.492188 -11.308594 L 62.75 -13.070312 L 61.542969 -14.550781 L 59.042969 -19.648438 L 58.578125 -21.875 L 59.136719 -24.007812 L 62.933594 -30.496094 L 63.769531 -34.203125 L 63.863281 -36.890625 L 64.234375 -39.578125 L 63.398438 -43.285156 L 62.5625 -44.859375 L 61.914062 -46.4375 Z M 25.859375 -39.207031 L 26.695312 -37.539062 L 28.734375 -37.351562 L 30.496094 -43.191406 L 32.71875 -44.210938 L 37.261719 -44.121094 L 38.652344 -44.582031 L 38.371094 -46.066406 L 36.703125 -47.085938 L 34.015625 -47.734375 L 28.640625 -47.828125 L 26.695312 -46.714844 L 25.859375 -45.046875 Z M 13.808594 3.152344 L 13.808594 5.003906 L 15.664062 5.933594 L 25.675781 5.839844 L 28.546875 4.914062 L 29.289062 3.152344 L 29.566406 -10.472656 L 31.328125 -13.996094 L 30.214844 -15.757812 L 28.175781 -16.777344 L 26.601562 -15.941406 L 25.859375 -12.976562 L 25.953125 -10.195312 L 25.675781 -8.15625 L 25.765625 -6.394531 L 25.675781 -4.449219 L 25.859375 -1.574219 L 24.933594 1.296875 L 23.171875 2.316406 L 15.664062 2.222656 Z M 13.808594 3.152344 "/></g></g></g></svg>