<svg xmlns="http://www.w3.org/2000/svg" xmlns:xlink="http://www.w3.org/1999/xlink" width="1536" zoomAndPan="magnify" viewBox="0 0 1152 647.999998" height="864" preserveAspectRatio="xMidYMid meet" version="1.0"><defs><g/></defs><g fill="#ffffff" fill-opacity="1"><g transform="translate(9.98301, 518.34429)"><g><path d="M 161.332031 -4.375 L 169.261719 -0.820312 L 176.371094 1.367188 L 182.660156 -1.640625 L 185.121094 -7.382812 L 186.488281 -81.761719 L 185.394531 -89.417969 L 185.941406 -95.433594 L 184.847656 -128.246094 L 185.667969 -139.183594 L 185.121094 -144.378906 L 185.121094 -155.316406 L 186.214844 -160.785156 L 185.667969 -168.988281 L 186.214844 -183.207031 L 182.933594 -188.128906 L 176.917969 -190.863281 L 171.449219 -191.410156 L 166.253906 -191.410156 L 160.238281 -190.863281 L 154.496094 -191.683594 L 149.574219 -191.136719 L 144.105469 -191.410156 L 137.542969 -188.675781 L 134.808594 -182.933594 L 134.535156 -133.167969 L 135.628906 -127.425781 L 135.628906 -122.230469 L 134.535156 -116.488281 L 134.808594 -105.550781 L 133.441406 -101.175781 L 129.613281 -102.269531 L 117.582031 -114.574219 L 113.480469 -117.855469 L 103.910156 -127.699219 L 99.535156 -130.980469 L 96.527344 -134.808594 L 90.785156 -140.824219 L 82.308594 -147.933594 L 79.296875 -152.035156 L 74.101562 -155.589844 L 71.367188 -159.691406 L 66.71875 -162.972656 L 63.164062 -167.621094 L 48.398438 -182.660156 L 37.460938 -190.042969 L 30.078125 -192.230469 L 23.515625 -188.949219 L 19.960938 -183.753906 L 20.507812 -145.472656 L 19.960938 -140.003906 L 20.78125 -128.792969 L 20.234375 -123.871094 L 20.507812 -118.128906 L 19.6875 -112.386719 L 20.78125 -73.28125 L 20.234375 -68.359375 L 20.234375 -63.164062 L 19.6875 -57.148438 L 19.6875 -51.953125 L 20.507812 -46.210938 L 20.234375 -35 L 20.78125 -29.53125 L 19.960938 -19.140625 L 20.78125 -13.671875 L 20.78125 -8.476562 L 23.242188 -2.460938 L 28.4375 0.546875 L 37.734375 0 L 51.40625 0.820312 L 57.148438 0 L 63.4375 0.546875 L 68.90625 -2.1875 L 71.367188 -7.65625 L 70.546875 -13.125 L 71.367188 -80.117188 L 70.273438 -85.863281 L 73.007812 -89.144531 L 76.5625 -88.324219 L 115.667969 -50.039062 L 120.042969 -46.484375 L 146.566406 -19.960938 L 150.121094 -15.585938 L 154.496094 -12.03125 L 157.777344 -7.929688 Z M 183.207031 7.929688 L 179.105469 9.296875 L 180.199219 13.398438 L 186.761719 17.226562 L 194.417969 16.132812 L 199.886719 12.851562 L 202.347656 7.109375 L 202.074219 2.460938 L 202.621094 -1.09375 L 202.621094 -39.375 L 203.167969 -44.570312 L 202.074219 -50.039062 L 202.347656 -55.507812 L 202.074219 -61.523438 L 202.347656 -66.171875 L 202.074219 -71.914062 L 203.167969 -93.792969 L 202.347656 -99.261719 L 202.621094 -104.730469 L 201.800781 -110.746094 L 202.621094 -124.144531 L 202.347656 -132.074219 L 202.894531 -137.816406 L 202.074219 -143.558594 L 202.621094 -151.761719 L 202.074219 -164.886719 L 199.339844 -170.628906 L 195.511719 -171.449219 L 192.777344 -165.160156 L 192.777344 -149.027344 L 191.957031 -143.558594 L 192.503906 -137.816406 L 191.683594 -127.152344 L 192.777344 -121.957031 L 191.957031 -115.667969 L 193.324219 -104.457031 L 192.503906 -99.261719 L 192.230469 -93.519531 L 192.503906 -88.871094 L 191.683594 -77.65625 L 193.050781 -66.71875 L 192.230469 -0.546875 L 189.496094 4.921875 Z M 89.144531 -58.242188 L 83.402344 -71.914062 L 79.570312 -72.734375 L 77.65625 -68.90625 L 78.476562 -50.039062 L 77.65625 -41.289062 L 78.203125 -27.34375 L 77.382812 -21.328125 L 77.109375 -13.398438 L 78.203125 -7.382812 L 77.929688 -1.640625 L 75.46875 4.375 L 69.726562 6.835938 L 57.96875 6.5625 L 52.773438 7.109375 L 46.484375 7.109375 L 41.015625 9.296875 L 40.195312 14.765625 L 45.9375 17.773438 L 52.226562 17.5 L 57.96875 18.320312 L 71.914062 17.226562 L 76.835938 17.773438 L 85.863281 15.039062 L 88.324219 9.023438 L 89.144531 3.007812 L 88.597656 -1.914062 L 89.417969 -13.398438 L 89.144531 -24.335938 L 88.324219 -30.625 L 88.597656 -47.304688 L 89.144531 -52.5 Z M 89.144531 -58.242188 "/></g></g></g><g fill="#ffffff" fill-opacity="1"><g transform="translate(216.153757, 518.34429)"><g><path d="M 102.269531 3.28125 L 117.582031 3.007812 L 133.988281 0.820312 L 154.496094 -6.015625 L 163.519531 -10.9375 L 167.621094 -14.21875 L 172.816406 -16.679688 L 180.472656 -23.242188 L 184.027344 -28.164062 L 187.855469 -31.992188 L 199.886719 -50.3125 L 203.988281 -60.703125 L 206.175781 -71.09375 L 206.449219 -76.015625 L 207.816406 -81.488281 L 208.089844 -87.230469 L 209.183594 -95.160156 L 208.363281 -108.832031 L 206.449219 -120.042969 L 199.613281 -140.550781 L 194.417969 -150.667969 L 188.402344 -158.871094 L 180.746094 -167.347656 L 172.816406 -174.183594 L 166.527344 -178.558594 L 158.324219 -182.113281 L 154.222656 -185.121094 L 133.167969 -191.683594 L 117.308594 -194.417969 L 109.925781 -194.691406 L 80.9375 -190.589844 L 60.429688 -182.933594 L 56.328125 -179.925781 L 51.40625 -177.464844 L 42.109375 -170.628906 L 28.710938 -155.042969 L 20.234375 -140.550781 L 16.132812 -130.160156 L 11.484375 -109.105469 L 10.664062 -86.957031 L 11.484375 -81.214844 L 12.851562 -76.289062 L 13.398438 -71.09375 L 15.859375 -60.703125 L 28.4375 -35.820312 L 31.71875 -32.539062 L 35.273438 -28.164062 L 39.375 -24.335938 L 42.382812 -20.78125 L 51.40625 -13.671875 L 72.734375 -2.734375 L 80.664062 0 L 86.683594 0.546875 L 96.527344 2.734375 Z M 117.582031 -45.117188 L 102.542969 -45.117188 L 96.527344 -45.9375 L 86.683594 -50.039062 L 82.308594 -52.5 L 74.921875 -58.515625 L 71.367188 -62.34375 L 67.539062 -67.539062 L 66.171875 -71.914062 L 63.710938 -76.835938 L 61.523438 -86.957031 L 61.523438 -103.636719 L 62.890625 -108.558594 L 63.710938 -113.753906 L 65.898438 -118.675781 L 67.539062 -123.597656 L 74.101562 -132.347656 L 87.777344 -141.644531 L 91.332031 -143.011719 L 101.996094 -145.746094 L 109.652344 -146.292969 L 122.777344 -144.652344 L 127.699219 -143.558594 L 132.621094 -141.371094 L 141.097656 -135.355469 L 151.761719 -124.144531 L 155.042969 -113.753906 L 157.503906 -108.558594 L 158.324219 -103.636719 L 157.777344 -86.957031 L 155.589844 -76.835938 L 153.675781 -71.914062 L 150.667969 -66.992188 L 149.027344 -62.890625 L 145.199219 -58.515625 L 132.074219 -49.492188 L 127.152344 -48.125 L 123.050781 -46.210938 Z M 69.453125 -90.511719 L 71.640625 -79.023438 L 75.46875 -69.726562 L 77.109375 -73.28125 L 76.835938 -82.582031 L 79.023438 -96.527344 L 83.949219 -110.746094 L 91.058594 -119.222656 L 96.800781 -124.144531 L 103.910156 -127.699219 L 109.378906 -129.339844 L 114.574219 -130.433594 L 122.503906 -130.980469 L 127.152344 -131.253906 L 131.800781 -132.074219 L 122.503906 -137.269531 L 113.207031 -138.910156 L 108.832031 -138.089844 L 101.449219 -137.816406 L 96.527344 -136.449219 L 91.878906 -134.261719 L 83.128906 -127.699219 L 78.75 -123.324219 L 73.007812 -114.300781 L 70 -98.714844 Z M 214.378906 -101.996094 L 215.472656 -92.152344 L 214.378906 -76.289062 L 213.011719 -70.546875 L 212.738281 -64.53125 L 203.714844 -39.648438 L 190.042969 -21.328125 L 182.386719 -13.671875 L 174.183594 -7.382812 L 168.714844 -5.195312 L 164.613281 -2.460938 L 154.769531 2.460938 L 149.847656 4.375 L 133.988281 8.203125 L 115.394531 9.570312 L 92.699219 8.476562 L 86.683594 7.382812 L 83.675781 7.929688 L 85.863281 10.664062 L 96.253906 12.851562 L 101.449219 14.765625 L 114.300781 16.40625 L 133.988281 16.679688 L 153.402344 13.398438 L 161.058594 10.390625 L 166.527344 9.296875 L 170.355469 6.5625 L 185.121094 -1.640625 L 193.324219 -8.75 L 197.152344 -13.398438 L 201.527344 -16.953125 L 210.550781 -31.171875 L 217.386719 -45.9375 L 219.027344 -57.148438 L 220.941406 -62.617188 L 222.035156 -81.761719 L 221.761719 -90.238281 L 222.035156 -95.160156 L 220.121094 -100.902344 L 220.121094 -105.824219 L 215.472656 -121.410156 L 213.832031 -123.871094 L 212.738281 -121.136719 Z M 215.746094 -87.777344 L 214.925781 -86.410156 L 216.019531 -88.597656 Z M 215.746094 -87.777344 "/></g></g></g><g fill="#ffffff" fill-opacity="1"><g transform="translate(435.449455, 518.34429)"><g><path d="M 52.5 -8.476562 L 54.6875 -2.734375 L 60.429688 0 L 65.625 -0.546875 L 71.09375 0 L 76.289062 -0.546875 L 93.246094 -0.546875 L 98.714844 -2.734375 L 100.902344 -8.203125 L 100.628906 -13.398438 L 101.175781 -19.6875 L 100.902344 -30.625 L 100.082031 -35.273438 L 100.902344 -41.015625 L 101.449219 -57.695312 L 100.902344 -62.617188 L 101.722656 -74.101562 L 100.628906 -128.519531 L 101.449219 -133.988281 L 100.902344 -140.003906 L 103.089844 -144.925781 L 109.105469 -147.386719 L 113.753906 -147.660156 L 119.222656 -147.386719 L 124.144531 -147.933594 L 139.183594 -147.660156 L 145.472656 -150.121094 L 148.207031 -155.589844 L 147.660156 -161.332031 L 148.207031 -183.753906 L 145.472656 -189.222656 L 140.003906 -191.957031 L 133.441406 -191.410156 L 129.066406 -191.957031 L 123.871094 -191.957031 L 117.855469 -191.136719 L 112.386719 -191.136719 L 106.917969 -191.683594 L 101.449219 -191.683594 L 95.160156 -190.863281 L 13.671875 -191.410156 L 7.65625 -188.675781 L 4.921875 -183.207031 L 4.648438 -155.863281 L 7.65625 -149.847656 L 13.125 -147.113281 L 20.234375 -147.933594 L 44.570312 -147.660156 L 49.492188 -144.652344 L 52.226562 -139.457031 L 53.046875 -109.378906 L 52.226562 -100.902344 L 52.773438 -95.707031 L 52.226562 -90.238281 L 52.226562 -79.296875 L 53.046875 -71.367188 L 51.953125 -63.164062 L 52.226562 -57.695312 L 51.953125 -51.953125 L 52.773438 -35.273438 L 52.226562 -29.804688 Z M 73.007812 9.84375 L 72.734375 15.039062 L 80.9375 18.320312 L 95.160156 17.226562 L 100.082031 18.046875 L 110.199219 18.320312 L 115.667969 15.3125 L 119.496094 9.84375 L 118.675781 4.375 L 118.402344 -1.367188 L 119.222656 -6.5625 L 118.402344 -28.710938 L 118.675781 -33.90625 L 118.402344 -39.648438 L 118.949219 -50.585938 L 118.128906 -56.328125 L 119.222656 -61.523438 L 118.949219 -66.71875 L 119.222656 -72.1875 L 118.128906 -89.144531 L 118.949219 -94.339844 L 118.128906 -99.808594 L 118.402344 -121.683594 L 121.136719 -127.425781 L 126.332031 -130.160156 L 137.269531 -130.433594 L 147.933594 -129.613281 L 157.777344 -129.886719 L 162.972656 -132.894531 L 165.433594 -138.089844 L 165.707031 -143.832031 L 165.160156 -148.753906 L 165.707031 -165.980469 L 162.972656 -170.902344 L 158.050781 -171.175781 L 154.769531 -165.707031 L 154.222656 -159.964844 L 154.496094 -154.769531 L 154.222656 -149.027344 L 151.761719 -143.832031 L 146.566406 -140.550781 L 142.464844 -140.824219 L 136.175781 -140.550781 L 126.605469 -141.371094 L 121.136719 -140.824219 L 116.214844 -141.097656 L 110.746094 -138.363281 L 108.285156 -132.621094 L 106.917969 -91.605469 L 107.738281 -83.949219 L 107.738281 -78.476562 L 108.558594 -72.734375 L 107.464844 -66.445312 L 108.285156 -55.78125 L 107.464844 -50.859375 L 108.558594 -28.710938 L 107.464844 -23.515625 L 107.464844 -1.09375 L 104.730469 4.101562 L 99.535156 6.5625 L 82.855469 7.382812 L 77.929688 7.109375 Z M 24.335938 -137.542969 L 23.789062 -132.621094 L 29.804688 -129.886719 L 38.28125 -129.886719 L 44.023438 -132.621094 L 44.023438 -138.363281 L 38.554688 -141.371094 L 29.804688 -140.550781 Z M 24.335938 -137.542969 "/></g></g></g><g fill="#ffffff" fill-opacity="1"><g transform="translate(588.30017, 518.34429)"><g><path d="M 19.960938 -7.65625 L 22.695312 -2.460938 L 31.171875 0.546875 L 61.25 0.273438 L 66.71875 -2.460938 L 70.273438 -10.9375 L 70 -19.414062 L 70.546875 -25.15625 L 69.726562 -36.914062 L 70 -42.109375 L 69.726562 -47.304688 L 70.273438 -53.046875 L 72.734375 -58.789062 L 80.9375 -61.523438 L 123.597656 -61.796875 L 128.792969 -64.257812 L 131.800781 -69.726562 L 131.527344 -75.742188 L 132.074219 -92.152344 L 131.253906 -97.347656 L 128.519531 -103.089844 L 120.316406 -105.824219 L 78.75 -105.824219 L 72.460938 -108.011719 L 69.453125 -112.933594 L 69.453125 -129.066406 L 70.273438 -134.808594 L 70 -139.457031 L 72.734375 -144.925781 L 80.664062 -147.660156 L 88.597656 -147.386719 L 96.527344 -147.933594 L 109.925781 -147.113281 L 115.394531 -147.660156 L 126.605469 -147.113281 L 132.074219 -147.933594 L 137.269531 -150.394531 L 139.183594 -155.863281 L 139.183594 -161.058594 L 139.730469 -166.527344 L 139.183594 -171.722656 L 139.730469 -177.464844 L 139.183594 -183.207031 L 136.449219 -188.402344 L 131.527344 -190.863281 L 124.964844 -191.683594 L 115.121094 -190.863281 L 109.378906 -191.136719 L 103.636719 -190.863281 L 98.441406 -191.410156 L 93.246094 -190.863281 L 27.890625 -190.863281 L 22.695312 -188.128906 L 19.6875 -182.933594 L 20.78125 -150.121094 L 20.234375 -144.925781 L 19.960938 -106.097656 L 20.78125 -101.175781 L 20.234375 -95.980469 L 20.234375 -90.511719 L 19.6875 -84.496094 L 20.78125 -76.015625 L 19.960938 -19.414062 L 20.507812 -13.125 Z M 77.109375 -123.324219 L 79.570312 -114.847656 L 84.222656 -115.121094 L 87.777344 -121.136719 L 90.238281 -126.605469 L 94.886719 -129.886719 L 100.355469 -129.339844 L 105.824219 -129.886719 L 112.113281 -129.613281 L 117.035156 -129.886719 L 132.894531 -129.339844 L 138.363281 -130.160156 L 143.285156 -129.339844 L 148.207031 -129.066406 L 153.949219 -132.347656 L 157.777344 -138.089844 L 157.503906 -143.558594 L 156.957031 -149.027344 L 157.503906 -159.691406 L 156.683594 -165.160156 L 154.222656 -170.902344 L 149.574219 -170.902344 L 146.839844 -165.433594 L 145.746094 -159.691406 L 146.839844 -149.027344 L 143.285156 -143.558594 L 137.816406 -140.824219 L 129.339844 -140.277344 L 122.230469 -140.824219 L 116.761719 -140.003906 L 111.566406 -140.824219 L 106.097656 -140.277344 L 100.082031 -140.824219 L 94.886719 -140.277344 L 90.511719 -140.824219 L 84.496094 -140.277344 L 79.570312 -138.089844 L 76.835938 -132.074219 Z M 40.742188 9.84375 L 40.742188 15.3125 L 45.9375 18.046875 L 56.875 17.773438 L 65.625 18.59375 L 74.101562 18.046875 L 79.296875 18.320312 L 84.769531 15.859375 L 88.324219 9.84375 L 87.230469 -13.125 L 87.777344 -18.046875 L 87.503906 -35.273438 L 90.785156 -41.5625 L 95.707031 -44.023438 L 101.449219 -44.570312 L 140.550781 -43.75 L 146.019531 -46.484375 L 149.574219 -52.226562 L 149.847656 -58.242188 L 149.027344 -63.710938 L 148.753906 -79.296875 L 146.292969 -85.042969 L 141.644531 -85.589844 L 138.636719 -79.84375 L 138.089844 -74.101562 L 138.636719 -68.359375 L 138.089844 -63.164062 L 134.808594 -57.148438 L 130.160156 -55.234375 L 124.417969 -54.6875 L 87.777344 -54.6875 L 78.75 -52.226562 L 76.835938 -43.75 L 77.382812 -35.273438 L 76.5625 -29.53125 L 77.109375 -23.789062 L 76.5625 -18.320312 L 76.5625 -12.851562 L 77.109375 -6.835938 L 77.382812 -1.367188 L 73.554688 4.375 L 67.8125 6.835938 L 48.945312 7.382812 Z M 40.742188 9.84375 "/></g></g></g><g fill="#ffffff" fill-opacity="1"><g transform="translate(737.322752, 518.34429)"><g><path d="M 3.554688 -7.382812 L 4.921875 -1.640625 L 10.390625 -0.273438 L 34.453125 -0.273438 L 41.5625 0.546875 L 47.851562 -2.1875 L 52.773438 -7.109375 L 57.421875 -16.40625 L 62.070312 -21.601562 L 68.632812 -24.335938 L 74.101562 -23.789062 L 89.417969 -24.0625 L 95.160156 -23.242188 L 101.449219 -24.0625 L 106.371094 -24.0625 L 112.113281 -23.515625 L 124.964844 -24.0625 L 133.988281 -21.054688 L 139.730469 -16.679688 L 141.097656 -11.757812 L 144.105469 -6.835938 L 148.753906 -2.460938 L 155.863281 0.273438 L 160.785156 -0.273438 L 170.355469 0.546875 L 187.308594 0 L 192.230469 -1.640625 L 193.324219 -7.382812 L 191.683594 -14.21875 L 189.769531 -19.140625 L 186.214844 -23.789062 L 184.574219 -29.257812 L 181.839844 -33.359375 L 180.199219 -38.554688 L 175.550781 -48.398438 L 173.636719 -53.59375 L 170.902344 -58.242188 L 167.074219 -68.359375 L 164.066406 -72.734375 L 161.878906 -78.203125 L 159.417969 -82.855469 L 157.503906 -88.324219 L 155.042969 -92.425781 L 153.402344 -97.894531 L 150.394531 -102.816406 L 148.207031 -107.464844 L 145.472656 -112.113281 L 144.105469 -117.308594 L 138.636719 -126.878906 L 136.996094 -132.074219 L 132.074219 -142.464844 L 130.707031 -146.839844 L 126.605469 -156.410156 L 121.136719 -166.527344 L 116.761719 -176.917969 L 114.300781 -181.019531 L 112.660156 -186.214844 L 107.738281 -191.410156 L 98.441406 -193.871094 L 89.691406 -191.136719 L 84.496094 -186.214844 L 82.855469 -181.292969 L 71.09375 -156.683594 L 68.085938 -151.761719 L 52.773438 -117.308594 L 51.40625 -112.660156 L 48.398438 -107.738281 L 44.023438 -97.894531 L 39.921875 -90.785156 L 38.007812 -85.589844 L 34.179688 -78.476562 L 32.539062 -72.734375 L 30.078125 -68.359375 L 28.164062 -62.890625 L 20.507812 -48.671875 L 12.578125 -28.710938 L 9.296875 -24.335938 L 6.835938 -18.867188 Z M 133.714844 -173.363281 L 127.972656 -173.636719 L 127.425781 -168.167969 L 144.378906 -133.714844 L 145.472656 -128.246094 L 148.207031 -123.050781 L 151.214844 -118.675781 L 153.402344 -114.300781 L 155.042969 -108.832031 L 158.050781 -103.636719 L 159.964844 -98.988281 L 162.425781 -94.339844 L 168.441406 -78.75 L 171.449219 -74.375 L 182.933594 -49.765625 L 184.574219 -44.296875 L 190.316406 -34.453125 L 191.410156 -29.53125 L 194.691406 -24.335938 L 196.058594 -19.6875 L 198.792969 -14.21875 L 202.074219 0 L 199.886719 4.375 L 194.144531 7.109375 L 188.949219 6.835938 L 183.207031 7.382812 L 161.058594 7.109375 L 157.503906 9.570312 L 159.417969 15.585938 L 166.527344 17.773438 L 190.863281 17.773438 L 196.605469 18.320312 L 201.800781 18.320312 L 210.003906 15.859375 L 214.105469 7.382812 L 213.832031 0 L 210.003906 -15.585938 L 207.269531 -20.507812 L 205.902344 -25.703125 L 197.972656 -39.648438 L 192.230469 -55.234375 L 188.949219 -59.609375 L 181.839844 -74.648438 L 179.925781 -80.117188 L 176.917969 -84.496094 L 175.277344 -89.144531 L 172.542969 -94.066406 L 168.714844 -104.730469 L 161.332031 -118.949219 L 159.964844 -124.144531 L 156.957031 -129.066406 L 155.316406 -133.714844 L 152.035156 -138.636719 L 147.660156 -148.207031 L 145.746094 -153.949219 L 143.011719 -158.324219 L 138.636719 -168.714844 Z M 88.050781 -67.539062 L 82.855469 -69.726562 L 82.035156 -75.195312 L 92.972656 -100.082031 L 95.433594 -104.457031 L 98.988281 -107.191406 L 102.269531 -105.003906 L 105.824219 -94.339844 L 108.832031 -89.691406 L 109.925781 -85.316406 L 112.660156 -79.84375 L 114.574219 -74.921875 L 114.027344 -70 L 109.378906 -67.8125 Z M 91.332031 -79.023438 L 92.699219 -73.554688 L 98.714844 -74.921875 L 102.816406 -84.222656 L 100.355469 -92.152344 L 95.433594 -89.964844 L 92.699219 -84.769531 Z M 13.671875 12.304688 L 15.585938 16.679688 L 20.507812 18.046875 L 39.648438 17.773438 L 46.484375 18.59375 L 52.226562 18.320312 L 58.789062 15.585938 L 63.4375 11.210938 L 68.085938 0.820312 L 73.554688 -3.28125 L 79.296875 -6.289062 L 106.644531 -6.5625 L 112.660156 -5.742188 L 117.308594 -6.289062 L 127.972656 -6.289062 L 132.074219 -8.476562 L 130.160156 -14.492188 L 122.777344 -16.953125 L 117.582031 -17.226562 L 103.363281 -16.679688 L 95.980469 -17.226562 L 89.964844 -16.679688 L 78.75 -17.226562 L 72.734375 -16.953125 L 66.171875 -14.765625 L 60.976562 -9.84375 L 56.601562 0.273438 L 51.953125 4.921875 L 44.570312 7.382812 L 33.90625 6.835938 L 28.984375 7.382812 L 22.695312 7.109375 L 16.953125 8.476562 Z M 13.671875 12.304688 "/></g></g></g><g fill="#ffffff" fill-opacity="1"><g transform="translate(935.837296, 518.34429)"><g><path d="M 161.332031 -4.375 L 169.261719 -0.820312 L 176.371094 1.367188 L 182.660156 -1.640625 L 185.121094 -7.382812 L 186.488281 -81.761719 L 185.394531 -89.417969 L 185.941406 -95.433594 L 184.847656 -128.246094 L 185.667969 -139.183594 L 185.121094 -144.378906 L 185.121094 -155.316406 L 186.214844 -160.785156 L 185.667969 -168.988281 L 186.214844 -183.207031 L 182.933594 -188.128906 L 176.917969 -190.863281 L 171.449219 -191.410156 L 166.253906 -191.410156 L 160.238281 -190.863281 L 154.496094 -191.683594 L 149.574219 -191.136719 L 144.105469 -191.410156 L 137.542969 -188.675781 L 134.808594 -182.933594 L 134.535156 -133.167969 L 135.628906 -127.425781 L 135.628906 -122.230469 L 134.535156 -116.488281 L 134.808594 -105.550781 L 133.441406 -101.175781 L 129.613281 -102.269531 L 117.582031 -114.574219 L 113.480469 -117.855469 L 103.910156 -127.699219 L 99.535156 -130.980469 L 96.527344 -134.808594 L 90.785156 -140.824219 L 82.308594 -147.933594 L 79.296875 -152.035156 L 74.101562 -155.589844 L 71.367188 -159.691406 L 66.71875 -162.972656 L 63.164062 -167.621094 L 48.398438 -182.660156 L 37.460938 -190.042969 L 30.078125 -192.230469 L 23.515625 -188.949219 L 19.960938 -183.753906 L 20.507812 -145.472656 L 19.960938 -140.003906 L 20.78125 -128.792969 L 20.234375 -123.871094 L 20.507812 -118.128906 L 19.6875 -112.386719 L 20.78125 -73.28125 L 20.234375 -68.359375 L 20.234375 -63.164062 L 19.6875 -57.148438 L 19.6875 -51.953125 L 20.507812 -46.210938 L 20.234375 -35 L 20.78125 -29.53125 L 19.960938 -19.140625 L 20.78125 -13.671875 L 20.78125 -8.476562 L 23.242188 -2.460938 L 28.4375 0.546875 L 37.734375 0 L 51.40625 0.820312 L 57.148438 0 L 63.4375 0.546875 L 68.90625 -2.1875 L 71.367188 -7.65625 L 70.546875 -13.125 L 71.367188 -80.117188 L 70.273438 -85.863281 L 73.007812 -89.144531 L 76.5625 -88.324219 L 115.667969 -50.039062 L 120.042969 -46.484375 L 146.566406 -19.960938 L 150.121094 -15.585938 L 154.496094 -12.03125 L 157.777344 -7.929688 Z M 183.207031 7.929688 L 179.105469 9.296875 L 180.199219 13.398438 L 186.761719 17.226562 L 194.417969 16.132812 L 199.886719 12.851562 L 202.347656 7.109375 L 202.074219 2.460938 L 202.621094 -1.09375 L 202.621094 -39.375 L 203.167969 -44.570312 L 202.074219 -50.039062 L 202.347656 -55.507812 L 202.074219 -61.523438 L 202.347656 -66.171875 L 202.074219 -71.914062 L 203.167969 -93.792969 L 202.347656 -99.261719 L 202.621094 -104.730469 L 201.800781 -110.746094 L 202.621094 -124.144531 L 202.347656 -132.074219 L 202.894531 -137.816406 L 202.074219 -143.558594 L 202.621094 -151.761719 L 202.074219 -164.886719 L 199.339844 -170.628906 L 195.511719 -171.449219 L 192.777344 -165.160156 L 192.777344 -149.027344 L 191.957031 -143.558594 L 192.503906 -137.816406 L 191.683594 -127.152344 L 192.777344 -121.957031 L 191.957031 -115.667969 L 193.324219 -104.457031 L 192.503906 -99.261719 L 192.230469 -93.519531 L 192.503906 -88.871094 L 191.683594 -77.65625 L 193.050781 -66.71875 L 192.230469 -0.546875 L 189.496094 4.921875 Z M 89.144531 -58.242188 L 83.402344 -71.914062 L 79.570312 -72.734375 L 77.65625 -68.90625 L 78.476562 -50.039062 L 77.65625 -41.289062 L 78.203125 -27.34375 L 77.382812 -21.328125 L 77.109375 -13.398438 L 78.203125 -7.382812 L 77.929688 -1.640625 L 75.46875 4.375 L 69.726562 6.835938 L 57.96875 6.5625 L 52.773438 7.109375 L 46.484375 7.109375 L 41.015625 9.296875 L 40.195312 14.765625 L 45.9375 17.773438 L 52.226562 17.5 L 57.96875 18.320312 L 71.914062 17.226562 L 76.835938 17.773438 L 85.863281 15.039062 L 88.324219 9.023438 L 89.144531 3.007812 L 88.597656 -1.914062 L 89.417969 -13.398438 L 89.144531 -24.335938 L 88.324219 -30.625 L 88.597656 -47.304688 L 89.144531 -52.5 Z M 89.144531 -58.242188 "/></g></g></g><g fill="#ffffff" fill-opacity="1"><g transform="translate(13.511681, 249.338167)"><g><path d="M 15.492188 -6.492188 L 17.167969 -2.09375 L 21.566406 -0.417969 L 25.753906 0 L 38.105469 -0.210938 L 42.710938 0.210938 L 47.109375 0.210938 L 51.296875 -2.09375 L 53.179688 -6.492188 L 53.390625 -14.867188 L 52.972656 -18.84375 L 53.601562 -22.613281 L 53.179688 -27.21875 L 53.179688 -31.617188 L 54.648438 -35.175781 L 60.300781 -37.269531 L 64.90625 -37.898438 L 71.1875 -37.269531 L 82.074219 -37.476562 L 90.660156 -39.152344 L 102.800781 -42.710938 L 109.921875 -47.109375 L 113.269531 -49.621094 L 119.550781 -55.695312 L 126.253906 -65.742188 L 128.136719 -69.511719 L 129.601562 -73.28125 L 131.488281 -81.867188 L 131.90625 -85.632812 L 132.113281 -97.988281 L 128.347656 -114.316406 L 124.160156 -121.855469 L 121.4375 -125.414062 L 118.714844 -128.347656 L 116.410156 -131.488281 L 112.851562 -134.628906 L 106.570312 -138.816406 L 99.035156 -142.792969 L 94.636719 -143.628906 L 90.449219 -145.304688 L 86.679688 -146.144531 L 24.078125 -146.351562 L 18.425781 -144.46875 L 16.332031 -140.488281 L 15.914062 -136.09375 L 15.914062 -127.507812 L 15.285156 -123.738281 L 15.285156 -119.761719 L 15.914062 -115.363281 L 15.914062 -94.007812 L 15.492188 -89.820312 L 15.914062 -86.054688 L 15.492188 -81.445312 L 16.121094 -72.863281 L 15.285156 -67.210938 L 15.914062 -60.929688 L 15.492188 -56.949219 L 15.492188 -48.15625 L 16.121094 -44.179688 L 15.492188 -35.804688 L 16.121094 -22.613281 L 15.074219 -18.425781 L 15.914062 -14.445312 L 15.285156 -10.46875 Z M 31.40625 7.117188 L 31.40625 11.726562 L 34.964844 13.398438 L 39.363281 13.609375 L 43.757812 13.191406 L 49.414062 13.820312 L 60.507812 13.609375 L 64.277344 11.304688 L 66.582031 6.910156 L 66.789062 2.929688 L 66.582031 -1.046875 L 67.210938 -5.445312 L 66.582031 -13.609375 L 66.789062 -18.214844 L 68.882812 -22.402344 L 73.699219 -24.289062 L 86.890625 -24.289062 L 91.914062 -24.914062 L 103.847656 -27.847656 L 111.386719 -30.988281 L 116.832031 -34.335938 L 121.644531 -38.316406 L 124.996094 -40.617188 L 127.925781 -43.757812 L 130.859375 -46.273438 L 132.742188 -49.832031 L 137.769531 -56.742188 L 143.003906 -68.675781 L 143.421875 -89.191406 L 142.375 -93.589844 L 141.957031 -98.195312 L 139.441406 -106.988281 L 135.046875 -114.316406 L 132.742188 -115.785156 L 132.953125 -113.269531 L 134.835938 -109.503906 L 137.140625 -101.128906 L 136.929688 -97.566406 L 137.558594 -93.589844 L 136.929688 -80.609375 L 132.742188 -64.488281 L 130.230469 -60.300781 L 127.71875 -57.160156 L 126.253906 -53.390625 L 119.972656 -47.109375 L 109.503906 -39.992188 L 105.316406 -37.6875 L 92.960938 -33.917969 L 78.304688 -32.453125 L 64.277344 -32.664062 L 60.507812 -30.148438 L 58.207031 -25.960938 L 58.835938 -5.234375 L 58.207031 -1.046875 L 56.113281 2.929688 L 51.925781 5.023438 L 47.738281 5.023438 L 43.757812 5.445312 L 39.363281 5.023438 L 35.175781 5.234375 Z M 59.882812 -71.398438 L 55.902344 -73.28125 L 53.390625 -77.46875 L 52.972656 -106.570312 L 55.484375 -111.175781 L 59.671875 -112.851562 L 64.90625 -113.269531 L 81.65625 -112.433594 L 85.214844 -110.550781 L 88.355469 -108.246094 L 91.707031 -105.105469 L 93.800781 -101.546875 L 95.683594 -91.707031 L 93.378906 -82.074219 L 88.566406 -76.210938 L 85.214844 -73.910156 L 81.867188 -72.023438 L 64.695312 -70.976562 Z M 58.207031 -82.914062 L 60.300781 -78.933594 L 64.070312 -78.515625 L 66.789062 -82.285156 L 66.371094 -86.472656 L 67 -90.03125 L 66.582031 -93.800781 L 68.464844 -97.359375 L 72.652344 -99.453125 L 76.839844 -99.871094 L 83.121094 -99.242188 L 87.726562 -100.082031 L 86.472656 -103.011719 L 83.75 -105.523438 L 80.398438 -106.988281 L 74.957031 -108.035156 L 69.09375 -108.246094 L 64.277344 -107.828125 L 60.507812 -105.941406 L 58.625 -100.5 Z M 58.207031 -82.914062 "/></g></g></g><g fill="#ffffff" fill-opacity="1"><g transform="translate(151.280002, 249.338167)"><g><path d="M 16.121094 -6.699219 L 17.585938 -2.09375 L 21.773438 0 L 25.753906 0.210938 L 34.335938 -0.417969 L 38.734375 0 L 45.015625 0 L 51.507812 -2.09375 L 52.972656 -6.070312 L 53.390625 -10.46875 L 52.554688 -14.867188 L 53.179688 -23.867188 L 52.761719 -36.851562 L 54.648438 -41.039062 L 58.835938 -43.132812 L 62.601562 -43.132812 L 66.371094 -43.339844 L 71.605469 -41.664062 L 74.957031 -38.105469 L 80.398438 -30.777344 L 81.867188 -26.800781 L 87.726562 -16.332031 L 90.449219 -12.351562 L 92.332031 -8.792969 L 94.847656 -5.445312 L 99.035156 -1.675781 L 104.269531 -0.417969 L 111.804688 0 L 116.410156 -0.417969 L 120.597656 0 L 128.972656 0 L 133.582031 -0.417969 L 137.976562 -1.464844 L 138.816406 -5.863281 L 136.09375 -11.097656 L 129.394531 -21.355469 L 127.507812 -24.914062 L 124.996094 -28.683594 L 122.902344 -32.453125 L 120.179688 -35.804688 L 113.898438 -46.691406 L 113.269531 -51.714844 L 115.574219 -56.113281 L 121.4375 -61.765625 L 123.949219 -65.324219 L 125.414062 -69.304688 L 127.71875 -73.070312 L 129.183594 -76.632812 L 131.488281 -84.585938 L 131.695312 -101.128906 L 130.648438 -105.105469 L 130.019531 -109.082031 L 128.972656 -113.269531 L 123.320312 -124.785156 L 120.390625 -127.925781 L 118.503906 -131.066406 L 108.035156 -139.023438 L 100.707031 -142.792969 L 83.332031 -146.351562 L 78.097656 -146.769531 L 72.023438 -146.5625 L 67.417969 -146.769531 L 63.230469 -146.351562 L 58.625 -146.769531 L 55.066406 -146.351562 L 42.503906 -146.769531 L 38.523438 -146.144531 L 29.941406 -146.980469 L 25.960938 -146.351562 L 21.355469 -146.5625 L 17.378906 -144.675781 L 15.703125 -140.28125 L 15.074219 -81.65625 L 15.703125 -75.585938 L 15.703125 -65.117188 L 15.285156 -60.71875 L 15.074219 -52.761719 L 15.703125 -48.15625 L 15.074219 -39.570312 L 15.914062 -27.429688 L 15.492188 -23.03125 Z M 58.835938 -77.050781 L 55.273438 -78.933594 L 53.179688 -83.332031 L 52.554688 -106.78125 L 55.066406 -110.96875 L 59.253906 -113.0625 L 62.601562 -113.269531 L 74.117188 -113.0625 L 83.75 -111.804688 L 90.238281 -107.828125 L 92.332031 -104.6875 L 93.800781 -101.335938 L 94.21875 -95.265625 L 93.589844 -89.613281 L 91.914062 -85.425781 L 89.613281 -81.867188 L 87.097656 -79.351562 L 83.960938 -77.886719 L 67.628906 -76.421875 L 63.441406 -77.050781 Z M 138.1875 -108.664062 L 136.511719 -110.128906 L 135.675781 -107.617188 L 136.929688 -103.847656 L 137.558594 -99.660156 L 137.347656 -83.75 L 136.511719 -79.5625 L 132.742188 -67.835938 L 128.972656 -60.929688 L 126.253906 -57.789062 L 123.113281 -54.855469 L 121.019531 -49.832031 L 122.273438 -45.015625 L 124.785156 -41.457031 L 126.460938 -38.105469 L 128.136719 -34.335938 L 135.464844 -23.867188 L 137.140625 -20.101562 L 139.652344 -16.332031 L 141.535156 -13.191406 L 143.839844 -7.328125 L 144.050781 -1.464844 L 141.957031 3.140625 L 137.976562 5.234375 L 112.644531 5.023438 L 109.921875 7.328125 L 111.804688 11.097656 L 119.132812 13.191406 L 128.136719 13.609375 L 134.417969 12.980469 L 138.1875 13.398438 L 142.792969 13.191406 L 148.027344 11.097656 L 152.425781 4.816406 L 153.050781 -2.09375 L 151.585938 -8.792969 L 148.027344 -18.214844 L 143.421875 -25.542969 L 141.746094 -29.523438 L 139.023438 -32.871094 L 133.371094 -44.386719 L 132.324219 -49.414062 L 133.582031 -54.226562 L 142.164062 -68.882812 L 144.050781 -77.257812 L 144.257812 -83.332031 L 145.097656 -89.402344 L 143.210938 -97.777344 L 141.328125 -101.335938 L 139.863281 -104.894531 Z M 58.414062 -88.566406 L 60.300781 -84.796875 L 64.90625 -84.378906 L 68.882812 -97.566406 L 73.910156 -99.871094 L 84.167969 -99.660156 L 87.308594 -100.707031 L 86.679688 -104.058594 L 82.914062 -106.363281 L 76.839844 -107.828125 L 64.695312 -108.035156 L 60.300781 -105.523438 L 58.414062 -101.753906 Z M 31.195312 7.117188 L 31.195312 11.304688 L 35.382812 13.398438 L 57.996094 13.191406 L 64.488281 11.097656 L 66.164062 7.117188 L 66.789062 -23.660156 L 70.769531 -31.617188 L 68.257812 -35.59375 L 63.648438 -37.898438 L 60.089844 -36.011719 L 58.414062 -29.3125 L 58.625 -23.03125 L 57.996094 -18.425781 L 58.207031 -14.445312 L 57.996094 -10.050781 L 58.414062 -3.558594 L 56.320312 2.929688 L 52.34375 5.234375 L 35.382812 5.023438 Z M 31.195312 7.117188 "/></g></g></g><g fill="#ffffff" fill-opacity="1"><g transform="translate(296.376584, 249.338167)"><g><path d="M 78.304688 2.511719 L 90.03125 2.304688 L 102.59375 0.628906 L 118.296875 -4.605469 L 125.207031 -8.375 L 128.347656 -10.886719 L 132.324219 -12.773438 L 138.1875 -17.796875 L 140.910156 -21.566406 L 143.839844 -24.496094 L 153.050781 -38.523438 L 156.191406 -46.480469 L 157.867188 -54.4375 L 158.078125 -58.207031 L 159.125 -62.394531 L 159.332031 -66.789062 L 160.171875 -72.863281 L 159.542969 -83.332031 L 158.078125 -91.914062 L 152.84375 -107.617188 L 148.863281 -115.363281 L 144.257812 -121.644531 L 138.394531 -128.136719 L 132.324219 -133.371094 L 127.507812 -136.722656 L 121.226562 -139.441406 L 118.085938 -141.746094 L 101.964844 -146.769531 L 89.820312 -148.863281 L 84.167969 -149.074219 L 61.976562 -145.933594 L 46.273438 -140.070312 L 43.132812 -137.769531 L 39.363281 -135.882812 L 32.242188 -130.648438 L 21.984375 -118.714844 L 15.492188 -107.617188 L 12.351562 -99.660156 L 8.792969 -83.539062 L 8.164062 -66.582031 L 8.792969 -62.183594 L 9.839844 -58.414062 L 10.257812 -54.4375 L 12.144531 -46.480469 L 21.773438 -27.429688 L 24.289062 -24.914062 L 27.007812 -21.566406 L 30.148438 -18.632812 L 32.453125 -15.914062 L 39.363281 -10.46875 L 55.695312 -2.09375 L 61.765625 0 L 66.371094 0.417969 L 73.910156 2.09375 Z M 90.03125 -34.546875 L 78.515625 -34.546875 L 73.910156 -35.175781 L 66.371094 -38.316406 L 63.023438 -40.199219 L 57.367188 -44.804688 L 54.648438 -47.738281 L 51.714844 -51.714844 L 50.667969 -55.066406 L 48.785156 -58.835938 L 47.109375 -66.582031 L 47.109375 -79.351562 L 48.15625 -83.121094 L 48.785156 -87.097656 L 50.460938 -90.867188 L 51.714844 -94.636719 L 56.742188 -101.335938 L 67.210938 -108.457031 L 69.929688 -109.503906 L 78.097656 -111.597656 L 83.960938 -112.015625 L 94.007812 -110.757812 L 97.777344 -109.921875 L 101.546875 -108.246094 L 108.035156 -103.640625 L 116.203125 -95.054688 L 118.714844 -87.097656 L 120.597656 -83.121094 L 121.226562 -79.351562 L 120.808594 -66.582031 L 119.132812 -58.835938 L 117.667969 -55.066406 L 115.363281 -51.296875 L 114.109375 -48.15625 L 111.175781 -44.804688 L 101.128906 -37.898438 L 97.359375 -36.851562 L 94.21875 -35.382812 Z M 53.179688 -69.304688 L 54.855469 -60.507812 L 57.789062 -53.390625 L 59.042969 -56.113281 L 58.835938 -63.230469 L 60.507812 -73.910156 L 64.277344 -84.796875 L 69.722656 -91.285156 L 74.117188 -95.054688 L 79.5625 -97.777344 L 83.75 -99.035156 L 87.726562 -99.871094 L 93.800781 -100.289062 L 97.359375 -100.5 L 100.917969 -101.128906 L 93.800781 -105.105469 L 86.679688 -106.363281 L 83.332031 -105.734375 L 77.679688 -105.523438 L 73.910156 -104.476562 L 70.351562 -102.800781 L 63.648438 -97.777344 L 60.300781 -94.425781 L 55.902344 -87.519531 L 53.601562 -75.585938 Z M 164.148438 -78.097656 L 164.988281 -70.558594 L 164.148438 -58.414062 L 163.101562 -54.019531 L 162.894531 -49.414062 L 155.984375 -30.359375 L 145.515625 -16.332031 L 139.652344 -10.46875 L 133.371094 -5.652344 L 129.183594 -3.976562 L 126.042969 -1.882812 L 118.503906 1.882812 L 114.738281 3.351562 L 102.59375 6.28125 L 88.355469 7.328125 L 70.976562 6.492188 L 66.371094 5.652344 L 64.070312 6.070312 L 65.742188 8.164062 L 73.699219 9.839844 L 77.679688 11.304688 L 87.519531 12.5625 L 102.59375 12.773438 L 117.457031 10.257812 L 123.320312 7.957031 L 127.507812 7.117188 L 130.441406 5.023438 L 141.746094 -1.257812 L 148.027344 -6.699219 L 150.957031 -10.257812 L 154.308594 -12.980469 L 161.21875 -23.867188 L 166.453125 -35.175781 L 167.707031 -43.757812 L 169.175781 -47.945312 L 170.011719 -62.601562 L 169.800781 -69.09375 L 170.011719 -72.863281 L 168.546875 -77.257812 L 168.546875 -81.027344 L 164.988281 -92.960938 L 163.730469 -94.847656 L 162.894531 -92.753906 Z M 165.195312 -67.210938 L 164.566406 -66.164062 L 165.40625 -67.835938 Z M 165.195312 -67.210938 "/></g></g></g><g fill="#ffffff" fill-opacity="1"><g transform="translate(464.29498, 249.338167)"><g><path d="M 15.285156 -6.28125 L 17.585938 -1.464844 L 21.566406 0.417969 L 90.867188 -0.417969 L 98.824219 -1.464844 L 105.734375 -4.1875 L 113.691406 -8.792969 L 116.410156 -10.886719 L 119.761719 -14.027344 L 124.578125 -20.9375 L 126.460938 -24.914062 L 127.300781 -28.476562 L 128.972656 -32.664062 L 129.183594 -49.414062 L 128.347656 -53.390625 L 126.878906 -57.789062 L 123.113281 -65.117188 L 120.179688 -68.675781 L 117.039062 -71.816406 L 115.15625 -76.421875 L 115.992188 -80.609375 L 118.296875 -84.796875 L 120.808594 -88.355469 L 123.738281 -103.429688 L 123.53125 -109.503906 L 121.226562 -117.25 L 119.132812 -121.226562 L 117.878906 -125.207031 L 112.851562 -131.90625 L 109.921875 -134.835938 L 103.640625 -139.234375 L 95.894531 -143.421875 L 84.167969 -146.144531 L 21.148438 -146.5625 L 16.960938 -144.675781 L 15.074219 -140.28125 L 15.492188 -131.277344 L 15.074219 -125.207031 L 15.914062 -111.175781 L 15.285156 -106.78125 L 15.703125 -102.382812 L 15.285156 -98.40625 L 15.492188 -94.007812 L 15.074219 -90.03125 L 15.074219 -73.28125 L 15.703125 -68.882812 L 15.285156 -64.90625 L 15.285156 -56.53125 L 15.703125 -52.554688 L 15.285156 -35.382812 L 15.914062 -26.800781 L 15.074219 -14.238281 Z M 131.066406 -112.015625 L 128.554688 -113.691406 L 127.300781 -109.921875 L 128.136719 -104.269531 L 128.347656 -98.40625 L 126.671875 -88.773438 L 123.113281 -81.867188 L 122.273438 -77.050781 L 125.625 -73.699219 L 128.972656 -76.003906 L 130.859375 -79.5625 L 132.324219 -83.539062 L 134.417969 -91.707031 L 134.628906 -95.894531 L 133.789062 -100.5 L 133.789062 -104.269531 Z M 58.207031 -89.820312 L 53.179688 -91.496094 L 51.085938 -95.683594 L 51.925781 -99.242188 L 51.925781 -103.222656 L 51.507812 -107.199219 L 53.808594 -110.757812 L 58.207031 -113.0625 L 73.28125 -112.433594 L 79.773438 -111.175781 L 82.285156 -109.503906 L 85.007812 -106.570312 L 85.632812 -100.917969 L 84.585938 -94.636719 L 81.027344 -91.285156 L 73.910156 -89.820312 Z M 78.515625 -99.453125 L 82.285156 -101.128906 L 82.074219 -103.222656 L 80.398438 -104.6875 L 78.515625 -106.78125 L 75.164062 -108.035156 L 72.863281 -107.828125 L 63.441406 -108.246094 L 60.929688 -108.035156 L 57.578125 -106.570312 L 56.742188 -104.476562 L 57.160156 -101.964844 L 56.320312 -99.871094 L 58.207031 -95.683594 L 61.347656 -94.007812 L 63.859375 -95.683594 L 66.164062 -98.40625 L 68.675781 -99.453125 L 71.605469 -99.453125 L 74.117188 -100.082031 Z M 57.578125 -33.289062 L 54.019531 -34.964844 L 51.714844 -39.363281 L 51.925781 -42.921875 L 51.507812 -46.898438 L 51.714844 -51.085938 L 53.179688 -54.855469 L 57.367188 -56.949219 L 79.5625 -56.949219 L 85.425781 -55.902344 L 88.566406 -53.601562 L 91.707031 -50.667969 L 92.125 -44.804688 L 91.707031 -39.363281 L 88.984375 -36.429688 L 85.214844 -34.128906 L 73.910156 -33.082031 Z M 86.261719 -44.179688 L 87.9375 -45.015625 L 87.9375 -47.109375 L 87.308594 -49.414062 L 83.960938 -51.085938 L 81.027344 -52.132812 L 78.097656 -52.761719 L 73.070312 -52.34375 L 67.210938 -52.554688 L 64.90625 -52.132812 L 60.300781 -52.34375 L 57.996094 -50.878906 L 56.320312 -48.992188 L 56.949219 -46.0625 L 56.53125 -41.457031 L 58.625 -39.363281 L 61.347656 -38.105469 L 63.441406 -38.945312 L 65.535156 -41.039062 L 66.371094 -43.132812 L 68.882812 -43.96875 L 77.886719 -43.757812 L 81.445312 -44.386719 Z M 137.558594 -49.203125 L 134.835938 -52.34375 L 134.207031 -47.109375 L 134.835938 -38.523438 L 133.371094 -31.824219 L 133.160156 -27.847656 L 130.019531 -19.890625 L 127.507812 -15.914062 L 124.785156 -12.351562 L 119.132812 -6.28125 L 111.804688 -1.464844 L 108.035156 0.210938 L 104.6875 2.304688 L 95.683594 4.398438 L 69.722656 5.234375 L 65.324219 4.816406 L 37.476562 5.023438 L 30.988281 6.699219 L 30.777344 11.097656 L 35.382812 13.609375 L 43.339844 13.609375 L 47.320312 13.191406 L 51.714844 13.609375 L 64.488281 13.191406 L 70.769531 13.609375 L 76.632812 13.191406 L 82.914062 13.398438 L 87.097656 12.980469 L 93.589844 13.191406 L 106.363281 10.886719 L 109.921875 9.003906 L 114.316406 7.328125 L 117.878906 5.445312 L 126.460938 -0.628906 L 130.441406 -4.605469 L 133.582031 -8.375 L 135.253906 -12.144531 L 137.347656 -15.703125 L 138.816406 -19.261719 L 139.863281 -23.660156 L 140.488281 -29.941406 L 140.488281 -36.011719 L 140.070312 -39.78125 Z M 137.558594 -49.203125 "/></g></g></g><g fill="#ffffff" fill-opacity="1"><g transform="translate(602.482219, 249.338167)"><g><path d="M 2.722656 -5.652344 L 3.769531 -1.257812 L 7.957031 -0.210938 L 26.382812 -0.210938 L 31.824219 0.417969 L 36.640625 -1.675781 L 40.410156 -5.445312 L 43.96875 -12.5625 L 47.527344 -16.539062 L 52.554688 -18.632812 L 56.742188 -18.214844 L 68.464844 -18.425781 L 72.863281 -17.796875 L 77.679688 -18.425781 L 81.445312 -18.425781 L 85.84375 -18.007812 L 95.683594 -18.425781 L 102.59375 -16.121094 L 106.988281 -12.773438 L 108.035156 -9.003906 L 110.339844 -5.234375 L 113.898438 -1.882812 L 119.34375 0.210938 L 123.113281 -0.210938 L 130.441406 0.417969 L 143.421875 0 L 147.191406 -1.257812 L 148.027344 -5.652344 L 146.769531 -10.886719 L 145.304688 -14.65625 L 142.582031 -18.214844 L 141.328125 -22.402344 L 139.234375 -25.542969 L 137.976562 -29.523438 L 134.417969 -37.058594 L 132.953125 -41.039062 L 130.859375 -44.597656 L 127.925781 -52.34375 L 125.625 -55.695312 L 123.949219 -59.882812 L 122.066406 -63.441406 L 120.597656 -67.628906 L 118.714844 -70.769531 L 117.457031 -74.957031 L 115.15625 -78.726562 L 113.480469 -82.285156 L 111.386719 -85.84375 L 110.339844 -89.820312 L 106.152344 -97.148438 L 104.894531 -101.128906 L 101.128906 -109.082031 L 100.082031 -112.433594 L 96.941406 -119.761719 L 92.753906 -127.507812 L 89.402344 -135.464844 L 87.519531 -138.605469 L 86.261719 -142.582031 L 82.492188 -146.5625 L 75.375 -148.445312 L 68.675781 -146.351562 L 64.695312 -142.582031 L 63.441406 -138.816406 L 54.4375 -119.972656 L 52.132812 -116.203125 L 40.410156 -89.820312 L 39.363281 -86.261719 L 37.058594 -82.492188 L 33.710938 -74.957031 L 30.570312 -69.511719 L 29.101562 -65.535156 L 26.171875 -60.089844 L 24.914062 -55.695312 L 23.03125 -52.34375 L 21.566406 -48.15625 L 15.703125 -37.269531 L 9.632812 -21.984375 L 7.117188 -18.632812 L 5.234375 -14.445312 Z M 102.382812 -132.742188 L 97.988281 -132.953125 L 97.566406 -128.765625 L 110.550781 -102.382812 L 111.386719 -98.195312 L 113.480469 -94.21875 L 115.785156 -90.867188 L 117.457031 -87.519531 L 118.714844 -83.332031 L 121.019531 -79.351562 L 122.484375 -75.792969 L 124.367188 -72.234375 L 128.972656 -60.300781 L 131.277344 -56.949219 L 140.070312 -38.105469 L 141.328125 -33.917969 L 145.722656 -26.382812 L 146.5625 -22.613281 L 149.074219 -18.632812 L 150.121094 -15.074219 L 152.214844 -10.886719 L 154.726562 0 L 153.050781 3.351562 L 148.65625 5.445312 L 144.675781 5.234375 L 140.28125 5.652344 L 123.320312 5.445312 L 120.597656 7.328125 L 122.066406 11.933594 L 127.507812 13.609375 L 146.144531 13.609375 L 150.539062 14.027344 L 154.519531 14.027344 L 160.800781 12.144531 L 163.941406 5.652344 L 163.730469 0 L 160.800781 -11.933594 L 158.707031 -15.703125 L 157.660156 -19.679688 L 151.585938 -30.359375 L 147.191406 -42.292969 L 144.675781 -45.644531 L 139.234375 -57.160156 L 137.769531 -61.347656 L 135.464844 -64.695312 L 134.207031 -68.257812 L 132.113281 -72.023438 L 129.183594 -80.191406 L 123.53125 -91.078125 L 122.484375 -95.054688 L 120.179688 -98.824219 L 118.925781 -102.382812 L 116.410156 -106.152344 L 113.0625 -113.480469 L 111.597656 -117.878906 L 109.503906 -121.226562 L 106.152344 -129.183594 Z M 67.417969 -51.714844 L 63.441406 -53.390625 L 62.8125 -57.578125 L 71.1875 -76.632812 L 73.070312 -79.980469 L 75.792969 -82.074219 L 78.304688 -80.398438 L 81.027344 -72.234375 L 83.332031 -68.675781 L 84.167969 -65.324219 L 86.261719 -61.136719 L 87.726562 -57.367188 L 87.308594 -53.601562 L 83.75 -51.925781 Z M 69.929688 -60.507812 L 70.976562 -56.320312 L 75.585938 -57.367188 L 78.726562 -64.488281 L 76.839844 -70.558594 L 73.070312 -68.882812 L 70.976562 -64.90625 Z M 10.46875 9.421875 L 11.933594 12.773438 L 15.703125 13.820312 L 30.359375 13.609375 L 35.59375 14.238281 L 39.992188 14.027344 L 45.015625 11.933594 L 48.574219 8.585938 L 52.132812 0.628906 L 56.320312 -2.511719 L 60.71875 -4.816406 L 81.65625 -5.023438 L 86.261719 -4.398438 L 89.820312 -4.816406 L 97.988281 -4.816406 L 101.128906 -6.492188 L 99.660156 -11.097656 L 94.007812 -12.980469 L 90.03125 -13.191406 L 79.144531 -12.773438 L 73.492188 -13.191406 L 68.882812 -12.773438 L 60.300781 -13.191406 L 55.695312 -12.980469 L 50.667969 -11.304688 L 46.691406 -7.539062 L 43.339844 0.210938 L 39.78125 3.769531 L 34.128906 5.652344 L 25.960938 5.234375 L 22.195312 5.652344 L 17.378906 5.445312 L 12.980469 6.492188 Z M 10.46875 9.421875 "/></g></g></g><g fill="#ffffff" fill-opacity="1"><g transform="translate(754.488141, 249.338167)"><g><path d="M 15.285156 -6.28125 L 17.585938 -1.464844 L 21.566406 0.417969 L 90.867188 -0.417969 L 98.824219 -1.464844 L 105.734375 -4.1875 L 113.691406 -8.792969 L 116.410156 -10.886719 L 119.761719 -14.027344 L 124.578125 -20.9375 L 126.460938 -24.914062 L 127.300781 -28.476562 L 128.972656 -32.664062 L 129.183594 -49.414062 L 128.347656 -53.390625 L 126.878906 -57.789062 L 123.113281 -65.117188 L 120.179688 -68.675781 L 117.039062 -71.816406 L 115.15625 -76.421875 L 115.992188 -80.609375 L 118.296875 -84.796875 L 120.808594 -88.355469 L 123.738281 -103.429688 L 123.53125 -109.503906 L 121.226562 -117.25 L 119.132812 -121.226562 L 117.878906 -125.207031 L 112.851562 -131.90625 L 109.921875 -134.835938 L 103.640625 -139.234375 L 95.894531 -143.421875 L 84.167969 -146.144531 L 21.148438 -146.5625 L 16.960938 -144.675781 L 15.074219 -140.28125 L 15.492188 -131.277344 L 15.074219 -125.207031 L 15.914062 -111.175781 L 15.285156 -106.78125 L 15.703125 -102.382812 L 15.285156 -98.40625 L 15.492188 -94.007812 L 15.074219 -90.03125 L 15.074219 -73.28125 L 15.703125 -68.882812 L 15.285156 -64.90625 L 15.285156 -56.53125 L 15.703125 -52.554688 L 15.285156 -35.382812 L 15.914062 -26.800781 L 15.074219 -14.238281 Z M 131.066406 -112.015625 L 128.554688 -113.691406 L 127.300781 -109.921875 L 128.136719 -104.269531 L 128.347656 -98.40625 L 126.671875 -88.773438 L 123.113281 -81.867188 L 122.273438 -77.050781 L 125.625 -73.699219 L 128.972656 -76.003906 L 130.859375 -79.5625 L 132.324219 -83.539062 L 134.417969 -91.707031 L 134.628906 -95.894531 L 133.789062 -100.5 L 133.789062 -104.269531 Z M 58.207031 -89.820312 L 53.179688 -91.496094 L 51.085938 -95.683594 L 51.925781 -99.242188 L 51.925781 -103.222656 L 51.507812 -107.199219 L 53.808594 -110.757812 L 58.207031 -113.0625 L 73.28125 -112.433594 L 79.773438 -111.175781 L 82.285156 -109.503906 L 85.007812 -106.570312 L 85.632812 -100.917969 L 84.585938 -94.636719 L 81.027344 -91.285156 L 73.910156 -89.820312 Z M 78.515625 -99.453125 L 82.285156 -101.128906 L 82.074219 -103.222656 L 80.398438 -104.6875 L 78.515625 -106.78125 L 75.164062 -108.035156 L 72.863281 -107.828125 L 63.441406 -108.246094 L 60.929688 -108.035156 L 57.578125 -106.570312 L 56.742188 -104.476562 L 57.160156 -101.964844 L 56.320312 -99.871094 L 58.207031 -95.683594 L 61.347656 -94.007812 L 63.859375 -95.683594 L 66.164062 -98.40625 L 68.675781 -99.453125 L 71.605469 -99.453125 L 74.117188 -100.082031 Z M 57.578125 -33.289062 L 54.019531 -34.964844 L 51.714844 -39.363281 L 51.925781 -42.921875 L 51.507812 -46.898438 L 51.714844 -51.085938 L 53.179688 -54.855469 L 57.367188 -56.949219 L 79.5625 -56.949219 L 85.425781 -55.902344 L 88.566406 -53.601562 L 91.707031 -50.667969 L 92.125 -44.804688 L 91.707031 -39.363281 L 88.984375 -36.429688 L 85.214844 -34.128906 L 73.910156 -33.082031 Z M 86.261719 -44.179688 L 87.9375 -45.015625 L 87.9375 -47.109375 L 87.308594 -49.414062 L 83.960938 -51.085938 L 81.027344 -52.132812 L 78.097656 -52.761719 L 73.070312 -52.34375 L 67.210938 -52.554688 L 64.90625 -52.132812 L 60.300781 -52.34375 L 57.996094 -50.878906 L 56.320312 -48.992188 L 56.949219 -46.0625 L 56.53125 -41.457031 L 58.625 -39.363281 L 61.347656 -38.105469 L 63.441406 -38.945312 L 65.535156 -41.039062 L 66.371094 -43.132812 L 68.882812 -43.96875 L 77.886719 -43.757812 L 81.445312 -44.386719 Z M 137.558594 -49.203125 L 134.835938 -52.34375 L 134.207031 -47.109375 L 134.835938 -38.523438 L 133.371094 -31.824219 L 133.160156 -27.847656 L 130.019531 -19.890625 L 127.507812 -15.914062 L 124.785156 -12.351562 L 119.132812 -6.28125 L 111.804688 -1.464844 L 108.035156 0.210938 L 104.6875 2.304688 L 95.683594 4.398438 L 69.722656 5.234375 L 65.324219 4.816406 L 37.476562 5.023438 L 30.988281 6.699219 L 30.777344 11.097656 L 35.382812 13.609375 L 43.339844 13.609375 L 47.320312 13.191406 L 51.714844 13.609375 L 64.488281 13.191406 L 70.769531 13.609375 L 76.632812 13.191406 L 82.914062 13.398438 L 87.097656 12.980469 L 93.589844 13.191406 L 106.363281 10.886719 L 109.921875 9.003906 L 114.316406 7.328125 L 117.878906 5.445312 L 126.460938 -0.628906 L 130.441406 -4.605469 L 133.582031 -8.375 L 135.253906 -12.144531 L 137.347656 -15.703125 L 138.816406 -19.261719 L 139.863281 -23.660156 L 140.488281 -29.941406 L 140.488281 -36.011719 L 140.070312 -39.78125 Z M 137.558594 -49.203125 "/></g></g></g><g fill="#ffffff" fill-opacity="1"><g transform="translate(892.67538, 249.338167)"><g><path d="M 15.703125 -6.070312 L 17.585938 -2.304688 L 24.289062 0.210938 L 98.40625 -0.210938 L 104.269531 -2.304688 L 106.570312 -6.070312 L 106.152344 -10.679688 L 106.363281 -14.867188 L 106.78125 -18.632812 L 106.152344 -23.242188 L 106.78125 -27.21875 L 104.058594 -31.824219 L 100.707031 -33.917969 L 96.101562 -33.289062 L 59.253906 -33.710938 L 54.855469 -35.59375 L 53.601562 -40.199219 L 53.808594 -47.945312 L 53.179688 -51.925781 L 53.390625 -56.53125 L 52.972656 -60.71875 L 53.390625 -65.117188 L 53.179688 -75.585938 L 53.808594 -81.445312 L 53.179688 -86.054688 L 53.808594 -90.449219 L 53.179688 -123.113281 L 53.601562 -127.71875 L 53.179688 -137.976562 L 51.085938 -144.257812 L 45.644531 -146.769531 L 23.867188 -146.351562 L 17.796875 -144.050781 L 15.074219 -138.394531 L 16.332031 -127.507812 L 15.914062 -123.53125 L 15.285156 -119.132812 L 15.914062 -114.945312 L 16.332031 -110.96875 L 15.703125 -106.363281 L 15.914062 -102.382812 L 15.492188 -98.195312 L 16.121094 -93.800781 L 15.492188 -90.03125 L 15.914062 -85.84375 L 15.285156 -81.867188 L 15.914062 -72.863281 L 15.285156 -68.882812 L 15.914062 -60.507812 L 15.285156 -56.320312 L 15.492188 -47.945312 L 15.914062 -44.179688 L 15.703125 -18.632812 L 16.121094 -14.445312 L 15.285156 -10.46875 Z M 59.042969 -45.226562 L 60.929688 -40.617188 L 65.324219 -40.828125 L 67.210938 -45.226562 L 67.628906 -48.992188 L 67.628906 -60.300781 L 67 -64.070312 L 67 -74.746094 L 67.628906 -78.933594 L 67 -87.726562 L 67.210938 -104.894531 L 66.582031 -109.082031 L 67.628906 -126.460938 L 64.90625 -130.441406 L 60.71875 -130.648438 L 59.042969 -126.460938 L 59.042969 -117.667969 L 58.207031 -113.691406 L 58.625 -109.292969 L 59.042969 -57.996094 L 58.414062 -53.601562 L 59.042969 -49.621094 Z M 31.617188 7.746094 L 31.617188 11.304688 L 35.175781 13.609375 L 70.351562 14.238281 L 74.539062 13.820312 L 78.933594 14.238281 L 113.898438 13.820312 L 118.503906 11.726562 L 120.179688 7.328125 L 120.597656 -13.609375 L 118.925781 -18.007812 L 114.316406 -18.007812 L 111.804688 -13.609375 L 112.433594 -9.003906 L 111.804688 -4.816406 L 112.222656 -0.628906 L 110.128906 3.351562 L 105.316406 5.234375 L 97.359375 5.863281 L 77.050781 5.445312 L 70.976562 5.863281 L 55.902344 5.023438 L 52.34375 5.445312 L 37.476562 5.445312 Z M 31.617188 7.746094 "/></g></g></g><g fill="#ffffff" fill-opacity="1"><g transform="translate(1005.31884, 249.338167)"><g><path d="M 48.15625 -5.863281 L 50.460938 -2.304688 L 54.4375 -0.210938 L 61.976562 0.210938 L 66.164062 -0.210938 L 70.558594 0 L 76.421875 -0.210938 L 82.703125 -2.304688 L 84.796875 -6.492188 L 84.796875 -10.050781 L 84.378906 -14.445312 L 84.585938 -18.425781 L 84.378906 -22.195312 L 85.425781 -34.964844 L 84.796875 -39.363281 L 85.425781 -51.507812 L 84.585938 -55.273438 L 85.632812 -61.347656 L 92.960938 -74.117188 L 94.636719 -78.097656 L 96.941406 -81.65625 L 102.175781 -88.566406 L 126.253906 -128.347656 L 128.765625 -131.488281 L 130.230469 -135.253906 L 133.160156 -140.28125 L 132.535156 -145.304688 L 128.554688 -146.980469 L 124.367188 -146.351562 L 116.203125 -146.980469 L 111.804688 -146.351562 L 103.847656 -146.351562 L 99.871094 -146.769531 L 94.636719 -144.675781 L 90.238281 -140.699219 L 86.679688 -133.582031 L 83.960938 -129.601562 L 82.703125 -125.625 L 77.886719 -118.714844 L 74.746094 -111.175781 L 67.835938 -99.871094 L 64.90625 -99.453125 L 60.089844 -106.988281 L 58.207031 -110.757812 L 56.949219 -114.945312 L 46.480469 -133.371094 L 44.179688 -136.929688 L 42.503906 -141.117188 L 37.898438 -144.46875 L 32.664062 -146.769531 L 5.023438 -146.351562 L 0.417969 -145.097656 L 0 -140.488281 L 2.09375 -135.464844 L 24.707031 -99.660156 L 26.382812 -96.101562 L 45.015625 -66.789062 L 46.691406 -61.347656 L 47.738281 -55.273438 L 47.527344 -38.734375 L 47.945312 -34.546875 L 48.15625 -30.570312 L 47.738281 -26.800781 L 47.527344 -18.84375 L 48.574219 -10.257812 Z M 63.441406 -112.644531 L 66.371094 -110.339844 L 69.09375 -112.015625 L 69.929688 -116.832031 L 68.882812 -121.855469 L 66.789062 -124.996094 L 65.324219 -128.347656 L 60.71875 -131.90625 L 55.902344 -131.695312 L 55.066406 -128.347656 Z M 63.859375 6.910156 L 63.230469 11.515625 L 67.835938 13.398438 L 92.332031 13.609375 L 96.519531 11.515625 L 98.613281 7.539062 L 97.988281 -0.628906 L 98.40625 -29.523438 L 98.824219 -33.289062 L 98.40625 -41.457031 L 98.613281 -49.621094 L 99.660156 -55.484375 L 101.964844 -61.347656 L 103.847656 -65.117188 L 106.363281 -68.464844 L 108.035156 -72.234375 L 110.128906 -75.164062 L 113.0625 -80.609375 L 118.925781 -89.820312 L 120.390625 -93.171875 L 122.484375 -96.730469 L 125.414062 -100.082031 L 126.671875 -103.429688 L 128.765625 -107.617188 L 131.695312 -110.96875 L 133.160156 -114.316406 L 135.675781 -117.878906 L 137.558594 -121.644531 L 139.441406 -126.253906 L 138.816406 -130.648438 L 134.835938 -130.648438 L 131.488281 -127.300781 L 128.765625 -123.320312 L 125.207031 -115.785156 L 123.113281 -112.644531 L 119.972656 -109.082031 L 116.410156 -101.546875 L 113.480469 -97.988281 L 98.613281 -72.445312 L 93.378906 -65.953125 L 89.613281 -54.019531 L 89.402344 -49.414062 L 90.238281 -45.644531 L 89.820312 -41.457031 L 90.238281 -37.6875 L 90.03125 -29.3125 L 90.449219 -25.542969 L 90.03125 -21.355469 L 90.660156 -12.980469 L 89.820312 -8.792969 L 90.03125 -2.929688 L 87.9375 2.722656 L 81.867188 5.445312 L 69.511719 5.023438 Z M 63.859375 6.910156 "/></g></g></g></svg>